<svg id="Layer_5" data-name="Layer 5" xmlns="http://www.w3.org/2000/svg" xmlns:xlink="http://www.w3.org/1999/xlink" viewBox="0 0 4557.08 3957.6">
  <defs>
    <style>
      .cls-1, .cls-10 {
        fill: #fff;
      }

      .cls-1, .cls-9, .cls-90 {
        stroke: #2a1000;
      }

      .cls-1, .cls-7, .cls-9, .cls-90 {
        stroke-miterlimit: 10;
      }

      .cls-2 {
        fill: url(#linear-gradient);
      }

      .cls-3 {
        fill: url(#linear-gradient-2);
      }

      .cls-4 {
        fill: url(#linear-gradient-3);
      }

      .cls-5 {
        fill: url(#linear-gradient-4);
      }

      .cls-6 {
        fill: url(#linear-gradient-5);
      }

      .cls-7, .cls-8 {
        fill: #2a1000;
      }

      .cls-7 {
        stroke: #fff;
      }

      .cls-9 {
        fill: #070102;
      }

      .cls-11 {
        fill: url(#linear-gradient-6);
      }

      .cls-12 {
        fill: url(#linear-gradient-7);
      }

      .cls-13 {
        fill: url(#linear-gradient-8);
      }

      .cls-14 {
        fill: url(#linear-gradient-9);
      }

      .cls-15 {
        fill: url(#linear-gradient-10);
      }

      .cls-16 {
        fill: url(#linear-gradient-11);
      }

      .cls-17 {
        fill: url(#linear-gradient-12);
      }

      .cls-18 {
        fill: url(#linear-gradient-13);
      }

      .cls-19 {
        fill: url(#linear-gradient-14);
      }

      .cls-20 {
        fill: url(#linear-gradient-15);
      }

      .cls-21 {
        fill: url(#linear-gradient-16);
      }

      .cls-22 {
        fill: url(#linear-gradient-17);
      }

      .cls-23 {
        fill: url(#linear-gradient-18);
      }

      .cls-24 {
        fill: url(#linear-gradient-19);
      }

      .cls-25 {
        fill: url(#linear-gradient-20);
      }

      .cls-26 {
        fill: url(#linear-gradient-21);
      }

      .cls-27 {
        fill: url(#linear-gradient-22);
      }

      .cls-28 {
        fill: url(#linear-gradient-23);
      }

      .cls-29 {
        fill: url(#linear-gradient-24);
      }

      .cls-30 {
        fill: url(#linear-gradient-25);
      }

      .cls-31 {
        fill: url(#linear-gradient-26);
      }

      .cls-32 {
        fill: url(#linear-gradient-27);
      }

      .cls-33 {
        fill: url(#linear-gradient-28);
      }

      .cls-34 {
        fill: url(#linear-gradient-29);
      }

      .cls-35 {
        fill: url(#linear-gradient-30);
      }

      .cls-36 {
        fill: url(#linear-gradient-31);
      }

      .cls-37 {
        fill: url(#linear-gradient-32);
      }

      .cls-38 {
        fill: url(#linear-gradient-33);
      }

      .cls-39 {
        fill: url(#linear-gradient-34);
      }

      .cls-40 {
        fill: url(#linear-gradient-35);
      }

      .cls-41 {
        fill: url(#linear-gradient-36);
      }

      .cls-42 {
        fill: url(#linear-gradient-37);
      }

      .cls-43 {
        fill: url(#linear-gradient-38);
      }

      .cls-44 {
        fill: url(#linear-gradient-39);
      }

      .cls-45 {
        fill: url(#linear-gradient-40);
      }

      .cls-46 {
        fill: url(#linear-gradient-41);
      }

      .cls-47 {
        fill: url(#linear-gradient-42);
      }

      .cls-48 {
        fill: url(#linear-gradient-43);
      }

      .cls-49 {
        fill: url(#linear-gradient-44);
      }

      .cls-50 {
        fill: url(#linear-gradient-45);
      }

      .cls-51 {
        fill: url(#linear-gradient-46);
      }

      .cls-52 {
        fill: url(#linear-gradient-47);
      }

      .cls-53 {
        fill: url(#linear-gradient-48);
      }

      .cls-54 {
        fill: url(#linear-gradient-49);
      }

      .cls-55 {
        fill: url(#linear-gradient-50);
      }

      .cls-56 {
        fill: url(#linear-gradient-51);
      }

      .cls-57 {
        fill: url(#linear-gradient-52);
      }

      .cls-58 {
        fill: url(#linear-gradient-53);
      }

      .cls-59 {
        fill: url(#linear-gradient-54);
      }

      .cls-60 {
        fill: url(#linear-gradient-55);
      }

      .cls-61 {
        fill: url(#linear-gradient-56);
      }

      .cls-62 {
        fill: url(#linear-gradient-57);
      }

      .cls-63 {
        fill: url(#linear-gradient-58);
      }

      .cls-64 {
        fill: url(#linear-gradient-59);
      }

      .cls-65 {
        fill: url(#linear-gradient-60);
      }

      .cls-66 {
        fill: url(#linear-gradient-61);
      }

      .cls-67 {
        fill: url(#linear-gradient-62);
      }

      .cls-68 {
        fill: url(#linear-gradient-63);
      }

      .cls-69 {
        fill: url(#linear-gradient-64);
      }

      .cls-70 {
        fill: url(#linear-gradient-65);
      }

      .cls-71 {
        fill: url(#linear-gradient-66);
      }

      .cls-72 {
        fill: url(#linear-gradient-67);
      }

      .cls-73 {
        fill: url(#linear-gradient-68);
      }

      .cls-74 {
        fill: url(#linear-gradient-69);
      }

      .cls-75 {
        fill: url(#linear-gradient-70);
      }

      .cls-76 {
        fill: url(#linear-gradient-71);
      }

      .cls-77 {
        fill: url(#linear-gradient-72);
      }

      .cls-78 {
        fill: url(#linear-gradient-73);
      }

      .cls-79 {
        fill: url(#linear-gradient-74);
      }

      .cls-80 {
        fill: url(#linear-gradient-75);
      }

      .cls-81 {
        fill: url(#linear-gradient-76);
      }

      .cls-82 {
        fill: url(#linear-gradient-77);
      }

      .cls-83 {
        fill: url(#linear-gradient-78);
      }

      .cls-84 {
        fill: url(#linear-gradient-79);
      }

      .cls-85 {
        fill: url(#linear-gradient-80);
      }

      .cls-86 {
        fill: url(#linear-gradient-81);
      }

      .cls-87 {
        fill: url(#linear-gradient-82);
      }

      .cls-88 {
        fill: url(#linear-gradient-83);
      }

      .cls-89 {
        fill: url(#linear-gradient-84);
      }

      .cls-90 {
        fill: none;
        stroke-width: 15px;
      }

      .cls-91 {
        fill: url(#linear-gradient-92);
      }

      .cls-92 {
        fill: url(#linear-gradient-93);
      }

      .cls-93 {
        fill: url(#linear-gradient-94);
      }

      .cls-94 {
        fill: url(#linear-gradient-95);
      }

      .cls-95 {
        fill: url(#linear-gradient-96);
      }

      .cls-96 {
        fill: url(#linear-gradient-97);
      }

      .cls-97 {
        fill: url(#linear-gradient-98);
      }

      .cls-98 {
        fill: url(#linear-gradient-99);
      }

      .cls-99 {
        fill: url(#linear-gradient-100);
      }

      .cls-100 {
        fill: url(#linear-gradient-101);
      }

      .cls-101 {
        fill: url(#linear-gradient-102);
      }

      .cls-102 {
        fill: url(#linear-gradient-103);
      }

      .cls-103 {
        fill: url(#linear-gradient-104);
      }

      .cls-104 {
        fill: url(#linear-gradient-105);
      }

      .cls-105 {
        fill: url(#linear-gradient-106);
      }

      .cls-106 {
        fill: url(#linear-gradient-107);
      }

      .cls-107 {
        fill: url(#linear-gradient-108);
      }

      .cls-108 {
        fill: url(#linear-gradient-109);
      }

      .cls-109 {
        fill: url(#linear-gradient-110);
      }

      .cls-110 {
        fill: url(#linear-gradient-111);
      }

      .cls-111 {
        fill: url(#linear-gradient-112);
      }

      .cls-112 {
        fill: url(#linear-gradient-113);
      }

      .cls-113 {
        fill: url(#linear-gradient-114);
      }

      .cls-114 {
        fill: url(#linear-gradient-115);
      }

      .cls-115 {
        fill: url(#linear-gradient-116);
      }

      .cls-116 {
        fill: url(#linear-gradient-117);
      }

      .cls-117 {
        fill: url(#linear-gradient-118);
      }

      .cls-118 {
        fill: url(#linear-gradient-119);
      }

      .cls-119 {
        fill: url(#linear-gradient-120);
      }

      .cls-120 {
        fill: url(#linear-gradient-121);
      }

      .cls-121 {
        fill: url(#linear-gradient-122);
      }

      .cls-122 {
        fill: url(#linear-gradient-123);
      }

      .cls-123 {
        fill: url(#linear-gradient-124);
      }

      .cls-124 {
        fill: url(#linear-gradient-125);
      }

      .cls-125 {
        fill: url(#linear-gradient-126);
      }

      .cls-126 {
        fill: url(#linear-gradient-127);
      }

      .cls-127 {
        fill: url(#linear-gradient-128);
      }

      .cls-128 {
        fill: url(#linear-gradient-129);
      }

      .cls-129 {
        fill: url(#linear-gradient-130);
      }

      .cls-130 {
        fill: url(#linear-gradient-131);
      }

      .cls-131 {
        fill: url(#linear-gradient-132);
      }

      .cls-132 {
        fill: url(#linear-gradient-133);
      }

      .cls-133 {
        fill: url(#linear-gradient-134);
      }

      .cls-134 {
        fill: url(#linear-gradient-135);
      }

      .cls-135 {
        fill: url(#linear-gradient-136);
      }

      .cls-136 {
        fill: url(#linear-gradient-137);
      }

      .cls-137 {
        fill: url(#linear-gradient-138);
      }

      .cls-138 {
        fill: url(#linear-gradient-139);
      }

      .cls-139 {
        fill: url(#linear-gradient-140);
      }

      .cls-140 {
        fill: url(#linear-gradient-141);
      }

      .cls-141 {
        fill: url(#linear-gradient-142);
      }

      .cls-142 {
        fill: url(#linear-gradient-143);
      }

      .cls-143 {
        fill: url(#linear-gradient-144);
      }

      .cls-144 {
        fill: url(#linear-gradient-145);
      }

      .cls-145 {
        fill: url(#linear-gradient-146);
      }

      .cls-146 {
        fill: url(#linear-gradient-147);
      }
    </style>
    <linearGradient id="linear-gradient" x1="401.9" y1="125.62" x2="505.15" y2="125.62" gradientUnits="userSpaceOnUse">
      <stop offset="0" stop-color="#fff"/>
      <stop offset="0.09" stop-color="#fdfdfd"/>
      <stop offset="1" stop-color="#d9d9d9"/>
    </linearGradient>
    <linearGradient id="linear-gradient-2" x1="492.06" y1="34.86" x2="522.37" y2="34.86" gradientTransform="translate(443.81 -469.58) rotate(78.9)" xlink:href="#linear-gradient"/>
    <linearGradient id="linear-gradient-3" x1="0" y1="438.82" x2="552.1" y2="438.82" xlink:href="#linear-gradient"/>
    <linearGradient id="linear-gradient-4" x1="183.42" y1="188.4" x2="255.29" y2="188.4" xlink:href="#linear-gradient"/>
    <linearGradient id="linear-gradient-5" x1="168.26" y1="90.61" x2="198.57" y2="90.61" xlink:href="#linear-gradient"/>
    <linearGradient id="linear-gradient-6" x1="7391.27" y1="-3221.48" x2="7459.19" y2="-3221.48" gradientTransform="translate(-4128.36 7517.26) rotate(-32.54)" xlink:href="#linear-gradient"/>
    <linearGradient id="linear-gradient-7" x1="-3557.98" y1="7580.32" x2="-3490.06" y2="7580.32" gradientTransform="translate(7020.45 -3924.47) rotate(30.66)" xlink:href="#linear-gradient"/>
    <linearGradient id="linear-gradient-8" x1="1034.38" y1="147.43" x2="1137.63" y2="147.43" xlink:href="#linear-gradient"/>
    <linearGradient id="linear-gradient-9" x1="1124.53" y1="56.67" x2="1154.84" y2="56.67" gradientTransform="translate(975.98 -1072.62) rotate(78.9)" xlink:href="#linear-gradient"/>
    <linearGradient id="linear-gradient-10" x1="632.47" y1="460.63" x2="1184.57" y2="460.63" xlink:href="#linear-gradient"/>
    <linearGradient id="linear-gradient-11" x1="815.89" y1="210.21" x2="887.76" y2="210.21" xlink:href="#linear-gradient"/>
    <linearGradient id="linear-gradient-12" x1="800.74" y1="112.42" x2="831.04" y2="112.42" xlink:href="#linear-gradient"/>
    <linearGradient id="linear-gradient-13" x1="10825.64" y1="-3259.38" x2="10893.56" y2="-3259.38" gradientTransform="translate(-4472.25 10697.81) rotate(-44.03)" xlink:href="#linear-gradient"/>
    <linearGradient id="linear-gradient-14" x1="-3334.47" y1="12141.57" x2="-3266.55" y2="12141.57" gradientTransform="translate(12130.1 -4487.08) rotate(49.97)" xlink:href="#linear-gradient"/>
    <linearGradient id="linear-gradient-15" x1="2088.42" y1="-266.62" x2="2191.68" y2="-266.62" gradientTransform="translate(-384.47 459.41) rotate(-2.15)" xlink:href="#linear-gradient"/>
    <linearGradient id="linear-gradient-16" x1="2178.58" y1="-357.38" x2="2208.89" y2="-357.38" gradientTransform="translate(1021.47 -2063.93) rotate(78.9)" xlink:href="#linear-gradient"/>
    <linearGradient id="linear-gradient-17" x1="1686.52" y1="46.58" x2="2238.62" y2="46.58" gradientTransform="translate(-384.1 385.79)" xlink:href="#linear-gradient"/>
    <linearGradient id="linear-gradient-18" x1="1869.94" y1="-203.84" x2="1941.81" y2="-203.84" gradientTransform="translate(-384.47 459.41) rotate(-2.15)" xlink:href="#linear-gradient"/>
    <linearGradient id="linear-gradient-19" x1="1854.78" y1="-301.63" x2="1885.09" y2="-301.63" gradientTransform="translate(-397.09 389.51)" xlink:href="#linear-gradient"/>
    <linearGradient id="linear-gradient-20" x1="2715.96" y1="275.43" x2="2783.88" y2="275.43" gradientTransform="matrix(0.99, -0.14, 0.14, 0.99, -1179.29, 914.61)" xlink:href="#linear-gradient"/>
    <linearGradient id="linear-gradient-21" x1="-2867.59" y1="10950.98" x2="-2799.67" y2="10950.98" gradientTransform="translate(11568.88 -4479.29) rotate(47.83)" xlink:href="#linear-gradient"/>
    <linearGradient id="linear-gradient-22" x1="2758.08" y1="-246.37" x2="2861.34" y2="-246.37" gradientTransform="translate(-384.47 459.41) rotate(-2.15)" xlink:href="#linear-gradient"/>
    <linearGradient id="linear-gradient-23" x1="2848.24" y1="-337.14" x2="2878.55" y2="-337.14" gradientTransform="translate(1582.42 -2729.84) rotate(78.9)" xlink:href="#linear-gradient"/>
    <linearGradient id="linear-gradient-24" x1="2356.18" y1="66.83" x2="2908.28" y2="66.83" gradientTransform="translate(-383.81 360.67)" xlink:href="#linear-gradient"/>
    <linearGradient id="linear-gradient-25" x1="2539.6" y1="-183.59" x2="2611.47" y2="-183.59" gradientTransform="translate(-384.47 459.41) rotate(-2.15)" xlink:href="#linear-gradient"/>
    <linearGradient id="linear-gradient-26" x1="2524.45" y1="-281.38" x2="2554.75" y2="-281.38" gradientTransform="translate(-396.8 364.39)" xlink:href="#linear-gradient"/>
    <linearGradient id="linear-gradient-27" x1="-379.76" y1="4749.35" x2="-311.83" y2="4749.35" gradientTransform="translate(3738.67 -3691.07) rotate(14.81)" xlink:href="#linear-gradient"/>
    <linearGradient id="linear-gradient-28" x1="4492.69" y1="-2923.46" x2="4560.61" y2="-2923.46" gradientTransform="translate(-1316.19 4755.57) rotate(-14.36)" xlink:href="#linear-gradient"/>
    <linearGradient id="linear-gradient-29" x1="3036.47" y1="125.62" x2="3139.72" y2="125.62" xlink:href="#linear-gradient"/>
    <linearGradient id="linear-gradient-30" x1="3126.63" y1="34.86" x2="3156.94" y2="34.86" gradientTransform="translate(2571.39 -3054.91) rotate(78.9)" xlink:href="#linear-gradient"/>
    <linearGradient id="linear-gradient-31" x1="2634.57" y1="438.82" x2="3186.67" y2="438.82" xlink:href="#linear-gradient"/>
    <linearGradient id="linear-gradient-32" x1="2817.99" y1="188.4" x2="2889.86" y2="188.4" xlink:href="#linear-gradient"/>
    <linearGradient id="linear-gradient-33" x1="2802.83" y1="90.61" x2="2833.14" y2="90.61" xlink:href="#linear-gradient"/>
    <linearGradient id="linear-gradient-34" x1="9612.32" y1="-1804.47" x2="9680.24" y2="-1804.47" gradientTransform="translate(-4128.36 7517.26) rotate(-32.54)" xlink:href="#linear-gradient"/>
    <linearGradient id="linear-gradient-35" x1="-1291.68" y1="6236.88" x2="-1223.76" y2="6236.88" gradientTransform="translate(7020.45 -3924.47) rotate(30.66)" xlink:href="#linear-gradient"/>
    <linearGradient id="linear-gradient-36" x1="401.9" y1="122.65" x2="505.15" y2="122.65" xlink:href="#linear-gradient"/>
    <linearGradient id="linear-gradient-37" x1="492.06" y1="31.89" x2="522.37" y2="31.89" gradientTransform="translate(440.9 -471.98) rotate(78.9)" xlink:href="#linear-gradient"/>
    <linearGradient id="linear-gradient-38" x1="81.26" y1="112.41" x2="153.13" y2="112.41" xlink:href="#linear-gradient"/>
    <linearGradient id="linear-gradient-39" x1="66.39" y1="15.15" x2="96.7" y2="15.15" xlink:href="#linear-gradient"/>
    <linearGradient id="linear-gradient-40" x1="0" y1="435.86" x2="552.1" y2="435.86" xlink:href="#linear-gradient"/>
    <linearGradient id="linear-gradient-41" x1="206.13" y1="835.19" x2="274.05" y2="835.19" xlink:href="#linear-gradient"/>
    <linearGradient id="linear-gradient-42" x1="281.05" y1="835.19" x2="348.98" y2="835.19" xlink:href="#linear-gradient"/>
    <linearGradient id="linear-gradient-43" x1="725.03" y1="15.94" x2="755.34" y2="15.94" xlink:href="#linear-gradient"/>
    <linearGradient id="linear-gradient-44" x1="1060.83" y1="121.86" x2="1164.08" y2="121.86" xlink:href="#linear-gradient"/>
    <linearGradient id="linear-gradient-45" x1="1150.98" y1="31.1" x2="1181.3" y2="31.1" gradientTransform="translate(972.25 -1119.23) rotate(78.9)" xlink:href="#linear-gradient"/>
    <linearGradient id="linear-gradient-46" x1="740.19" y1="111.62" x2="812.06" y2="111.62" xlink:href="#linear-gradient"/>
    <linearGradient id="linear-gradient-47" x1="658.93" y1="435.07" x2="1211.02" y2="435.07" xlink:href="#linear-gradient"/>
    <linearGradient id="linear-gradient-48" x1="865.05" y1="834.4" x2="932.98" y2="834.4" xlink:href="#linear-gradient"/>
    <linearGradient id="linear-gradient-49" x1="939.98" y1="834.4" x2="1007.9" y2="834.4" xlink:href="#linear-gradient"/>
    <linearGradient id="linear-gradient-50" x1="1372.88" y1="15.94" x2="1403.19" y2="15.94" xlink:href="#linear-gradient"/>
    <linearGradient id="linear-gradient-51" x1="1708.68" y1="121.86" x2="1811.93" y2="121.86" xlink:href="#linear-gradient"/>
    <linearGradient id="linear-gradient-52" x1="1798.83" y1="31.1" x2="1829.14" y2="31.1" gradientTransform="translate(1495.43 -1754.97) rotate(78.9)" xlink:href="#linear-gradient"/>
    <linearGradient id="linear-gradient-53" x1="1388.04" y1="111.62" x2="1459.91" y2="111.62" xlink:href="#linear-gradient"/>
    <linearGradient id="linear-gradient-54" x1="1306.77" y1="435.07" x2="1858.87" y2="435.07" xlink:href="#linear-gradient"/>
    <linearGradient id="linear-gradient-55" x1="1512.9" y1="834.4" x2="1580.82" y2="834.4" xlink:href="#linear-gradient"/>
    <linearGradient id="linear-gradient-56" x1="1587.83" y1="834.4" x2="1655.75" y2="834.4" xlink:href="#linear-gradient"/>
    <linearGradient id="linear-gradient-57" x1="2060.2" y1="15.94" x2="2090.51" y2="15.94" xlink:href="#linear-gradient"/>
    <linearGradient id="linear-gradient-58" x1="2396" y1="121.86" x2="2499.25" y2="121.86" xlink:href="#linear-gradient"/>
    <linearGradient id="linear-gradient-59" x1="2486.15" y1="31.1" x2="2516.47" y2="31.1" gradientTransform="translate(2050.48 -2429.44) rotate(78.9)" xlink:href="#linear-gradient"/>
    <linearGradient id="linear-gradient-60" x1="2075.36" y1="111.62" x2="2147.23" y2="111.62" xlink:href="#linear-gradient"/>
    <linearGradient id="linear-gradient-61" x1="1994.1" y1="435.07" x2="2546.19" y2="435.07" xlink:href="#linear-gradient"/>
    <linearGradient id="linear-gradient-62" x1="2200.22" y1="834.4" x2="2268.15" y2="834.4" xlink:href="#linear-gradient"/>
    <linearGradient id="linear-gradient-63" x1="2275.15" y1="834.4" x2="2343.07" y2="834.4" xlink:href="#linear-gradient"/>
    <linearGradient id="linear-gradient-64" x1="2756.92" y1="15.94" x2="2787.22" y2="15.94" xlink:href="#linear-gradient"/>
    <linearGradient id="linear-gradient-65" x1="3092.71" y1="121.86" x2="3195.96" y2="121.86" xlink:href="#linear-gradient"/>
    <linearGradient id="linear-gradient-66" x1="3182.86" y1="31.1" x2="3213.18" y2="31.1" gradientTransform="translate(2613.12 -3113.13) rotate(78.9)" xlink:href="#linear-gradient"/>
    <linearGradient id="linear-gradient-67" x1="2772.07" y1="111.62" x2="2843.94" y2="111.62" xlink:href="#linear-gradient"/>
    <linearGradient id="linear-gradient-68" x1="2690.81" y1="435.07" x2="3242.91" y2="435.07" xlink:href="#linear-gradient"/>
    <linearGradient id="linear-gradient-69" x1="2896.94" y1="834.4" x2="2964.86" y2="834.4" xlink:href="#linear-gradient"/>
    <linearGradient id="linear-gradient-70" x1="2971.86" y1="834.4" x2="3039.78" y2="834.4" xlink:href="#linear-gradient"/>
    <linearGradient id="linear-gradient-71" x1="3406.44" y1="15.94" x2="3436.75" y2="15.94" xlink:href="#linear-gradient"/>
    <linearGradient id="linear-gradient-72" x1="3742.24" y1="121.86" x2="3845.49" y2="121.86" xlink:href="#linear-gradient"/>
    <linearGradient id="linear-gradient-73" x1="3832.39" y1="31.1" x2="3862.71" y2="31.1" gradientTransform="translate(3137.65 -3750.52) rotate(78.9)" xlink:href="#linear-gradient"/>
    <linearGradient id="linear-gradient-74" x1="3421.6" y1="111.62" x2="3493.47" y2="111.62" xlink:href="#linear-gradient"/>
    <linearGradient id="linear-gradient-75" x1="3340.34" y1="435.07" x2="3892.43" y2="435.07" xlink:href="#linear-gradient"/>
    <linearGradient id="linear-gradient-76" x1="3546.46" y1="834.4" x2="3614.38" y2="834.4" xlink:href="#linear-gradient"/>
    <linearGradient id="linear-gradient-77" x1="3621.39" y1="834.4" x2="3689.31" y2="834.4" xlink:href="#linear-gradient"/>
    <linearGradient id="linear-gradient-78" x1="4035.47" y1="15.94" x2="4065.78" y2="15.94" xlink:href="#linear-gradient"/>
    <linearGradient id="linear-gradient-79" x1="4371.26" y1="121.86" x2="4474.51" y2="121.86" xlink:href="#linear-gradient"/>
    <linearGradient id="linear-gradient-80" x1="4461.42" y1="31.1" x2="4491.73" y2="31.1" gradientTransform="translate(3645.63 -4367.79) rotate(78.9)" xlink:href="#linear-gradient"/>
    <linearGradient id="linear-gradient-81" x1="4050.62" y1="111.62" x2="4122.49" y2="111.62" xlink:href="#linear-gradient"/>
    <linearGradient id="linear-gradient-82" x1="3969.36" y1="435.07" x2="4521.46" y2="435.07" xlink:href="#linear-gradient"/>
    <linearGradient id="linear-gradient-83" x1="4175.49" y1="834.4" x2="4243.41" y2="834.4" xlink:href="#linear-gradient"/>
    <linearGradient id="linear-gradient-84" x1="4250.42" y1="834.4" x2="4318.34" y2="834.4" xlink:href="#linear-gradient"/>
    <linearGradient id="linear-gradient-92" x1="1111.58" y1="122.65" x2="1214.84" y2="122.65" xlink:href="#linear-gradient"/>
    <linearGradient id="linear-gradient-93" x1="1201.74" y1="31.89" x2="1232.05" y2="31.89" gradientTransform="translate(1014.02 -1168.4) rotate(78.9)" xlink:href="#linear-gradient"/>
    <linearGradient id="linear-gradient-94" x1="790.94" y1="112.41" x2="862.82" y2="112.41" xlink:href="#linear-gradient"/>
    <linearGradient id="linear-gradient-95" x1="776.08" y1="15.15" x2="806.38" y2="15.15" xlink:href="#linear-gradient"/>
    <linearGradient id="linear-gradient-96" x1="709.68" y1="435.86" x2="1261.78" y2="435.86" xlink:href="#linear-gradient"/>
    <linearGradient id="linear-gradient-97" x1="915.81" y1="835.19" x2="983.73" y2="835.19" xlink:href="#linear-gradient"/>
    <linearGradient id="linear-gradient-98" x1="990.74" y1="835.19" x2="1058.66" y2="835.19" xlink:href="#linear-gradient"/>
    <linearGradient id="linear-gradient-99" x1="1793" y1="151.75" x2="1896.26" y2="151.75" xlink:href="#linear-gradient"/>
    <linearGradient id="linear-gradient-100" x1="1883.16" y1="60.98" x2="1913.47" y2="60.98" gradientTransform="translate(1592.85 -1813.59) rotate(78.9)" xlink:href="#linear-gradient"/>
    <linearGradient id="linear-gradient-101" x1="1472.36" y1="141.51" x2="1544.24" y2="141.51" xlink:href="#linear-gradient"/>
    <linearGradient id="linear-gradient-102" x1="1396.11" y1="471.14" x2="1948.21" y2="471.14" xlink:href="#linear-gradient"/>
    <linearGradient id="linear-gradient-103" x1="429.27" y1="1844.16" x2="497.19" y2="1844.16" gradientTransform="translate(1274.71 -1082.56) rotate(5.39)" xlink:href="#linear-gradient"/>
    <linearGradient id="linear-gradient-104" x1="1723.71" y1="796.02" x2="1791.63" y2="796.02" xlink:href="#linear-gradient"/>
    <linearGradient id="linear-gradient-105" x1="1459.81" y1="54.32" x2="1490.12" y2="54.32" xlink:href="#linear-gradient"/>
    <linearGradient id="linear-gradient-106" x1="2193.19" y1="482.42" x2="2223.49" y2="482.42" xlink:href="#linear-gradient"/>
    <linearGradient id="linear-gradient-107" x1="2528.69" y1="114.29" x2="2631.95" y2="114.29" xlink:href="#linear-gradient"/>
    <linearGradient id="linear-gradient-108" x1="2618.85" y1="23.52" x2="2649.16" y2="23.52" gradientTransform="translate(2150.21 -2565.78) rotate(78.9)" xlink:href="#linear-gradient"/>
    <linearGradient id="linear-gradient-109" x1="2208.05" y1="104.05" x2="2279.93" y2="104.05" xlink:href="#linear-gradient"/>
    <linearGradient id="linear-gradient-110" x1="2126.79" y1="427.49" x2="2678.89" y2="427.49" xlink:href="#linear-gradient"/>
    <linearGradient id="linear-gradient-111" x1="2332.92" y1="826.82" x2="2400.84" y2="826.82" xlink:href="#linear-gradient"/>
    <linearGradient id="linear-gradient-112" x1="2407.85" y1="826.82" x2="2475.77" y2="826.82" xlink:href="#linear-gradient"/>
    <linearGradient id="linear-gradient-113" x1="3210.11" y1="151.75" x2="3313.37" y2="151.75" xlink:href="#linear-gradient"/>
    <linearGradient id="linear-gradient-114" x1="3300.27" y1="60.98" x2="3330.58" y2="60.98" gradientTransform="translate(2737.25 -3204.21) rotate(78.9)" xlink:href="#linear-gradient"/>
    <linearGradient id="linear-gradient-115" x1="2889.47" y1="141.51" x2="2961.34" y2="141.51" xlink:href="#linear-gradient"/>
    <linearGradient id="linear-gradient-116" x1="2813.22" y1="471.14" x2="3365.32" y2="471.14" xlink:href="#linear-gradient"/>
    <linearGradient id="linear-gradient-117" x1="1840.13" y1="1711.16" x2="1908.05" y2="1711.16" gradientTransform="translate(1274.71 -1082.56) rotate(5.39)" xlink:href="#linear-gradient"/>
    <linearGradient id="linear-gradient-118" x1="3140.81" y1="796.02" x2="3208.74" y2="796.02" xlink:href="#linear-gradient"/>
    <linearGradient id="linear-gradient-119" x1="2876.92" y1="54.32" x2="2907.23" y2="54.32" xlink:href="#linear-gradient"/>
    <linearGradient id="linear-gradient-120" x1="20735.14" y1="122.65" x2="20838.39" y2="122.65" gradientTransform="matrix(-1, 0, 0, 1, 20885.34, 0)" xlink:href="#linear-gradient"/>
    <linearGradient id="linear-gradient-121" x1="20825.3" y1="31.89" x2="20855.61" y2="31.89" gradientTransform="matrix(-0.98, -0.19, -0.19, 0.98, 20501.95, 4011.1)" xlink:href="#linear-gradient"/>
    <linearGradient id="linear-gradient-122" x1="20414.5" y1="112.41" x2="20486.37" y2="112.41" gradientTransform="matrix(-1, 0, 0, 1, 20885.34, 0)" xlink:href="#linear-gradient"/>
    <linearGradient id="linear-gradient-123" x1="20399.63" y1="15.15" x2="20429.94" y2="15.15" gradientTransform="matrix(-1, 0, 0, 1, 20885.34, 0)" xlink:href="#linear-gradient"/>
    <linearGradient id="linear-gradient-124" x1="20333.24" y1="435.86" x2="20885.34" y2="435.86" gradientTransform="matrix(-1, 0, 0, 1, 20885.34, 0)" xlink:href="#linear-gradient"/>
    <linearGradient id="linear-gradient-125" x1="20539.37" y1="835.19" x2="20607.29" y2="835.19" gradientTransform="matrix(-1, 0, 0, 1, 20885.34, 0)" xlink:href="#linear-gradient"/>
    <linearGradient id="linear-gradient-126" x1="20614.29" y1="835.19" x2="20682.22" y2="835.19" gradientTransform="matrix(-1, 0, 0, 1, 20885.34, 0)" xlink:href="#linear-gradient"/>
    <linearGradient id="linear-gradient-127" x1="1091.09" y1="149.42" x2="1194.35" y2="149.42" xlink:href="#linear-gradient"/>
    <linearGradient id="linear-gradient-128" x1="1181.25" y1="58.65" x2="1211.56" y2="58.65" gradientTransform="translate(1023.73 -1126.68) rotate(78.9)" xlink:href="#linear-gradient"/>
    <linearGradient id="linear-gradient-129" x1="770.45" y1="139.18" x2="842.33" y2="139.18" xlink:href="#linear-gradient"/>
    <linearGradient id="linear-gradient-130" x1="755.59" y1="41.92" x2="785.89" y2="41.92" xlink:href="#linear-gradient"/>
    <linearGradient id="linear-gradient-131" x1="689.19" y1="462.62" x2="1241.29" y2="462.62" xlink:href="#linear-gradient"/>
    <linearGradient id="linear-gradient-132" x1="831.51" y1="808.43" x2="899.43" y2="808.43" xlink:href="#linear-gradient"/>
    <linearGradient id="linear-gradient-133" x1="1016.53" y1="808.43" x2="1084.45" y2="808.43" xlink:href="#linear-gradient"/>
    <linearGradient id="linear-gradient-134" x1="19356.75" y1="122.65" x2="19460.01" y2="122.65" gradientTransform="matrix(-1, 0, 0, 1, 20885.34, 0)" xlink:href="#linear-gradient"/>
    <linearGradient id="linear-gradient-135" x1="19446.91" y1="31.89" x2="19477.22" y2="31.89" gradientTransform="matrix(-0.98, -0.19, -0.19, 0.98, 20527.71, 3745.85)" xlink:href="#linear-gradient"/>
    <linearGradient id="linear-gradient-136" x1="19036.11" y1="112.41" x2="19107.99" y2="112.41" gradientTransform="matrix(-1, 0, 0, 1, 20885.34, 0)" xlink:href="#linear-gradient"/>
    <linearGradient id="linear-gradient-137" x1="19021.25" y1="15.15" x2="19051.55" y2="15.15" gradientTransform="matrix(-1, 0, 0, 1, 20885.34, 0)" xlink:href="#linear-gradient"/>
    <linearGradient id="linear-gradient-138" x1="18954.85" y1="435.86" x2="19506.95" y2="435.86" gradientTransform="matrix(-1, 0, 0, 1, 20885.34, 0)" xlink:href="#linear-gradient"/>
    <linearGradient id="linear-gradient-139" x1="19160.98" y1="835.19" x2="19228.9" y2="835.19" gradientTransform="matrix(-1, 0, 0, 1, 20885.34, 0)" xlink:href="#linear-gradient"/>
    <linearGradient id="linear-gradient-140" x1="19235.91" y1="835.19" x2="19303.83" y2="835.19" gradientTransform="matrix(-1, 0, 0, 1, 20885.34, 0)" xlink:href="#linear-gradient"/>
    <linearGradient id="linear-gradient-141" x1="20755.78" y1="149.42" x2="20859.03" y2="149.42" gradientTransform="matrix(-1, 0, 0, 1, 22973.55, 0)" xlink:href="#linear-gradient"/>
    <linearGradient id="linear-gradient-142" x1="20845.93" y1="58.65" x2="20876.25" y2="58.65" gradientTransform="matrix(-0.98, -0.19, -0.19, 0.98, 22594.93, 4015.57)" xlink:href="#linear-gradient"/>
    <linearGradient id="linear-gradient-143" x1="20435.14" y1="139.18" x2="20507.01" y2="139.18" gradientTransform="matrix(-1, 0, 0, 1, 22973.55, 0)" xlink:href="#linear-gradient"/>
    <linearGradient id="linear-gradient-144" x1="20420.27" y1="41.92" x2="20450.58" y2="41.92" gradientTransform="matrix(-1, 0, 0, 1, 22973.55, 0)" xlink:href="#linear-gradient"/>
    <linearGradient id="linear-gradient-145" x1="20353.88" y1="462.62" x2="20905.97" y2="462.62" gradientTransform="matrix(-1, 0, 0, 1, 22973.55, 0)" xlink:href="#linear-gradient"/>
    <linearGradient id="linear-gradient-146" x1="20496.2" y1="808.43" x2="20564.12" y2="808.43" gradientTransform="matrix(-1, 0, 0, 1, 22973.55, 0)" xlink:href="#linear-gradient"/>
    <linearGradient id="linear-gradient-147" x1="20681.22" y1="808.43" x2="20749.14" y2="808.43" gradientTransform="matrix(-1, 0, 0, 1, 22973.55, 0)" xlink:href="#linear-gradient"/>
    <symbol id="alien1" data-name="alien1" viewBox="0 0 3186.67 939.82">
      <path class="cls-1" d="M560.8,469.91"/>
      <g>
        <g>
          <path class="cls-2" d="M424.91,212.56c15.3,8.39,92.73-166.47,78.5-174.18.94,10.27-100.1,172.89-101.52,161.51Z"/>
          <circle class="cls-3" cx="507.21" cy="34.86" r="15.15" transform="translate(375.4 525.88) rotate(-78.9)"/>
        </g>
        <circle class="cls-4" cx="276.05" cy="438.82" r="276.05"/>
        <g>
          <path class="cls-5" d="M230.27,281.36c-16.63,5.29-59-181.21-43.52-186-2.9,9.89,65,188.92,68.54,178Z"/>
          <circle class="cls-6" cx="183.42" cy="90.61" r="15.15"/>
        </g>
        <circle class="cls-7" cx="396.38" cy="511.76" r="98.24"/>
        <g>
          <circle class="cls-1" cx="395.71" cy="504.38" r="63.21" transform="translate(-241.44 575.24) rotate(-58.23)"/>
          <circle class="cls-8" cx="431.31" cy="526.42" r="22.92" transform="translate(-243.33 615.94) rotate(-58.23)"/>
        </g>
        <g>
          <path class="cls-9" d="M424.88,256C490.42,282.2,555.47,406.31,497,442.25,462.46,380.48,436.52,318.46,424.88,256Z"/>
          <polyline class="cls-10" points="465.79 331.68 444.88 331.24 453.26 352.33"/>
          <polyline class="cls-10" points="482.58 372.74 461.71 373.98 471.76 394.33"/>
        </g>
        <path class="cls-11" d="M337.68,692.93c29.93,30.35,55.68,61.7,72.87,95.09,18.27,20.23,28.4,55.3,36.65,93.79,11-3.84,24.46-3,38.83-.36a26.73,26.73,0,0,0-13.88,8.85l20,.69c-8.09,5.59-19.08,9.16-31.63,11.64l15.79,9.45c-18.42.84-34.92-.54-47.83-6.1-6.55-2-11.11-5.6-14.06-10.56-8.58-40.46-17.61-78.21-29.39-99.64-19.83-35.36-39.88-67.66-60.32-94.55Z"/>
        <path class="cls-12" d="M198.57,693c-13.59,40.4-30,77.52-52,107.92-9.82,25.43-36.55,50.28-67.19,75,8.41,8.13,13.73,20.47,17.83,34.49A26.73,26.73,0,0,0,83,902l8.39,18.13c-8.63-4.7-16.78-12.9-24.65-23L65.46,915.5c-9.06-16.06-15.26-31.41-16.12-45.44-1.19-6.74,0-12.45,3.08-17.31,32.25-25.9,61.87-51,75.68-71.16,22.62-33.65,42.41-66.11,57.19-96.48Z"/>
      </g>
      <g>
        <path class="cls-1" d="M1193.28,137.19"/>
        <g>
          <path class="cls-13" d="M1057.39,234.37c15.3,8.39,92.73-166.47,78.5-174.18.94,10.27-100.1,172.89-101.52,161.51Z"/>
          <circle class="cls-14" cx="1139.69" cy="56.67" r="15.15" transform="translate(864.76 1164.15) rotate(-78.9)"/>
        </g>
        <circle class="cls-15" cx="908.52" cy="460.63" r="276.05"/>
        <g>
          <path class="cls-16" d="M862.74,303.17c-16.63,5.29-59-181.21-43.52-186-2.9,9.89,65,188.92,68.54,178Z"/>
          <circle class="cls-17" cx="815.89" cy="112.42" r="15.15"/>
        </g>
        <circle class="cls-7" cx="1028.86" cy="533.57" r="98.24"/>
        <g>
          <circle class="cls-1" cx="1028.19" cy="526.19" r="63.21" transform="translate(39.48 1123.27) rotate(-58.23)"/>
          <circle class="cls-8" cx="1063.78" cy="548.23" r="22.92" transform="translate(37.6 1163.97) rotate(-58.23)"/>
        </g>
        <g>
          <path class="cls-9" d="M1057.35,277.84c65.55,26.17,130.59,150.28,72.12,186.23C1094.93,402.29,1069,340.27,1057.35,277.84Z"/>
          <polyline class="cls-10" points="1098.26 353.49 1077.36 353.05 1085.74 374.14"/>
          <polyline class="cls-10" points="1115.06 394.55 1094.19 395.79 1104.24 416.14"/>
        </g>
        <path class="cls-18" d="M987.51,706.26c35.38,23.78,66.85,49.37,90.35,78.66,21.93,16.19,38.85,48.53,54.6,84.61,10.06-6,23.37-7.84,38-8.09a26.73,26.73,0,0,0-11.84,11.44l19.7-3.3c-6.82,7.09-16.87,12.77-28.68,17.71L1167,893.4c-17.88,4.5-34.33,6.43-48.09,3.55-6.82-.63-12-3.27-15.88-7.55-16.47-37.94-32.84-73.14-48.65-91.78-26.48-30.7-52.56-58.36-77.95-80.64Z"/>
        <path class="cls-19" d="M815.89,718.73C789.7,752.36,762,782,731.11,803.37c-17.68,20.75-51.13,35.36-88.21,48.56,5.24,10.46,6.19,23.86,5.42,38.45a26.73,26.73,0,0,0-10.59-12.61l1.92,19.89c-6.59-7.29-11.57-17.72-15.66-29.85l-7.31,16.89c-3.24-18.15-4-34.69-.19-48.22,1.11-6.76,4.1-11.75,8.64-15.32,39-13.78,75.25-27.66,95-42.13C752.56,754.78,782,730.69,806,706.92Z"/>
      </g>
      <path class="cls-1" d="M1864.8,469.91"/>
      <g>
        <g>
          <path class="cls-20" d="M1718.75,200.7c15.61,7.81,86.43-169.83,71.92-177,1.33,10.22-93.55,176.52-95.39,165.2Z"/>
          <circle class="cls-21" cx="1794.33" cy="20.03" r="15.15" transform="translate(1495.5 1789.41) rotate(-81.05)"/>
        </g>
        <circle class="cls-22" cx="1578.47" cy="432.38" r="276.05" transform="translate(-15.1 59.48) rotate(-2.15)"/>
        <g>
          <path class="cls-23" d="M1526.82,276.74c-16.42,5.91-65.72-178.87-50.46-184.27-2.53,10,72,186.35,75.16,175.33Z"/>
          <circle class="cls-24" cx="1472.85" cy="87.88" r="15.15" transform="translate(-2.26 55.28) rotate(-2.15)"/>
        </g>
        <circle class="cls-7" cx="1701.46" cy="500.76" r="98.24" transform="translate(-17.58 64.14) rotate(-2.15)"/>
        <g>
          <circle class="cls-1" cx="1700.51" cy="493.4" r="63.21" transform="translate(431.08 1727.79) rotate(-60.38)"/>
          <circle class="cls-8" cx="1736.91" cy="514.1" r="22.92" transform="translate(431.49 1769.9) rotate(-60.38)"/>
        </g>
        <g>
          <path class="cls-9" d="M1720.34,244.13c66.48,23.7,136.13,145.28,79.05,183.39C1762.56,367.09,1734.32,306.09,1720.34,244.13Z"/>
          <polyline class="cls-10" points="1764.06 318.2 1743.15 318.54 1752.32 339.3"/>
          <polyline class="cls-10" points="1782.38 358.6 1761.57 360.62 1772.38 380.58"/>
        </g>
        <path class="cls-25" d="M1574.63,678c14.58,40.06,24.94,79.28,26.67,116.79,8.19,26,2.8,62.1-5.73,100.53,11.64,1.11,23.5,7.43,35.45,15.84a26.73,26.73,0,0,0-16.31,2.27l17.87,8.94c-9.68,1.71-21.16.38-33.6-2.59l10.43,15.17c-17.09-6.9-31.52-15-40.95-25.46-5.14-4.53-7.77-9.72-8.39-15.45,9-40.36,16.55-78.44,14.76-102.83-3.31-40.41-8.09-78.12-15.48-111.08Z"/>
        <path class="cls-26" d="M1653.6,693.69c-24.91,34.59-51.51,65.22-81.55,87.76-16.89,21.4-49.77,37.25-86.33,51.83,5.63,10.25,7.08,23.61,6.86,38.22a26.73,26.73,0,0,0-11.05-12.2l2.67,19.8c-6.86-7-12.22-17.28-16.77-29.24L1460.75,867c-3.91-18-5.31-34.52-2-48.18.85-6.79,3.66-11.9,8.06-15.63,38.46-15.23,74.16-30.46,93.31-45.66,31.54-25.47,60-50.64,83.12-75.3Z"/>
      </g>
      <path class="cls-1" d="M2534.75,469.91"/>
      <g>
        <g>
          <path class="cls-27" d="M2388.7,195.82c15.61,7.81,86.43-169.83,71.92-177,1.33,10.22-93.55,176.52-95.39,165.2Z"/>
          <circle class="cls-28" cx="2464.28" cy="15.16" r="15.15" transform="translate(2066.08 2447.1) rotate(-81.05)"/>
        </g>
        <circle class="cls-29" cx="2248.42" cy="427.5" r="276.05" transform="translate(-14.45 84.6) rotate(-2.15)"/>
        <g>
          <path class="cls-30" d="M2196.77,271.87C2180.34,277.78,2131,93,2146.31,87.6c-2.53,10,72,186.35,75.16,175.33Z"/>
          <circle class="cls-31" cx="2142.8" cy="83.01" r="15.15" transform="translate(-1.61 80.39) rotate(-2.15)"/>
        </g>
        <circle class="cls-7" cx="2371.41" cy="495.88" r="98.24" transform="translate(-16.92 89.25) rotate(-2.15)"/>
        <g>
          <circle class="cls-1" cx="2370.46" cy="488.53" r="63.21" transform="translate(774.12 2307.72) rotate(-60.38)"/>
          <circle class="cls-8" cx="2406.86" cy="509.22" r="22.92" transform="translate(774.54 2349.82) rotate(-60.38)"/>
        </g>
        <g>
          <path class="cls-9" d="M2390.29,239.26c66.48,23.7,136.13,145.28,79.05,183.39C2432.51,362.22,2404.27,301.21,2390.29,239.26Z"/>
          <polyline class="cls-10" points="2434.01 313.32 2413.1 313.66 2422.27 334.43"/>
          <polyline class="cls-10" points="2452.33 353.73 2431.52 355.75 2442.33 375.7"/>
        </g>
        <path class="cls-32" d="M2233.48,689.41c-2,42.58-7.65,82.75-20.56,118-2.5,27.15-21.43,58.35-44.15,90.5,10.31,5.53,18.8,15.94,26.57,28.31a26.73,26.73,0,0,0-15.92-4.21l13,15.15c-9.59-2.17-19.66-7.83-30-15.38l3.75,18c-13.1-13-23.26-26-27.92-39.31-3-6.16-3.41-12-1.76-17.49,23.95-33.73,45.59-65.95,53.36-89.13,12.57-38.54,22.74-75.17,28.67-108.43Z"/>
        <path class="cls-33" d="M2322,672.84c19,38.17,33.65,76,39.56,113.08,11,24.92,9.73,61.4,5.55,100.54,11.7-.2,24.19,4.76,37,11.77a26.73,26.73,0,0,0-15.95,4.08l18.76,6.88c-9.43,2.78-21,2.75-33.68,1.19l12.06,13.91c-17.76-4.95-33-11.41-43.54-20.72-5.61-3.92-8.81-8.79-10.06-14.42,4.48-41.12,7.67-79.8,3.16-103.83-7.81-39.78-16.78-76.73-27.81-108.65Z"/>
      </g>
      <g>
        <path class="cls-1" d="M3175,65.16"/>
        <g>
          <path class="cls-34" d="M3059.48,212.56c15.3,8.39,92.73-166.47,78.5-174.18.94,10.27-100.1,172.89-101.52,161.51Z"/>
          <circle class="cls-35" cx="3141.78" cy="34.86" r="15.15" transform="translate(2502.98 3111.21) rotate(-78.9)"/>
        </g>
        <circle class="cls-36" cx="2910.62" cy="438.82" r="276.05"/>
        <g>
          <path class="cls-37" d="M2864.84,281.36c-16.63,5.29-59-181.21-43.52-186-2.9,9.89,65,188.92,68.54,178Z"/>
          <circle class="cls-38" cx="2817.99" cy="90.61" r="15.15"/>
        </g>
        <circle class="cls-7" cx="3030.95" cy="511.76" r="98.24"/>
        <g>
          <circle class="cls-1" cx="3030.28" cy="504.38" r="63.21" transform="translate(1005.98 2815.06) rotate(-58.23)"/>
          <circle class="cls-8" cx="3065.88" cy="526.42" r="22.92" transform="translate(1004.1 2855.75) rotate(-58.23)"/>
        </g>
        <g>
          <path class="cls-9" d="M3059.45,256C3125,282.2,3190,406.31,3131.57,442.25,3097,380.48,3071.09,318.46,3059.45,256Z"/>
          <polyline class="cls-10" points="3100.36 331.68 3079.45 331.24 3087.84 352.33"/>
          <polyline class="cls-10" points="3117.15 372.74 3096.28 373.98 3106.33 394.33"/>
        </g>
        <path class="cls-39" d="M2972.25,692.93c29.93,30.35,55.68,61.7,72.87,95.09,18.27,20.23,28.4,55.3,36.65,93.79,11-3.84,24.46-3,38.83-.36a26.73,26.73,0,0,0-13.88,8.85l20,.69c-8.09,5.59-19.08,9.16-31.63,11.64l15.79,9.45c-18.42.84-34.92-.54-47.83-6.1-6.55-2-11.11-5.6-14.06-10.56-8.58-40.46-17.61-78.21-29.39-99.64-19.83-35.36-39.88-67.66-60.32-94.55Z"/>
        <path class="cls-40" d="M2833.14,693c-13.59,40.4-30,77.52-52,107.92-9.82,25.43-36.55,50.28-67.19,75,8.41,8.13,13.73,20.47,17.83,34.49a26.73,26.73,0,0,0-14.16-8.39l8.39,18.13c-8.63-4.7-16.78-12.9-24.65-23L2700,915.5c-9.06-16.06-15.26-31.41-16.12-45.44-1.19-6.74,0-12.45,3.08-17.31,32.25-25.9,61.87-51,75.68-71.16,22.62-33.65,42.41-66.11,57.19-96.48Z"/>
      </g>
    </symbol>
    <symbol id="alien2" data-name="alien2" viewBox="0 0 4521.46 964.83">
      <g>
        <g>
          <path class="cls-41" d="M424.91,209.6c15.3,8.39,92.73-166.47,78.5-174.18.94,10.27-100.1,172.89-101.52,161.51Z"/>
          <circle class="cls-42" cx="507.21" cy="31.89" r="15.15" transform="translate(378.31 523.49) rotate(-78.9)"/>
        </g>
        <path class="cls-43" d="M128.11,205.38c-16.63,5.29-59-181.21-43.52-186-2.9,9.89,65,188.92,68.54,178Z"/>
        <circle class="cls-44" cx="81.55" cy="15.15" r="15.15"/>
        <circle class="cls-45" cx="276.05" cy="435.86" r="276.05"/>
        <circle class="cls-7" cx="164.63" cy="508.8" r="98.24"/>
        <circle class="cls-7" cx="396.38" cy="508.8" r="98.24"/>
        <g>
          <circle class="cls-1" cx="395.96" cy="501.17" r="63.21" transform="translate(-208.38 294.45) rotate(-32.81)"/>
          <circle class="cls-8" cx="418.64" cy="536.36" r="22.92" transform="translate(-223.82 312.35) rotate(-32.81)"/>
        </g>
        <g>
          <circle class="cls-1" cx="164.63" cy="508.8" r="63.21" transform="matrix(0.84, -0.54, 0.54, 0.84, -249.4, 170.34)"/>
          <circle class="cls-8" cx="187.31" cy="543.99" r="22.92" transform="translate(-264.85 188.24) rotate(-32.81)"/>
        </g>
        <g>
          <path class="cls-9" d="M155.71,272.78c69.95,9.44,151.83,7.91,240.67,0A874.21,874.21,0,0,1,271,435.86C222.45,384.35,182.2,330.5,155.71,272.78Z"/>
          <polyline class="cls-10" points="213.81 336.2 193.42 340.86 206.68 359.28"/>
          <polyline class="cls-10" points="240.09 371.94 220.15 378.22 234.85 395.51"/>
          <polyline class="cls-10" points="355.2 303.01 365.12 321.41 379.33 303.72"/>
          <polyline class="cls-10" points="353.98 337.69 333.24 335.09 339.39 356.94"/>
        </g>
        <path class="cls-46" d="M229.79,705.54c-7.43,25.49-9,71.85-10.29,119.36.05,32.57,7.74,65.56,19.55,98.78-11.38,2.71-22.25,10.61-32.93,20.58a26.73,26.73,0,0,1,16.46,0l-16.46,11.32c9.83.36,21-2.54,32.93-7.2l-8.23,16.46c16-9.19,29.15-19.24,37-30.87,4.46-5.19,6.36-10.7,6.17-16.46-14.53-38.73-27.22-75.41-28.81-99.81-2.3-40.48-2.77-78.49,0-112.15Z"/>
        <path class="cls-47" d="M325.31,705.54c8.91,41.68,13.75,82,10.29,119.36,4.52,26.88-5.8,61.89-19.55,98.78,11.38,2.71,22.25,10.61,32.93,20.58a26.73,26.73,0,0,0-16.46,0L349,955.57c-9.83.36-21-2.54-32.93-7.2l8.23,16.46c-16-9.19-29.15-19.24-37-30.87-4.46-5.19-6.36-10.7-6.17-16.46,14.53-38.73,27.22-75.41,28.81-99.81,2.3-40.48,2.77-78.49,0-112.15Z"/>
      </g>
      <g>
        <circle class="cls-48" cx="740.19" cy="15.94" r="15.15"/>
        <g>
          <path class="cls-49" d="M1083.84,208.81c15.3,8.39,92.73-166.47,78.5-174.18.94,10.27-100.1,172.89-101.52,161.51Z"/>
          <circle class="cls-50" cx="1166.14" cy="31.1" r="15.15" transform="translate(911.21 1169.46) rotate(-78.9)"/>
        </g>
        <path class="cls-51" d="M787,204.58c-16.63,5.29-59-181.21-43.52-186-2.9,9.89,65,188.92,68.54,178Z"/>
        <circle class="cls-52" cx="934.98" cy="435.07" r="276.05"/>
        <circle class="cls-7" cx="1055.31" cy="508.01" r="98.24"/>
        <g>
          <circle class="cls-1" cx="1054.66" cy="500.59" r="63.21" transform="translate(46.48 1089.21) rotate(-55.67)"/>
          <circle class="cls-8" cx="1089.24" cy="524.21" r="22.92" transform="translate(42.06 1128.06) rotate(-55.67)"/>
        </g>
        <g>
          <path class="cls-9" d="M814.64,272c69.95,9.44,151.83,7.91,240.67,0a874.21,874.21,0,0,1-125.4,163.08C881.38,383.56,841.13,329.71,814.64,272Z"/>
          <polyline class="cls-10" points="872.73 335.41 852.35 340.07 865.61 358.49"/>
          <polyline class="cls-10" points="899.01 371.15 879.07 377.43 893.77 394.72"/>
          <polyline class="cls-10" points="1014.12 302.22 1024.04 320.62 1038.26 302.93"/>
          <polyline class="cls-10" points="1012.91 336.9 992.16 334.3 998.32 356.14"/>
        </g>
        <path class="cls-53" d="M888.72,704.75c-7.43,25.49-9,71.85-10.29,119.36.05,32.57,7.74,65.56,19.55,98.78-11.38,2.71-22.25,10.61-32.93,20.58a26.73,26.73,0,0,1,16.46,0l-16.46,11.32c9.83.36,21-2.54,32.93-7.2L889.75,964c16-9.19,29.15-19.24,37-30.87,4.46-5.19,6.36-10.7,6.17-16.46-14.53-38.73-27.22-75.41-28.81-99.81-2.3-40.48-2.77-78.49,0-112.15Z"/>
        <path class="cls-54" d="M984.24,704.75c8.91,41.68,13.75,82,10.29,119.36C999,851,988.72,886,975,922.89c11.38,2.71,22.25,10.61,32.93,20.58a26.73,26.73,0,0,0-16.46,0l16.46,11.32c-9.83.36-21-2.54-32.93-7.2L983.21,964c-16-9.19-29.15-19.24-37-30.87-4.46-5.19-6.36-10.7-6.17-16.46,14.53-38.73,27.22-75.41,28.81-99.81,2.3-40.48,2.77-78.49,0-112.15Z"/>
        <circle class="cls-7" cx="820.24" cy="508.01" r="98.24"/>
        <g>
          <circle class="cls-1" cx="820.24" cy="508.01" r="63.21" transform="translate(-61.86 898.86) rotate(-55.67)"/>
          <circle class="cls-8" cx="854.82" cy="531.62" r="22.92" transform="translate(-66.28 937.71) rotate(-55.67)"/>
        </g>
      </g>
      <g>
        <circle class="cls-55" cx="1388.04" cy="15.94" r="15.15"/>
        <g>
          <path class="cls-56" d="M1731.69,208.81c15.3,8.39,92.73-166.47,78.5-174.18.94,10.27-100.1,172.89-101.52,161.51Z"/>
          <circle class="cls-57" cx="1813.99" cy="31.1" r="15.15" transform="translate(1434.39 1805.2) rotate(-78.9)"/>
        </g>
        <path class="cls-58" d="M1434.88,204.58c-16.63,5.29-59-181.21-43.52-186-2.9,9.89,65,188.92,68.54,178Z"/>
        <circle class="cls-59" cx="1582.82" cy="435.07" r="276.05"/>
        <circle class="cls-7" cx="1703.16" cy="508.01" r="98.24"/>
        <g>
          <circle class="cls-1" cx="1702.4" cy="500.81" r="63.21" transform="translate(737.58 1990.15) rotate(-73.46)"/>
          <circle class="cls-8" cx="1742.54" cy="512.73" r="22.92" transform="translate(754.86 2037.15) rotate(-73.46)"/>
        </g>
        <g>
          <path class="cls-9" d="M1462.49,272c69.95,9.44,151.83,7.91,240.67,0a874.21,874.21,0,0,1-125.4,163.08C1529.23,383.56,1489,329.71,1462.49,272Z"/>
          <polyline class="cls-10" points="1520.58 335.41 1500.2 340.07 1513.46 358.49"/>
          <polyline class="cls-10" points="1546.86 371.15 1526.92 377.43 1541.62 394.72"/>
          <polyline class="cls-10" points="1661.97 302.22 1671.89 320.62 1686.11 302.93"/>
          <polyline class="cls-10" points="1660.76 336.9 1640.01 334.3 1646.17 356.14"/>
        </g>
        <path class="cls-60" d="M1536.57,704.75c-7.43,25.49-9,71.85-10.29,119.36.05,32.57,7.74,65.56,19.55,98.78-11.38,2.71-22.25,10.61-32.93,20.58a26.73,26.73,0,0,1,16.46,0l-16.46,11.32c9.83.36,21-2.54,32.93-7.2L1537.6,964c16-9.19,29.15-19.24,37-30.87,4.46-5.19,6.36-10.7,6.17-16.46-14.53-38.73-27.22-75.41-28.81-99.81-2.3-40.48-2.77-78.49,0-112.15Z"/>
        <path class="cls-61" d="M1632.09,704.75c8.91,41.68,13.75,82,10.29,119.36,4.52,26.88-5.8,61.89-19.55,98.78,11.38,2.71,22.25,10.61,32.93,20.58a26.73,26.73,0,0,0-16.46,0l16.46,11.32c-9.83.36-21-2.54-32.93-7.2l8.23,16.46c-16-9.19-29.15-19.24-37-30.87-4.46-5.19-6.36-10.7-6.17-16.46,14.53-38.73,27.22-75.41,28.81-99.81,2.3-40.48,2.77-78.49,0-112.15Z"/>
        <circle class="cls-7" cx="1470.19" cy="509.9" r="98.24"/>
        <g>
          <circle class="cls-1" cx="1470.19" cy="508.7" r="63.21" transform="translate(563.93 1773.19) rotate(-73.46)"/>
          <circle class="cls-8" cx="1510.33" cy="520.62" r="22.92" transform="translate(581.21 1820.19) rotate(-73.46)"/>
        </g>
      </g>
      <g>
        <circle class="cls-62" cx="2075.36" cy="15.94" r="15.15"/>
        <g>
          <path class="cls-63" d="M2419,208.81c15.3,8.39,92.73-166.47,78.5-174.18.94,10.27-100.1,172.89-101.52,161.51Z"/>
          <circle class="cls-64" cx="2501.31" cy="31.1" r="15.15" transform="translate(1989.44 2479.67) rotate(-78.9)"/>
        </g>
        <path class="cls-65" d="M2122.21,204.58c-16.63,5.29-59-181.21-43.52-186-2.9,9.89,65,188.92,68.54,178Z"/>
        <circle class="cls-66" cx="2270.15" cy="435.07" r="276.05"/>
        <circle class="cls-7" cx="2390.48" cy="508.01" r="98.24"/>
        <g>
          <circle class="cls-1" cx="2389.7" cy="501.09" r="63.21" transform="translate(-28.07 160.29) rotate(-3.82)"/>
          <circle class="cls-8" cx="2431.47" cy="498.3" r="22.92" transform="translate(-27.79 163.07) rotate(-3.82)"/>
        </g>
        <g>
          <path class="cls-9" d="M2149.81,272c69.95,9.44,151.83,7.91,240.67,0a874.21,874.21,0,0,1-125.4,163.08C2216.55,383.56,2176.3,329.71,2149.81,272Z"/>
          <polyline class="cls-10" points="2207.9 335.41 2187.52 340.07 2200.78 358.49"/>
          <polyline class="cls-10" points="2234.18 371.15 2214.24 377.43 2228.94 394.72"/>
          <polyline class="cls-10" points="2349.29 302.22 2359.21 320.62 2373.43 302.93"/>
          <polyline class="cls-10" points="2348.08 336.9 2327.34 334.3 2333.49 356.14"/>
        </g>
        <path class="cls-67" d="M2223.89,704.75c-7.43,25.49-9,71.85-10.29,119.36.05,32.57,7.74,65.56,19.55,98.78-11.38,2.71-22.25,10.61-32.93,20.58a26.73,26.73,0,0,1,16.46,0l-16.46,11.32c9.83.36,21-2.54,32.93-7.2L2224.92,964c16-9.19,29.15-19.24,37-30.87,4.46-5.19,6.36-10.7,6.17-16.46-14.53-38.73-27.22-75.41-28.81-99.81-2.3-40.48-2.77-78.49,0-112.15Z"/>
        <path class="cls-68" d="M2319.41,704.75c8.91,41.68,13.75,82,10.29,119.36,4.52,26.88-5.8,61.89-19.55,98.78,11.38,2.71,22.25,10.61,32.93,20.58a26.73,26.73,0,0,0-16.46,0l16.46,11.32c-9.83.36-21-2.54-32.93-7.2l8.23,16.46c-16-9.19-29.15-19.24-37-30.87-4.46-5.19-6.36-10.7-6.17-16.46,14.53-38.73,27.22-75.41,28.81-99.81,2.3-40.48,2.77-78.49,0-112.15Z"/>
        <circle class="cls-7" cx="2155.16" cy="511.42" r="98.24"/>
        <g>
          <circle class="cls-1" cx="2154.38" cy="504.5" r="63.21" transform="translate(-28.82 144.62) rotate(-3.82)"/>
          <circle class="cls-8" cx="2196.15" cy="501.72" r="22.92" transform="translate(-28.54 147.4) rotate(-3.82)"/>
        </g>
      </g>
      <g>
        <circle class="cls-69" cx="2772.07" cy="15.94" r="15.15"/>
        <g>
          <path class="cls-70" d="M3115.72,208.81c15.3,8.39,92.73-166.47,78.5-174.18.94,10.27-100.1,172.89-101.52,161.51Z"/>
          <circle class="cls-71" cx="3198.02" cy="31.1" r="15.15" transform="translate(2552.08 3163.36) rotate(-78.9)"/>
        </g>
        <path class="cls-72" d="M2818.92,204.58c-16.63,5.29-59-181.21-43.52-186-2.9,9.89,65,188.92,68.54,178Z"/>
        <circle class="cls-73" cx="2966.86" cy="435.07" r="276.05"/>
        <circle class="cls-7" cx="3087.19" cy="508.01" r="98.24"/>
        <g>
          <circle class="cls-1" cx="3086.46" cy="501.33" r="63.21" transform="translate(36.35 1190.09) rotate(-21.95)"/>
          <circle class="cls-8" cx="3125.29" cy="485.68" r="22.92" transform="translate(45.01 1203.48) rotate(-21.95)"/>
        </g>
        <g>
          <path class="cls-9" d="M2846.52,272c69.95,9.44,151.83,7.91,240.67,0a874.21,874.21,0,0,1-125.4,163.08C2913.26,383.56,2873,329.71,2846.52,272Z"/>
          <polyline class="cls-10" points="2904.61 335.41 2884.23 340.07 2897.49 358.49"/>
          <polyline class="cls-10" points="2930.9 371.15 2910.95 377.43 2925.65 394.72"/>
          <polyline class="cls-10" points="3046.01 302.22 3055.93 320.62 3070.14 302.93"/>
          <polyline class="cls-10" points="3044.79 336.9 3024.05 334.3 3030.2 356.14"/>
        </g>
        <path class="cls-74" d="M2920.6,704.75c-7.43,25.49-9,71.85-10.29,119.36.05,32.57,7.74,65.56,19.55,98.78-11.38,2.71-22.25,10.61-32.93,20.58a26.73,26.73,0,0,1,16.46,0l-16.46,11.32c9.83.36,21-2.54,32.93-7.2L2921.63,964c16-9.19,29.15-19.24,37-30.87,4.46-5.19,6.36-10.7,6.17-16.46-14.53-38.73-27.22-75.41-28.81-99.81-2.3-40.48-2.77-78.49,0-112.15Z"/>
        <path class="cls-75" d="M3016.12,704.75c8.91,41.68,13.75,82,10.29,119.36,4.52,26.88-5.8,61.89-19.55,98.78,11.38,2.71,22.25,10.61,32.93,20.58a26.73,26.73,0,0,0-16.46,0l16.46,11.32c-9.83.36-21-2.54-32.93-7.2l8.23,16.46c-16-9.19-29.15-19.24-37-30.87-4.46-5.19-6.36-10.7-6.17-16.46,14.53-38.73,27.22-75.41,28.81-99.81,2.3-40.48,2.77-78.49,0-112.15Z"/>
        <circle class="cls-7" cx="2857.56" cy="518.43" r="98.24"/>
        <g>
          <circle class="cls-1" cx="2856.83" cy="511.76" r="63.21" transform="translate(15.8 1105.01) rotate(-21.95)"/>
          <circle class="cls-8" cx="2895.66" cy="496.11" r="22.92" transform="translate(24.47 1118.39) rotate(-21.95)"/>
        </g>
      </g>
      <g>
        <circle class="cls-76" cx="3421.6" cy="15.94" r="15.15"/>
        <g>
          <path class="cls-77" d="M3765.25,208.81c15.3,8.39,92.73-166.47,78.5-174.18.94,10.27-100.1,172.89-101.52,161.51Z"/>
          <circle class="cls-78" cx="3847.55" cy="31.1" r="15.15" transform="translate(3076.61 3800.75) rotate(-78.9)"/>
        </g>
        <path class="cls-79" d="M3468.45,204.58c-16.63,5.29-59-181.21-43.52-186-2.9,9.89,65,188.92,68.54,178Z"/>
        <circle class="cls-80" cx="3616.38" cy="435.07" r="276.05"/>
        <circle class="cls-7" cx="3736.72" cy="508.01" r="98.24"/>
        <g>
          <circle class="cls-1" cx="3736.31" cy="501.71" r="63.21" transform="translate(1362.69 3430.47) rotate(-58.62)"/>
          <circle class="cls-8" cx="3758.11" cy="465.96" r="22.92" transform="translate(1403.66 3431.95) rotate(-58.62)"/>
        </g>
        <g>
          <path class="cls-9" d="M3496,272c69.95,9.44,151.83,7.91,240.67,0a874.21,874.21,0,0,1-125.4,163.08C3562.79,383.56,3522.54,329.71,3496,272Z"/>
          <polyline class="cls-10" points="3554.14 335.41 3533.76 340.07 3547.02 358.49"/>
          <polyline class="cls-10" points="3580.42 371.15 3560.48 377.43 3575.18 394.72"/>
          <polyline class="cls-10" points="3695.53 302.22 3705.45 320.62 3719.67 302.93"/>
          <polyline class="cls-10" points="3694.32 336.9 3673.57 334.3 3679.73 356.14"/>
        </g>
        <path class="cls-81" d="M3570.13,704.75c-7.43,25.49-9,71.85-10.29,119.36.05,32.57,7.74,65.56,19.55,98.78-11.38,2.71-22.25,10.61-32.93,20.58a26.73,26.73,0,0,1,16.46,0l-16.46,11.32c9.83.36,21-2.54,32.93-7.2L3571.16,964c16-9.19,29.15-19.24,37-30.87,4.46-5.19,6.36-10.7,6.17-16.46-14.53-38.73-27.22-75.41-28.81-99.81-2.3-40.48-2.77-78.49,0-112.15Z"/>
        <path class="cls-82" d="M3665.65,704.75c8.91,41.68,13.75,82,10.29,119.36,4.52,26.88-5.8,61.89-19.55,98.78,11.38,2.71,22.25,10.61,32.93,20.58a26.73,26.73,0,0,0-16.46,0l16.46,11.32c-9.83.36-21-2.54-32.93-7.2l8.23,16.46c-16-9.19-29.15-19.24-37-30.87-4.46-5.19-6.36-10.7-6.17-16.46,14.53-38.73,27.22-75.41,28.81-99.81,2.3-40.48,2.77-78.49,0-112.15Z"/>
        <circle class="cls-7" cx="3504.68" cy="512.5" r="98.24"/>
        <g>
          <circle class="cls-1" cx="3504.27" cy="506.2" r="63.21" transform="translate(1247.63 3234.51) rotate(-58.62)"/>
          <circle class="cls-8" cx="3526.07" cy="470.45" r="22.92" transform="translate(1288.6 3235.99) rotate(-58.62)"/>
        </g>
      </g>
      <g>
        <circle class="cls-83" cx="4050.62" cy="15.94" r="15.15"/>
        <g>
          <path class="cls-84" d="M4394.27,208.81c15.3,8.39,92.73-166.47,78.5-174.18.94,10.27-100.1,172.89-101.52,161.51Z"/>
          <circle class="cls-85" cx="4476.57" cy="31.1" r="15.15" transform="translate(3584.59 4418.02) rotate(-78.9)"/>
        </g>
        <path class="cls-86" d="M4097.47,204.58c-16.63,5.29-59-181.21-43.52-186-2.9,9.89,65,188.92,68.54,178Z"/>
        <circle class="cls-87" cx="4245.41" cy="435.07" r="276.05"/>
        <circle class="cls-7" cx="4365.74" cy="508.01" r="98.24"/>
        <g>
          <circle class="cls-1" cx="4365.71" cy="501.82" r="63.21" transform="translate(3681.88 4842.75) rotate(-87.6)"/>
          <circle class="cls-8" cx="4367.46" cy="459.99" r="22.92" transform="translate(3725.35 4804.42) rotate(-87.6)"/>
        </g>
        <g>
          <path class="cls-9" d="M4125.07,272c69.95,9.44,151.83,7.91,240.67,0a874.21,874.21,0,0,1-125.4,163.08C4191.81,383.56,4151.57,329.71,4125.07,272Z"/>
          <polyline class="cls-10" points="4183.17 335.41 4162.78 340.07 4176.04 358.49"/>
          <polyline class="cls-10" points="4209.45 371.15 4189.51 377.43 4204.21 394.72"/>
          <polyline class="cls-10" points="4324.56 302.22 4334.48 320.62 4348.69 302.93"/>
          <polyline class="cls-10" points="4323.34 336.9 4302.6 334.3 4308.76 356.14"/>
        </g>
        <path class="cls-88" d="M4199.15,704.75c-7.43,25.49-9,71.85-10.29,119.36.05,32.57,7.74,65.56,19.55,98.78-11.38,2.71-22.25,10.61-32.93,20.58a26.73,26.73,0,0,1,16.46,0l-16.46,11.32c9.83.36,21-2.54,32.93-7.2L4200.18,964c16-9.19,29.15-19.24,37-30.87,4.46-5.19,6.36-10.7,6.17-16.46-14.53-38.73-27.22-75.41-28.81-99.81-2.3-40.48-2.77-78.49,0-112.15Z"/>
        <path class="cls-89" d="M4294.67,704.75c8.91,41.68,13.75,82,10.29,119.36,4.52,26.88-5.8,61.89-19.55,98.78,11.38,2.71,22.25,10.61,32.93,20.58a26.73,26.73,0,0,0-16.46,0l16.46,11.32c-9.83.36-21-2.54-32.93-7.2l8.23,16.46c-16-9.19-29.15-19.24-37-30.87-4.46-5.19-6.36-10.7-6.17-16.46,14.53-38.73,27.22-75.41,28.81-99.81,2.3-40.48,2.77-78.49,0-112.15Z"/>
        <circle class="cls-7" cx="4125.07" cy="511.57" r="98.24"/>
        <g>
          <circle class="cls-1" cx="4125.04" cy="505.39" r="63.21" transform="translate(3447.71 4605.7) rotate(-87.6)"/>
          <circle class="cls-8" cx="4126.79" cy="463.56" r="22.92" transform="translate(3491.18 4567.37) rotate(-87.6)"/>
        </g>
      </g>
    </symbol>
    <symbol id="alien3" data-name="alien3" viewBox="0 0 3365.32 964.83">
      <g>
        <g>
          <path class="cls-41" d="M424.91,209.6c15.3,8.39,92.73-166.47,78.5-174.18.94,10.27-100.1,172.89-101.52,161.51Z"/>
          <circle class="cls-42" cx="507.21" cy="31.89" r="15.15" transform="translate(378.31 523.49) rotate(-78.9)"/>
        </g>
        <path class="cls-43" d="M128.11,205.38c-16.63,5.29-59-181.21-43.52-186-2.9,9.89,65,188.92,68.54,178Z"/>
        <circle class="cls-44" cx="81.55" cy="15.15" r="15.15"/>
        <circle class="cls-45" cx="276.05" cy="435.86" r="276.05"/>
        <circle class="cls-7" cx="164.63" cy="508.8" r="98.24"/>
        <circle class="cls-1" cx="150.15" cy="494.32" r="48.73" transform="translate(-243.87 160.18) rotate(-32.81)"/>
        <circle class="cls-8" cx="164.39" cy="513.44" r="22.92" transform="translate(-251.96 170.95) rotate(-32.81)"/>
        <g>
          <path class="cls-9" d="M155.71,272.78c69.95,9.44,151.83,7.91,240.67,0A874.21,874.21,0,0,1,271,435.86C222.45,384.35,182.2,330.5,155.71,272.78Z"/>
          <polyline class="cls-10" points="213.81 336.2 193.42 340.86 206.68 359.28"/>
          <polyline class="cls-10" points="240.09 371.94 220.15 378.22 234.85 395.51"/>
          <polyline class="cls-10" points="355.2 303.01 365.12 321.41 379.33 303.72"/>
          <polyline class="cls-10" points="353.98 337.69 333.24 335.09 339.39 356.94"/>
        </g>
        <path class="cls-46" d="M229.79,705.54c-7.43,25.49-9,71.85-10.29,119.36.05,32.57,7.74,65.56,19.55,98.78-11.38,2.71-22.25,10.61-32.93,20.58a26.73,26.73,0,0,1,16.46,0l-16.46,11.32c9.83.36,21-2.54,32.93-7.2l-8.23,16.46c16-9.19,29.15-19.24,37-30.87,4.46-5.19,6.36-10.7,6.17-16.46-14.53-38.73-27.22-75.41-28.81-99.81-2.3-40.48-2.77-78.49,0-112.15Z"/>
        <path class="cls-47" d="M325.31,705.54c8.91,41.68,13.75,82,10.29,119.36,4.52,26.88-5.8,61.89-19.55,98.78,11.38,2.71,22.25,10.61,32.93,20.58a26.73,26.73,0,0,0-16.46,0L349,955.57c-9.83.36-21-2.54-32.93-7.2l8.23,16.46c-16-9.19-29.15-19.24-37-30.87-4.46-5.19-6.36-10.7-6.17-16.46,14.53-38.73,27.22-75.41,28.81-99.81,2.3-40.48,2.77-78.49,0-112.15Z"/>
        <line class="cls-90" x1="66.03" y1="375.34" x2="245.4" y2="515.82"/>
        <circle class="cls-7" cx="379.15" cy="511.92" r="98.24"/>
        <circle class="cls-1" cx="393.63" cy="497.44" r="48.73" transform="translate(-237.74 558.79) rotate(-57.19)"/>
        <circle class="cls-8" cx="379.38" cy="516.57" r="22.92" transform="matrix(0.54, -0.84, 0.84, 0.54, -260.34, 555.58)"/>
        <line class="cls-90" x1="477.75" y1="378.47" x2="298.38" y2="518.95"/>
      </g>
      <g>
        <g>
          <path class="cls-91" d="M1134.6,209.6c15.3,8.39,92.73-166.47,78.5-174.18.94,10.27-100.1,172.89-101.52,161.51Z"/>
          <circle class="cls-92" cx="1216.9" cy="31.89" r="15.15" transform="translate(951.42 1219.91) rotate(-78.9)"/>
        </g>
        <path class="cls-93" d="M837.79,205.38c-16.63,5.29-59-181.21-43.52-186-2.9,9.89,65,188.92,68.54,178Z"/>
        <circle class="cls-94" cx="791.23" cy="15.15" r="15.15"/>
        <circle class="cls-95" cx="985.73" cy="435.86" r="276.05"/>
        <circle class="cls-7" cx="874.31" cy="508.8" r="98.24"/>
        <circle class="cls-1" cx="859.83" cy="494.32" r="48.73" transform="translate(-130.68 544.68) rotate(-32.81)"/>
        <circle class="cls-8" cx="897" cy="508.8" r="22.92" transform="translate(-132.6 567.12) rotate(-32.81)"/>
        <path class="cls-96" d="M939.48,705.54c-7.43,25.49-9,71.85-10.29,119.36.05,32.57,7.74,65.56,19.55,98.78-11.38,2.71-22.25,10.61-32.93,20.58a26.73,26.73,0,0,1,16.46,0l-16.46,11.32c9.83.36,21-2.54,32.93-7.2l-8.23,16.46c16-9.19,29.15-19.24,37-30.87,4.46-5.19,6.36-10.7,6.17-16.46-14.53-38.73-27.22-75.41-28.81-99.81-2.3-40.48-2.77-78.49,0-112.15Z"/>
        <path class="cls-97" d="M1035,705.54c8.91,41.68,13.75,82,10.29,119.36,4.52,26.88-5.8,61.89-19.55,98.78,11.38,2.71,22.25,10.61,32.93,20.58a26.73,26.73,0,0,0-16.46,0l16.46,11.32c-9.83.36-21-2.54-32.93-7.2l8.23,16.46c-16-9.19-29.15-19.24-37-30.87-4.46-5.19-6.36-10.7-6.17-16.46,14.53-38.73,27.22-75.41,28.81-99.81,2.3-40.48,2.77-78.49,0-112.15Z"/>
        <line class="cls-90" x1="775.71" y1="375.34" x2="955.08" y2="515.82"/>
        <circle class="cls-7" cx="1088.83" cy="511.92" r="98.24"/>
        <circle class="cls-1" cx="1103.32" cy="497.44" r="48.73" transform="translate(87.45 1155.29) rotate(-57.19)"/>
        <circle class="cls-8" cx="1066.15" cy="509.18" r="22.92" transform="matrix(0.54, -0.84, 0.84, 0.54, 60.55, 1129.43)"/>
        <line class="cls-90" x1="1187.44" y1="378.47" x2="1008.06" y2="518.95"/>
        <line class="cls-90" x1="801.24" y1="558.46" x2="961.68" y2="514.25"/>
      </g>
      <g>
        <g>
          <path class="cls-98" d="M1816,238.69c15.3,8.39,92.73-166.47,78.5-174.18C1895.46,74.77,1794.42,237.4,1793,226Z"/>
          <circle class="cls-99" cx="1898.32" cy="60.98" r="15.15" transform="translate(1473.16 1912.08) rotate(-78.9)"/>
        </g>
        <path class="cls-100" d="M1519.21,234.47c-16.63,5.29-59-181.21-43.52-186-2.9,9.89,65,188.92,68.54,178Z"/>
        <circle class="cls-101" cx="1672.16" cy="471.14" r="276.05"/>
        <path class="cls-102" d="M1564.73,666.9c-9.78,24.68-15.72,70.69-21.45,117.86-3,32.43,1.56,66,10.19,100.18-11.58,1.63-23.15,8.47-34.71,17.4a26.73,26.73,0,0,1,16.39,1.55l-17.45,9.72c9.75,1.28,21.15-.56,33.46-4.08l-9.74,15.62c16.77-7.65,30.82-16.42,39.77-27.26,4.93-4.75,7.33-10.06,7.69-15.81-10.83-39.92-20-77.63-19.32-102.07,1.51-40.51,4.61-78.4,10.53-111.66Z"/>
        <path class="cls-103" d="M1768,666.37c8.91,41.68,13.75,82,10.29,119.36,4.52,26.88-5.8,61.89-19.55,98.78,11.38,2.71,22.25,10.61,32.93,20.58a26.73,26.73,0,0,0-16.46,0l16.46,11.32c-9.83.36-21-2.54-32.93-7.2l8.23,16.46c-16-9.19-29.15-19.24-37-30.87-4.46-5.19-6.36-10.7-6.17-16.46,14.53-38.73,27.22-75.41,28.81-99.81,2.3-40.48,2.77-78.49,0-112.15Z"/>
        <circle class="cls-104" cx="1474.97" cy="54.32" r="15.15"/>
        <g>
          <circle class="cls-7" cx="1777.78" cy="547.73" r="98.24" transform="translate(598.76 1986.62) rotate(-67.79)"/>
          <circle class="cls-1" cx="1796.66" cy="539.8" r="48.73" transform="translate(15.18 1127.76) rotate(-34.99)"/>
          <circle class="cls-8" cx="1759.08" cy="532.9" r="22.92" transform="translate(12.34 1104.97) rotate(-34.99)"/>
          <line class="cls-90" x1="1919.5" y1="461.44" x2="1700.34" y2="523.71"/>
          <line class="cls-90" x1="1708.9" y1="516.03" x2="1813.68" y2="627.05"/>
        </g>
        <g>
          <circle class="cls-7" cx="1565.97" cy="541.38" r="98.24" transform="translate(-88.46 632.02) rotate(-22.21)"/>
          <circle class="cls-1" cx="1547.09" cy="533.45" r="48.73" transform="translate(222.95 1495.06) rotate(-55.01)"/>
          <circle class="cls-8" cx="1584.67" cy="526.56" r="22.92" transform="translate(244.63 1522.91) rotate(-55.01)"/>
          <line class="cls-90" x1="1424.24" y1="455.09" x2="1643.4" y2="517.36"/>
          <line class="cls-90" x1="1634.84" y1="509.68" x2="1530.07" y2="620.7"/>
        </g>
      </g>
      <circle class="cls-105" cx="2208.34" cy="482.42" r="15.15"/>
      <g>
        <g>
          <path class="cls-106" d="M2551.71,201.23c15.3,8.39,92.73-166.47,78.5-174.18.94,10.27-100.1,172.89-101.52,161.51Z"/>
          <circle class="cls-107" cx="2634.01" cy="23.52" r="15.15" transform="translate(2104.04 2603.77) rotate(-78.9)"/>
        </g>
        <path class="cls-108" d="M2254.9,197c-16.63,5.29-59-181.21-43.52-186-2.9,9.89,65,188.92,68.54,178Z"/>
        <circle class="cls-109" cx="2402.84" cy="427.49" r="276.05"/>
        <circle class="cls-7" cx="2291.42" cy="500.43" r="98.24"/>
        <circle class="cls-1" cx="2276.94" cy="485.95" r="48.73" transform="translate(99.85 1311.11) rotate(-32.81)"/>
        <circle class="cls-8" cx="2314.11" cy="500.43" r="22.92" transform="translate(97.94 1333.56) rotate(-32.81)"/>
        <path class="cls-110" d="M2356.58,697.18c-7.43,25.49-9,71.85-10.29,119.36.05,32.57,7.74,65.56,19.55,98.78-11.38,2.71-22.25,10.61-32.93,20.58a26.73,26.73,0,0,1,16.46,0l-16.46,11.32c9.83.36,21-2.54,32.93-7.2l-8.23,16.46c16-9.19,29.15-19.24,37-30.87,4.46-5.19,6.36-10.7,6.17-16.46-14.53-38.73-27.22-75.41-28.81-99.81-2.3-40.48-2.77-78.49,0-112.15Z"/>
        <path class="cls-111" d="M2452.1,697.18c8.91,41.68,13.75,82,10.29,119.36,4.52,26.88-5.8,61.89-19.55,98.78,11.38,2.71,22.25,10.61,32.93,20.58a26.73,26.73,0,0,0-16.46,0l16.46,11.32c-9.83.36-21-2.54-32.93-7.2l8.23,16.46c-16-9.19-29.15-19.24-37-30.87-4.46-5.19-6.36-10.7-6.17-16.46,14.53-38.73,27.22-75.41,28.81-99.81,2.3-40.48,2.77-78.49,0-112.15Z"/>
        <line class="cls-90" x1="2192.82" y1="366.98" x2="2372.19" y2="507.45"/>
        <circle class="cls-7" cx="2505.94" cy="503.56" r="98.24"/>
        <circle class="cls-1" cx="2520.42" cy="489.08" r="48.73" transform="translate(743.82 2342.56) rotate(-57.19)"/>
        <circle class="cls-8" cx="2483.26" cy="500.81" r="22.92" transform="matrix(0.54, -0.84, 0.84, 0.54, 716.92, 2316.7)"/>
        <line class="cls-90" x1="2604.54" y1="370.1" x2="2425.17" y2="510.58"/>
        <line class="cls-90" x1="2218.35" y1="550.09" x2="2378.79" y2="505.89"/>
      </g>
      <g>
        <g>
          <path class="cls-112" d="M3233.13,238.69c15.3,8.39,92.73-166.47,78.5-174.18.94,10.27-100.1,172.89-101.52,161.51Z"/>
          <circle class="cls-113" cx="3315.43" cy="60.98" r="15.15" transform="translate(2617.57 3302.7) rotate(-78.9)"/>
        </g>
        <path class="cls-114" d="M2936.32,234.47c-16.63,5.29-59-181.21-43.52-186-2.9,9.89,65,188.92,68.54,178Z"/>
        <circle class="cls-115" cx="3089.27" cy="471.14" r="276.05"/>
        <path class="cls-116" d="M2981.84,666.9c-9.78,24.68-15.72,70.69-21.45,117.86-3,32.43,1.56,66,10.19,100.18-11.58,1.63-23.15,8.47-34.71,17.4a26.73,26.73,0,0,1,16.39,1.55l-17.45,9.72c9.75,1.28,21.15-.56,33.46-4.08l-9.74,15.62c16.77-7.65,30.82-16.42,39.77-27.26,4.93-4.75,7.33-10.06,7.69-15.81-10.83-39.92-20-77.63-19.32-102.07,1.51-40.51,4.61-78.4,10.53-111.66Z"/>
        <path class="cls-117" d="M3185.07,666.37c8.91,41.68,13.75,82,10.29,119.36,4.52,26.88-5.8,61.89-19.55,98.78,11.38,2.71,22.25,10.61,32.93,20.58a26.73,26.73,0,0,0-16.46,0l16.46,11.32c-9.83.36-21-2.54-32.93-7.2l8.23,16.46c-16-9.19-29.15-19.24-37-30.87-4.46-5.19-6.36-10.7-6.17-16.46,14.53-38.73,27.22-75.41,28.81-99.81,2.3-40.48,2.77-78.49,0-112.15Z"/>
        <circle class="cls-118" cx="2892.07" cy="54.32" r="15.15"/>
        <g>
          <circle class="cls-7" cx="3194.89" cy="547.73" r="98.24" transform="translate(1480.26 3298.62) rotate(-67.79)"/>
          <circle class="cls-1" cx="3213.77" cy="539.8" r="48.73" transform="translate(271.29 1940.33) rotate(-34.99)"/>
          <circle class="cls-8" cx="3176.19" cy="532.9" r="22.92" transform="translate(268.45 1917.54) rotate(-34.99)"/>
          <line class="cls-90" x1="3336.61" y1="461.44" x2="3117.45" y2="523.71"/>
          <line class="cls-90" x1="3126.01" y1="516.03" x2="3230.78" y2="627.05"/>
        </g>
        <g>
          <circle class="cls-7" cx="2983.08" cy="541.38" r="98.24" transform="translate(16.65 1167.62) rotate(-22.21)"/>
          <circle class="cls-1" cx="2964.2" cy="533.45" r="48.73" transform="translate(827.48 2656.06) rotate(-55.01)"/>
          <circle class="cls-8" cx="3001.78" cy="526.56" r="22.92" transform="translate(849.16 2683.91) rotate(-55.01)"/>
          <line class="cls-90" x1="2841.35" y1="455.09" x2="3060.51" y2="517.36"/>
          <line class="cls-90" x1="3051.95" y1="509.68" x2="2947.18" y2="620.7"/>
        </g>
      </g>
    </symbol>
    <symbol id="alien4" data-name="alien4" viewBox="0 0 2619.68 964.83">
      <path class="cls-1" d="M560.8,65.94"/>
      <g>
        <g>
          <path class="cls-119" d="M127.18,209.6C111.88,218,34.45,43.12,48.68,35.42c-.94,10.27,100.1,172.89,101.52,161.51Z"/>
          <circle class="cls-120" cx="44.88" cy="31.89" r="15.15" transform="translate(-5.3 9.23) rotate(-11.1)"/>
        </g>
        <path class="cls-121" d="M424,205.38c16.63,5.29,59-181.21,43.52-186,2.9,9.89-65,188.92-68.54,178Z"/>
        <circle class="cls-122" cx="470.55" cy="15.15" r="15.15"/>
        <circle class="cls-123" cx="276.05" cy="435.86" r="276.05"/>
        <circle class="cls-7" cx="387.47" cy="508.8" r="98.24"/>
        <circle class="cls-7" cx="155.71" cy="508.8" r="98.24"/>
        <g>
          <path class="cls-9" d="M142.49,373.54c71.72-61.29,153.66-62.15,240.57,6.83A874.21,874.21,0,0,0,262.34,213.79C212.37,263.9,170.61,316.58,142.49,373.54Z"/>
          <polyline class="cls-10" points="202.36 311.78 182.12 306.55 195.9 288.52"/>
          <polyline class="cls-10" points="229.65 276.8 209.89 269.96 225.07 253.09"/>
          <polyline class="cls-10" points="342.75 348.98 353.19 330.86 366.9 348.95"/>
          <polyline class="cls-10" points="342.52 314.27 321.71 316.28 328.49 294.62"/>
        </g>
        <path class="cls-124" d="M322.3,705.54c7.43,25.49,9,71.85,10.29,119.36-.05,32.57-7.74,65.56-19.55,98.78,11.38,2.71,22.25,10.61,32.93,20.58a26.73,26.73,0,0,0-16.46,0L346,955.57c-9.83.36-21-2.54-32.93-7.2l8.23,16.46c-16-9.19-29.15-19.24-37-30.87-4.46-5.19-6.36-10.7-6.17-16.46,14.53-38.73,27.22-75.41,28.81-99.81,2.3-40.48,2.77-78.49,0-112.15Z"/>
        <path class="cls-125" d="M226.79,705.54c-8.91,41.68-13.75,82-10.29,119.36-4.52,26.88,5.8,61.89,19.55,98.78-11.38,2.71-22.25,10.61-32.93,20.58a26.73,26.73,0,0,1,16.46,0l-16.46,11.32c9.83.36,21-2.54,32.93-7.2l-8.23,16.46c16-9.19,29.15-19.24,37-30.87,4.46-5.19,6.36-10.7,6.17-16.46-14.53-38.73-27.22-75.41-28.81-99.81-2.3-40.48-2.77-78.49,0-112.15Z"/>
        <path class="cls-10" d="M328.78,540.81c-2.2,8.43,94.59,33.7,96.79,25.27,14.83-56.81,5.19-108.53-21.54-115.5S343.61,484,328.78,540.81Z"/>
        <circle class="cls-8" cx="377.94" cy="537.3" r="31.45" transform="translate(-202.41 229.52) rotate(-26.94)"/>
        <path class="cls-10" d="M113.3,566.72c2.71,8.29,97.8-22.76,95.1-31-18.22-55.82-54.29-94.11-80.55-85.54S95.08,510.91,113.3,566.72Z"/>
        <circle class="cls-8" cx="152.77" cy="537.2" r="31.45" transform="translate(-388.01 397.61) rotate(-59.65)"/>
      </g>
      <path class="cls-1" d="M1230.56,145.84"/>
      <g>
        <g>
          <path class="cls-126" d="M1114.11,236.36c15.3,8.39,92.73-166.47,78.5-174.18.94,10.27-100.1,172.89-101.52,161.51Z"/>
          <circle class="cls-127" cx="1196.41" cy="58.65" r="15.15" transform="translate(908.61 1221.41) rotate(-78.9)"/>
        </g>
        <path class="cls-128" d="M817.3,232.14c-16.63,5.29-59-181.21-43.52-186-2.9,9.89,65,188.92,68.54,178Z"/>
        <circle class="cls-129" cx="770.74" cy="41.92" r="15.15"/>
        <circle class="cls-130" cx="965.24" cy="462.62" r="276.05"/>
        <circle class="cls-7" cx="853.82" cy="535.56" r="98.24"/>
        <circle class="cls-7" cx="1085.58" cy="535.56" r="98.24"/>
        <g>
          <path class="cls-9" d="M1098.8,400.3c-71.72-61.29-153.66-62.15-240.57,6.83A874.21,874.21,0,0,1,978.95,240.55C1028.92,290.66,1070.68,343.35,1098.8,400.3Z"/>
          <polyline class="cls-10" points="1038.93 338.55 1059.17 333.31 1045.39 315.28"/>
          <polyline class="cls-10" points="1011.64 303.57 1031.4 296.72 1016.22 279.86"/>
          <polyline class="cls-10" points="898.54 375.74 888.1 357.63 874.39 375.71"/>
          <polyline class="cls-10" points="898.77 341.03 919.58 343.05 912.8 321.38"/>
        </g>
        <path class="cls-131" d="M855.18,678.78c-7.43,25.49-9,71.85-10.29,119.36.05,32.57,7.74,65.56,19.55,98.78-11.38,2.71-22.25,10.61-32.93,20.58a26.73,26.73,0,0,1,16.46,0l-16.46,11.32c9.83.36,21-2.54,32.93-7.2l-8.23,16.46c16-9.19,29.15-19.24,37-30.87,4.46-5.19,6.36-10.7,6.17-16.46-14.53-38.73-27.22-75.41-28.81-99.81-2.3-40.48-2.77-78.49,0-112.15Z"/>
        <path class="cls-132" d="M1060.79,678.78c8.91,41.68,13.75,82,10.29,119.36,4.52,26.88-5.8,61.89-19.55,98.78,11.38,2.71,22.25,10.61,32.93,20.58a26.73,26.73,0,0,0-16.46,0l16.46,11.32c-9.83.36-21-2.54-32.93-7.2l8.23,16.46c-16-9.19-29.15-19.24-37-30.87-4.46-5.19-6.36-10.7-6.17-16.46,14.53-38.73,27.22-75.41,28.81-99.81,2.3-40.48,2.77-78.49,0-112.15Z"/>
        <path class="cls-10" d="M912.51,567.58c2.2,8.43-94.59,33.7-96.79,25.27-14.83-56.81-5.19-108.53,21.54-115.5S897.68,510.76,912.51,567.58Z"/>
        <circle class="cls-8" cx="863.35" cy="564.07" r="31.45" transform="translate(-30.63 1078.2) rotate(-63.06)"/>
        <path class="cls-10" d="M1128,593.49c-2.71,8.29-97.8-22.76-95.1-31,18.22-55.82,54.29-94.11,80.55-85.54S1146.21,537.67,1128,593.49Z"/>
        <circle class="cls-8" cx="1088.52" cy="563.97" r="31.45" transform="translate(-135.79 627.28) rotate(-30.35)"/>
      </g>
      <g>
        <g>
          <path class="cls-133" d="M1505.57,209.6c-15.3,8.39-92.73-166.47-78.5-174.18-.94,10.27,100.1,172.89,101.52,161.51Z"/>
          <circle class="cls-134" cx="1423.27" cy="31.89" r="15.15" transform="translate(20.47 274.49) rotate(-11.1)"/>
        </g>
        <path class="cls-135" d="M1802.37,205.38c16.63,5.29,59-181.21,43.52-186,2.9,9.89-65,188.92-68.54,178Z"/>
        <circle class="cls-136" cx="1848.94" cy="15.15" r="15.15"/>
        <circle class="cls-137" cx="1654.43" cy="435.86" r="276.05"/>
        <circle class="cls-7" cx="1765.85" cy="508.8" r="98.24"/>
        <circle class="cls-7" cx="1534.1" cy="508.8" r="98.24"/>
        <g>
          <path class="cls-9" d="M1520.88,373.54c71.72-61.29,153.66-62.15,240.57,6.83a874.21,874.21,0,0,0-120.72-166.57C1590.76,263.9,1549,316.58,1520.88,373.54Z"/>
          <polyline class="cls-10" points="1580.75 311.78 1560.5 306.55 1574.28 288.52"/>
          <polyline class="cls-10" points="1608.03 276.8 1588.28 269.96 1603.46 253.09"/>
          <polyline class="cls-10" points="1721.14 348.98 1731.58 330.86 1745.29 348.95"/>
          <polyline class="cls-10" points="1720.91 314.27 1700.1 316.28 1706.87 294.62"/>
        </g>
        <path class="cls-138" d="M1700.69,705.54c7.43,25.49,9,71.85,10.29,119.36-.05,32.57-7.74,65.56-19.55,98.78,11.38,2.71,22.25,10.61,32.93,20.58a26.73,26.73,0,0,0-16.46,0l16.46,11.32c-9.83.36-21-2.54-32.93-7.2l8.23,16.46c-16-9.19-29.15-19.24-37-30.87-4.46-5.19-6.36-10.7-6.17-16.46,14.53-38.73,27.22-75.41,28.81-99.81,2.3-40.48,2.77-78.49,0-112.15Z"/>
        <path class="cls-139" d="M1605.17,705.54c-8.91,41.68-13.75,82-10.29,119.36-4.52,26.88,5.8,61.89,19.55,98.78-11.38,2.71-22.25,10.61-32.93,20.58a26.73,26.73,0,0,1,16.46,0l-16.46,11.32c9.83.36,21-2.54,32.93-7.2l-8.23,16.46c16-9.19,29.15-19.24,37-30.87,4.46-5.19,6.36-10.7,6.17-16.46-14.53-38.73-27.22-75.41-28.81-99.81-2.3-40.48-2.77-78.49,0-112.15Z"/>
        <path class="cls-10" d="M1707.17,540.81c-2.2,8.43,94.59,33.7,96.79,25.27,14.83-56.81,5.19-108.53-21.54-115.5S1722,484,1707.17,540.81Z"/>
        <circle class="cls-8" cx="1756.33" cy="537.3" r="31.45" transform="translate(-52.85 853.96) rotate(-26.94)"/>
        <path class="cls-10" d="M1491.69,566.72c2.71,8.29,97.8-22.76,95.1-31-18.22-55.82-54.29-94.11-80.55-85.54S1473.46,510.91,1491.69,566.72Z"/>
        <circle class="cls-8" cx="1531.16" cy="537.2" r="31.45" transform="translate(293.93 1587.1) rotate(-59.65)"/>
      </g>
      <path class="cls-1" d="M2058.87,179"/>
      <g>
        <g>
          <path class="cls-140" d="M2194.76,236.36c-15.3,8.39-92.73-166.47-78.5-174.18-.94,10.27,100.1,172.89,101.52,161.51Z"/>
          <circle class="cls-141" cx="2112.46" cy="58.65" r="15.15" transform="translate(28.2 407.62) rotate(-11.1)"/>
        </g>
        <path class="cls-142" d="M2491.57,232.14c16.63,5.29,59-181.21,43.52-186,2.9,9.89-65,188.92-68.54,178Z"/>
        <circle class="cls-143" cx="2538.13" cy="41.92" r="15.15"/>
        <circle class="cls-144" cx="2343.63" cy="462.62" r="276.05"/>
        <circle class="cls-7" cx="2455.05" cy="535.56" r="98.24"/>
        <circle class="cls-7" cx="2223.29" cy="535.56" r="98.24"/>
        <g>
          <path class="cls-9" d="M2210.07,400.3c71.72-61.29,153.66-62.15,240.57,6.83a874.21,874.21,0,0,0-120.72-166.57C2279.95,290.66,2238.19,343.35,2210.07,400.3Z"/>
          <polyline class="cls-10" points="2269.94 338.55 2249.7 333.31 2263.47 315.28"/>
          <polyline class="cls-10" points="2297.22 303.57 2277.47 296.72 2292.65 279.86"/>
          <polyline class="cls-10" points="2410.33 375.74 2420.77 357.63 2434.48 375.71"/>
          <polyline class="cls-10" points="2410.1 341.03 2389.29 343.05 2396.07 321.38"/>
        </g>
        <path class="cls-145" d="M2453.69,678.78c7.43,25.49,9,71.85,10.29,119.36-.05,32.57-7.74,65.56-19.55,98.78,11.38,2.71,22.25,10.61,32.93,20.58a26.73,26.73,0,0,0-16.46,0l16.46,11.32c-9.83.36-21-2.54-32.93-7.2l8.23,16.46c-16-9.19-29.15-19.24-37-30.87-4.46-5.19-6.36-10.7-6.17-16.46,14.53-38.73,27.22-75.41,28.81-99.81,2.3-40.48,2.77-78.49,0-112.15Z"/>
        <path class="cls-146" d="M2248.08,678.78c-8.91,41.68-13.75,82-10.29,119.36-4.52,26.88,5.8,61.89,19.55,98.78-11.38,2.71-22.25,10.61-32.93,20.58a26.73,26.73,0,0,1,16.46,0l-16.46,11.32c9.83.36,21-2.54,32.93-7.2l-8.23,16.46c16-9.19,29.15-19.24,37-30.87,4.46-5.19,6.36-10.7,6.17-16.46-14.53-38.73-27.22-75.41-28.81-99.81-2.3-40.48-2.77-78.49,0-112.15Z"/>
        <path class="cls-10" d="M2396.36,567.58c-2.2,8.43,94.59,33.7,96.79,25.27,14.83-56.81,5.19-108.53-21.54-115.5S2411.19,510.76,2396.36,567.58Z"/>
        <circle class="cls-8" cx="2445.52" cy="564.07" r="31.45" transform="translate(9.81 1169.09) rotate(-26.94)"/>
        <path class="cls-10" d="M2180.88,593.49c2.71,8.29,97.8-22.76,95.1-31-18.22-55.82-54.29-94.11-80.55-85.54S2162.66,537.67,2180.88,593.49Z"/>
        <circle class="cls-8" cx="2220.35" cy="563.97" r="31.45" transform="translate(611.8 2195.09) rotate(-59.65)"/>
      </g>
    </symbol>
  </defs>
  <title>alien</title>
  <use width="3186.67" height="939.82" transform="translate(14.38)" xlink:href="#alien1"/>
  <use width="4521.46" height="964.83" transform="translate(14.38 973.27)" xlink:href="#alien2"/>
  <use width="3365.32" height="964.83" transform="translate(14.38 1959.05)" xlink:href="#alien3"/>
  <use width="2619.68" height="964.83" transform="translate(14.38 2944.82)" xlink:href="#alien4"/>
</svg>
