<svg id="Layer_5" data-name="Layer 5" xmlns="http://www.w3.org/2000/svg" xmlns:xlink="http://www.w3.org/1999/xlink" viewBox="0 0 3832.24 3528.1">
  <defs>
    <style>
      .cls-1 {
        fill: url(#linear-gradient);
      }

      .cls-2 {
        fill: url(#linear-gradient-2);
      }

      .cls-3 {
        fill: url(#linear-gradient-3);
      }

      .cls-4 {
        fill: url(#linear-gradient-4);
      }

      .cls-5 {
        fill: url(#linear-gradient-5);
      }

      .cls-6, .cls-8 {
        fill: #2f0d00;
      }

      .cls-6 {
        stroke: #fff;
      }

      .cls-6, .cls-62, .cls-7, .cls-9 {
        stroke-miterlimit: 10;
      }

      .cls-10, .cls-7 {
        fill: #fff;
      }

      .cls-62, .cls-7, .cls-9 {
        stroke: #2f0d00;
      }

      .cls-9 {
        fill: #040102;
      }

      .cls-11 {
        fill: url(#linear-gradient-6);
      }

      .cls-12 {
        fill: url(#linear-gradient-7);
      }

      .cls-13 {
        fill: url(#linear-gradient-8);
      }

      .cls-14 {
        fill: url(#linear-gradient-9);
      }

      .cls-15 {
        fill: url(#linear-gradient-10);
      }

      .cls-16 {
        fill: url(#linear-gradient-11);
      }

      .cls-17 {
        fill: url(#linear-gradient-12);
      }

      .cls-18 {
        fill: url(#linear-gradient-13);
      }

      .cls-19 {
        fill: url(#linear-gradient-14);
      }

      .cls-20 {
        fill: url(#linear-gradient-15);
      }

      .cls-21 {
        fill: url(#linear-gradient-16);
      }

      .cls-22 {
        fill: url(#linear-gradient-17);
      }

      .cls-23 {
        fill: url(#linear-gradient-18);
      }

      .cls-24 {
        fill: url(#linear-gradient-19);
      }

      .cls-25 {
        fill: url(#linear-gradient-20);
      }

      .cls-26 {
        fill: url(#linear-gradient-21);
      }

      .cls-27 {
        fill: url(#linear-gradient-22);
      }

      .cls-28 {
        fill: url(#linear-gradient-23);
      }

      .cls-29 {
        fill: url(#linear-gradient-24);
      }

      .cls-30 {
        fill: url(#linear-gradient-25);
      }

      .cls-31 {
        fill: url(#linear-gradient-26);
      }

      .cls-32 {
        fill: url(#linear-gradient-27);
      }

      .cls-33 {
        fill: url(#linear-gradient-28);
      }

      .cls-34 {
        fill: url(#linear-gradient-29);
      }

      .cls-35 {
        fill: url(#linear-gradient-30);
      }

      .cls-36 {
        fill: url(#linear-gradient-31);
      }

      .cls-37 {
        fill: url(#linear-gradient-32);
      }

      .cls-38 {
        fill: url(#linear-gradient-33);
      }

      .cls-39 {
        fill: url(#linear-gradient-34);
      }

      .cls-40 {
        fill: url(#linear-gradient-35);
      }

      .cls-41 {
        fill: url(#linear-gradient-36);
      }

      .cls-42 {
        fill: url(#linear-gradient-37);
      }

      .cls-43 {
        fill: url(#linear-gradient-38);
      }

      .cls-44 {
        fill: url(#linear-gradient-39);
      }

      .cls-45 {
        fill: url(#linear-gradient-40);
      }

      .cls-46 {
        fill: url(#linear-gradient-41);
      }

      .cls-47 {
        fill: url(#linear-gradient-42);
      }

      .cls-48 {
        fill: url(#linear-gradient-43);
      }

      .cls-49 {
        fill: url(#linear-gradient-44);
      }

      .cls-50 {
        fill: url(#linear-gradient-45);
      }

      .cls-51 {
        fill: url(#linear-gradient-46);
      }

      .cls-52 {
        fill: url(#linear-gradient-47);
      }

      .cls-53 {
        fill: url(#linear-gradient-48);
      }

      .cls-54 {
        fill: url(#linear-gradient-49);
      }

      .cls-55 {
        fill: url(#linear-gradient-50);
      }

      .cls-56 {
        fill: url(#linear-gradient-51);
      }

      .cls-57 {
        fill: url(#linear-gradient-52);
      }

      .cls-58 {
        fill: url(#linear-gradient-53);
      }

      .cls-59 {
        fill: url(#linear-gradient-54);
      }

      .cls-60 {
        fill: url(#linear-gradient-55);
      }

      .cls-61 {
        fill: url(#linear-gradient-56);
      }

      .cls-147, .cls-62 {
        fill: none;
      }

      .cls-62 {
        stroke-width: 15px;
      }

      .cls-63 {
        fill: url(#linear-gradient-57);
      }

      .cls-64 {
        fill: url(#linear-gradient-58);
      }

      .cls-65 {
        fill: url(#linear-gradient-59);
      }

      .cls-66 {
        fill: url(#linear-gradient-60);
      }

      .cls-67 {
        fill: url(#linear-gradient-61);
      }

      .cls-68 {
        fill: url(#linear-gradient-62);
      }

      .cls-69 {
        fill: url(#linear-gradient-63);
      }

      .cls-70 {
        fill: url(#linear-gradient-64);
      }

      .cls-71 {
        fill: url(#linear-gradient-65);
      }

      .cls-72 {
        fill: url(#linear-gradient-66);
      }

      .cls-73 {
        fill: url(#linear-gradient-67);
      }

      .cls-74 {
        fill: url(#linear-gradient-68);
      }

      .cls-75 {
        fill: url(#linear-gradient-69);
      }

      .cls-76 {
        fill: url(#linear-gradient-70);
      }

      .cls-77 {
        fill: url(#linear-gradient-71);
      }

      .cls-78 {
        fill: url(#linear-gradient-72);
      }

      .cls-79 {
        fill: url(#linear-gradient-73);
      }

      .cls-80 {
        fill: url(#linear-gradient-74);
      }

      .cls-81 {
        fill: url(#linear-gradient-75);
      }

      .cls-82 {
        fill: url(#linear-gradient-76);
      }

      .cls-83 {
        fill: url(#linear-gradient-77);
      }

      .cls-84 {
        fill: url(#linear-gradient-78);
      }

      .cls-85 {
        fill: url(#linear-gradient-79);
      }

      .cls-86 {
        fill: url(#linear-gradient-80);
      }

      .cls-87 {
        fill: url(#linear-gradient-81);
      }

      .cls-88 {
        fill: url(#linear-gradient-82);
      }

      .cls-89 {
        fill: url(#linear-gradient-83);
      }

      .cls-90 {
        fill: url(#linear-gradient-84);
      }

      .cls-91 {
        fill: url(#linear-gradient-85);
      }

      .cls-92 {
        fill: url(#linear-gradient-86);
      }

      .cls-93 {
        fill: url(#linear-gradient-87);
      }

      .cls-94 {
        fill: url(#linear-gradient-88);
      }

      .cls-95 {
        fill: url(#linear-gradient-89);
      }

      .cls-96 {
        fill: url(#linear-gradient-90);
      }

      .cls-97 {
        fill: url(#linear-gradient-91);
      }

      .cls-98 {
        fill: url(#linear-gradient-92);
      }

      .cls-99 {
        fill: url(#linear-gradient-93);
      }

      .cls-100 {
        fill: url(#linear-gradient-94);
      }

      .cls-101 {
        fill: url(#linear-gradient-95);
      }

      .cls-102 {
        fill: url(#linear-gradient-96);
      }

      .cls-103 {
        fill: url(#linear-gradient-97);
      }

      .cls-104 {
        fill: url(#linear-gradient-98);
      }

      .cls-105 {
        fill: url(#linear-gradient-99);
      }

      .cls-106 {
        fill: url(#linear-gradient-100);
      }

      .cls-107 {
        fill: url(#linear-gradient-101);
      }

      .cls-108 {
        fill: url(#linear-gradient-102);
      }

      .cls-109 {
        fill: url(#linear-gradient-103);
      }

      .cls-110 {
        fill: url(#linear-gradient-104);
      }

      .cls-111 {
        fill: url(#linear-gradient-105);
      }

      .cls-112 {
        fill: url(#linear-gradient-106);
      }

      .cls-113 {
        fill: url(#linear-gradient-107);
      }

      .cls-114 {
        fill: url(#linear-gradient-108);
      }

      .cls-115 {
        fill: url(#linear-gradient-109);
      }

      .cls-116 {
        fill: url(#linear-gradient-110);
      }

      .cls-117 {
        fill: url(#linear-gradient-111);
      }

      .cls-118 {
        fill: url(#linear-gradient-112);
      }

      .cls-119 {
        fill: url(#linear-gradient-113);
      }

      .cls-120 {
        fill: url(#linear-gradient-114);
      }

      .cls-121 {
        fill: url(#linear-gradient-115);
      }

      .cls-122 {
        fill: url(#linear-gradient-116);
      }

      .cls-123 {
        fill: url(#linear-gradient-117);
      }

      .cls-124 {
        fill: url(#linear-gradient-118);
      }

      .cls-125 {
        fill: url(#linear-gradient-119);
      }

      .cls-126 {
        fill: url(#linear-gradient-120);
      }

      .cls-127 {
        fill: url(#linear-gradient-121);
      }

      .cls-128 {
        fill: url(#linear-gradient-122);
      }

      .cls-129 {
        fill: url(#linear-gradient-123);
      }

      .cls-130 {
        fill: url(#linear-gradient-124);
      }

      .cls-131 {
        fill: url(#linear-gradient-125);
      }

      .cls-132 {
        fill: url(#linear-gradient-126);
      }

      .cls-133 {
        fill: url(#linear-gradient-127);
      }

      .cls-134 {
        fill: url(#linear-gradient-128);
      }

      .cls-135 {
        fill: url(#linear-gradient-129);
      }

      .cls-136 {
        fill: url(#linear-gradient-130);
      }

      .cls-137 {
        fill: url(#linear-gradient-131);
      }

      .cls-138 {
        fill: url(#linear-gradient-132);
      }

      .cls-139 {
        fill: url(#linear-gradient-133);
      }

      .cls-140 {
        fill: url(#linear-gradient-134);
      }

      .cls-141 {
        fill: url(#linear-gradient-135);
      }

      .cls-142 {
        fill: url(#linear-gradient-136);
      }

      .cls-143 {
        fill: url(#linear-gradient-137);
      }

      .cls-144 {
        fill: url(#linear-gradient-138);
      }

      .cls-145 {
        fill: url(#linear-gradient-139);
      }

      .cls-146 {
        fill: url(#linear-gradient-140);
      }

      .cls-148 {
        fill: url(#linear-gradient-141);
      }

      .cls-149 {
        fill: url(#linear-gradient-142);
      }

      .cls-150 {
        fill: url(#linear-gradient-143);
      }

      .cls-151 {
        fill: url(#linear-gradient-144);
      }

      .cls-152 {
        fill: url(#linear-gradient-145);
      }

      .cls-153 {
        fill: url(#linear-gradient-146);
      }

      .cls-154 {
        fill: url(#linear-gradient-147);
      }

      .cls-155 {
        fill: url(#linear-gradient-148);
      }
    </style>
    <linearGradient id="linear-gradient" x1="390.91" y1="1020.69" x2="484.42" y2="1020.69" gradientUnits="userSpaceOnUse">
      <stop offset="0" stop-color="#fff"/>
      <stop offset="0.09" stop-color="#fdfdfd"/>
      <stop offset="1" stop-color="#d9d9d9"/>
    </linearGradient>
    <linearGradient id="linear-gradient-2" x1="472.56" y1="942.43" x2="500.01" y2="942.43" xlink:href="#linear-gradient"/>
    <linearGradient id="linear-gradient-3" x1="100.53" y1="1011.86" x2="165.62" y2="1011.86" xlink:href="#linear-gradient"/>
    <linearGradient id="linear-gradient-4" x1="87.06" y1="928" x2="114.51" y2="928" xlink:href="#linear-gradient"/>
    <linearGradient id="linear-gradient-5" x1="26.94" y1="1290.74" x2="526.93" y2="1290.74" xlink:href="#linear-gradient"/>
    <linearGradient id="linear-gradient-6" x1="213.61" y1="1635.04" x2="275.12" y2="1635.04" xlink:href="#linear-gradient"/>
    <linearGradient id="linear-gradient-7" x1="281.47" y1="1635.04" x2="342.98" y2="1635.04" xlink:href="#linear-gradient"/>
    <linearGradient id="linear-gradient-8" x1="645.71" y1="928.68" x2="673.15" y2="928.68" xlink:href="#linear-gradient"/>
    <linearGradient id="linear-gradient-9" x1="949.81" y1="1020.01" x2="1043.32" y2="1020.01" xlink:href="#linear-gradient"/>
    <linearGradient id="linear-gradient-10" x1="1031.46" y1="941.75" x2="1058.91" y2="941.75" xlink:href="#linear-gradient"/>
    <linearGradient id="linear-gradient-11" x1="659.43" y1="1011.18" x2="724.52" y2="1011.18" xlink:href="#linear-gradient"/>
    <linearGradient id="linear-gradient-12" x1="585.84" y1="1290.06" x2="1085.83" y2="1290.06" xlink:href="#linear-gradient"/>
    <linearGradient id="linear-gradient-13" x1="772.51" y1="1634.36" x2="834.03" y2="1634.36" xlink:href="#linear-gradient"/>
    <linearGradient id="linear-gradient-14" x1="840.37" y1="1634.36" x2="901.88" y2="1634.36" xlink:href="#linear-gradient"/>
    <linearGradient id="linear-gradient-15" x1="1202.27" y1="928.68" x2="1229.71" y2="928.68" xlink:href="#linear-gradient"/>
    <linearGradient id="linear-gradient-16" x1="1506.37" y1="1020.01" x2="1599.88" y2="1020.01" xlink:href="#linear-gradient"/>
    <linearGradient id="linear-gradient-17" x1="1588.02" y1="941.75" x2="1615.47" y2="941.75" xlink:href="#linear-gradient"/>
    <linearGradient id="linear-gradient-18" x1="1215.99" y1="1011.18" x2="1281.08" y2="1011.18" xlink:href="#linear-gradient"/>
    <linearGradient id="linear-gradient-19" x1="1142.4" y1="1290.06" x2="1642.39" y2="1290.06" xlink:href="#linear-gradient"/>
    <linearGradient id="linear-gradient-20" x1="1329.07" y1="1634.36" x2="1390.59" y2="1634.36" xlink:href="#linear-gradient"/>
    <linearGradient id="linear-gradient-21" x1="1396.93" y1="1634.36" x2="1458.44" y2="1634.36" xlink:href="#linear-gradient"/>
    <linearGradient id="linear-gradient-22" x1="1747.8" y1="928.68" x2="1775.24" y2="928.68" xlink:href="#linear-gradient"/>
    <linearGradient id="linear-gradient-23" x1="2051.9" y1="1020.01" x2="2145.41" y2="1020.01" xlink:href="#linear-gradient"/>
    <linearGradient id="linear-gradient-24" x1="2133.55" y1="941.75" x2="2161" y2="941.75" xlink:href="#linear-gradient"/>
    <linearGradient id="linear-gradient-25" x1="1761.52" y1="1011.18" x2="1826.61" y2="1011.18" xlink:href="#linear-gradient"/>
    <linearGradient id="linear-gradient-26" x1="1687.93" y1="1290.06" x2="2187.92" y2="1290.06" xlink:href="#linear-gradient"/>
    <linearGradient id="linear-gradient-27" x1="1874.6" y1="1634.36" x2="1936.11" y2="1634.36" xlink:href="#linear-gradient"/>
    <linearGradient id="linear-gradient-28" x1="1942.46" y1="1634.36" x2="2003.97" y2="1634.36" xlink:href="#linear-gradient"/>
    <linearGradient id="linear-gradient-29" x1="2274.79" y1="928.68" x2="2302.23" y2="928.68" xlink:href="#linear-gradient"/>
    <linearGradient id="linear-gradient-30" x1="2578.89" y1="1020.01" x2="2672.4" y2="1020.01" xlink:href="#linear-gradient"/>
    <linearGradient id="linear-gradient-31" x1="2660.54" y1="941.75" x2="2687.99" y2="941.75" xlink:href="#linear-gradient"/>
    <linearGradient id="linear-gradient-32" x1="2288.51" y1="1011.18" x2="2353.6" y2="1011.18" xlink:href="#linear-gradient"/>
    <linearGradient id="linear-gradient-33" x1="2214.92" y1="1290.06" x2="2714.91" y2="1290.06" xlink:href="#linear-gradient"/>
    <linearGradient id="linear-gradient-34" x1="2401.59" y1="1634.36" x2="2463.1" y2="1634.36" xlink:href="#linear-gradient"/>
    <linearGradient id="linear-gradient-35" x1="2469.45" y1="1634.36" x2="2530.96" y2="1634.36" xlink:href="#linear-gradient"/>
    <linearGradient id="linear-gradient-36" x1="2829.7" y1="928.68" x2="2857.15" y2="928.68" xlink:href="#linear-gradient"/>
    <linearGradient id="linear-gradient-37" x1="3133.81" y1="1020.01" x2="3227.32" y2="1020.01" xlink:href="#linear-gradient"/>
    <linearGradient id="linear-gradient-38" x1="3215.46" y1="941.75" x2="3242.91" y2="941.75" xlink:href="#linear-gradient"/>
    <linearGradient id="linear-gradient-39" x1="2843.43" y1="1011.18" x2="2908.52" y2="1011.18" xlink:href="#linear-gradient"/>
    <linearGradient id="linear-gradient-40" x1="2769.83" y1="1290.06" x2="3269.83" y2="1290.06" xlink:href="#linear-gradient"/>
    <linearGradient id="linear-gradient-41" x1="2956.51" y1="1634.36" x2="3018.02" y2="1634.36" xlink:href="#linear-gradient"/>
    <linearGradient id="linear-gradient-42" x1="3024.37" y1="1634.36" x2="3085.88" y2="1634.36" xlink:href="#linear-gradient"/>
    <linearGradient id="linear-gradient-43" x1="3370.91" y1="928.68" x2="3398.35" y2="928.68" xlink:href="#linear-gradient"/>
    <linearGradient id="linear-gradient-44" x1="3675.01" y1="1020.01" x2="3768.52" y2="1020.01" xlink:href="#linear-gradient"/>
    <linearGradient id="linear-gradient-45" x1="3756.66" y1="941.75" x2="3784.11" y2="941.75" xlink:href="#linear-gradient"/>
    <linearGradient id="linear-gradient-46" x1="3384.63" y1="1011.18" x2="3449.72" y2="1011.18" xlink:href="#linear-gradient"/>
    <linearGradient id="linear-gradient-47" x1="3311.04" y1="1290.06" x2="3811.03" y2="1290.06" xlink:href="#linear-gradient"/>
    <linearGradient id="linear-gradient-48" x1="3497.71" y1="1634.36" x2="3559.22" y2="1634.36" xlink:href="#linear-gradient"/>
    <linearGradient id="linear-gradient-49" x1="3565.57" y1="1634.36" x2="3627.08" y2="1634.36" xlink:href="#linear-gradient"/>
    <linearGradient id="linear-gradient-50" x1="379.81" y1="1881.56" x2="469.51" y2="1881.56" xlink:href="#linear-gradient"/>
    <linearGradient id="linear-gradient-51" x1="458.13" y1="1802.71" x2="484.46" y2="1802.71" xlink:href="#linear-gradient"/>
    <linearGradient id="linear-gradient-52" x1="101.24" y1="1872.66" x2="163.68" y2="1872.66" xlink:href="#linear-gradient"/>
    <linearGradient id="linear-gradient-53" x1="88.33" y1="1788.16" x2="114.66" y2="1788.16" xlink:href="#linear-gradient"/>
    <linearGradient id="linear-gradient-54" x1="30.65" y1="2153.66" x2="510.29" y2="2153.66" xlink:href="#linear-gradient"/>
    <linearGradient id="linear-gradient-55" x1="209.72" y1="2500.58" x2="268.73" y2="2500.58" xlink:href="#linear-gradient"/>
    <linearGradient id="linear-gradient-56" x1="274.82" y1="2500.58" x2="333.83" y2="2500.58" xlink:href="#linear-gradient"/>
    <linearGradient id="linear-gradient-57" x1="935.78" y1="1881.56" x2="1025.48" y2="1881.56" xlink:href="#linear-gradient"/>
    <linearGradient id="linear-gradient-58" x1="1014.1" y1="1802.71" x2="1040.43" y2="1802.71" xlink:href="#linear-gradient"/>
    <linearGradient id="linear-gradient-59" x1="657.22" y1="1872.66" x2="719.66" y2="1872.66" xlink:href="#linear-gradient"/>
    <linearGradient id="linear-gradient-60" x1="644.3" y1="1788.16" x2="670.63" y2="1788.16" xlink:href="#linear-gradient"/>
    <linearGradient id="linear-gradient-61" x1="586.62" y1="2153.66" x2="1066.26" y2="2153.66" xlink:href="#linear-gradient"/>
    <linearGradient id="linear-gradient-62" x1="765.69" y1="2500.58" x2="824.7" y2="2500.58" xlink:href="#linear-gradient"/>
    <linearGradient id="linear-gradient-63" x1="830.79" y1="2500.58" x2="889.8" y2="2500.58" xlink:href="#linear-gradient"/>
    <linearGradient id="linear-gradient-64" x1="1468.94" y1="1940.86" x2="1558.65" y2="1940.86" xlink:href="#linear-gradient"/>
    <linearGradient id="linear-gradient-65" x1="1547.27" y1="1862.01" x2="1573.6" y2="1862.01" xlink:href="#linear-gradient"/>
    <linearGradient id="linear-gradient-66" x1="1190.38" y1="1931.97" x2="1252.82" y2="1931.97" xlink:href="#linear-gradient"/>
    <linearGradient id="linear-gradient-67" x1="1124.14" y1="2218.34" x2="1603.78" y2="2218.34" xlink:href="#linear-gradient"/>
    <linearGradient id="linear-gradient-68" x1="294.27" y1="2274.92" x2="353.28" y2="2274.92" gradientTransform="translate(1160.13 206.11) rotate(5.39)" xlink:href="#linear-gradient"/>
    <linearGradient id="linear-gradient-69" x1="1408.74" y1="2500.58" x2="1467.75" y2="2500.58" xlink:href="#linear-gradient"/>
    <linearGradient id="linear-gradient-70" x1="1179.48" y1="1856.23" x2="1205.81" y2="1856.23" xlink:href="#linear-gradient"/>
    <linearGradient id="linear-gradient-71" x1="2571.43" y1="1940.86" x2="2661.13" y2="1940.86" xlink:href="#linear-gradient"/>
    <linearGradient id="linear-gradient-72" x1="2649.76" y1="1862.01" x2="2676.09" y2="1862.01" xlink:href="#linear-gradient"/>
    <linearGradient id="linear-gradient-73" x1="2292.87" y1="1931.97" x2="2355.31" y2="1931.97" xlink:href="#linear-gradient"/>
    <linearGradient id="linear-gradient-74" x1="2226.62" y1="2218.34" x2="2706.27" y2="2218.34" xlink:href="#linear-gradient"/>
    <linearGradient id="linear-gradient-75" x1="1391.89" y1="2171.45" x2="1450.9" y2="2171.45" gradientTransform="translate(1160.13 206.11) rotate(5.39)" xlink:href="#linear-gradient"/>
    <linearGradient id="linear-gradient-76" x1="2511.23" y1="2500.58" x2="2570.24" y2="2500.58" xlink:href="#linear-gradient"/>
    <linearGradient id="linear-gradient-77" x1="2281.97" y1="1856.23" x2="2308.3" y2="1856.23" xlink:href="#linear-gradient"/>
    <linearGradient id="linear-gradient-78" x1="-6065.66" y1="2782.77" x2="-5977.81" y2="2782.77" gradientTransform="matrix(-1, 0, 0, 1, -5884.38, 0)" xlink:href="#linear-gradient"/>
    <linearGradient id="linear-gradient-79" x1="-5988.95" y1="2705.55" x2="-5963.16" y2="2705.55" gradientTransform="matrix(-1, 0, 0, 1, -5884.38, 0)" xlink:href="#linear-gradient"/>
    <linearGradient id="linear-gradient-80" x1="-6338.47" y1="2774.06" x2="-6277.32" y2="2774.06" gradientTransform="matrix(-1, 0, 0, 1, -5884.38, 0)" xlink:href="#linear-gradient"/>
    <linearGradient id="linear-gradient-81" x1="-6351.12" y1="2691.31" x2="-6325.34" y2="2691.31" gradientTransform="matrix(-1, 0, 0, 1, -5884.38, 0)" xlink:href="#linear-gradient"/>
    <linearGradient id="linear-gradient-82" x1="-6407.61" y1="3049.26" x2="-5937.87" y2="3049.26" gradientTransform="matrix(-1, 0, 0, 1, -5884.38, 0)" xlink:href="#linear-gradient"/>
    <linearGradient id="linear-gradient-83" x1="-6232.23" y1="3389.02" x2="-6174.44" y2="3389.02" gradientTransform="matrix(-1, 0, 0, 1, -5884.38, 0)" xlink:href="#linear-gradient"/>
    <linearGradient id="linear-gradient-84" x1="-6168.48" y1="3389.02" x2="-6110.69" y2="3389.02" gradientTransform="matrix(-1, 0, 0, 1, -5884.38, 0)" xlink:href="#linear-gradient"/>
    <linearGradient id="linear-gradient-85" x1="923.91" y1="2818.54" x2="1011.76" y2="2818.54" xlink:href="#linear-gradient"/>
    <linearGradient id="linear-gradient-86" x1="1000.61" y1="2741.32" x2="1026.4" y2="2741.32" xlink:href="#linear-gradient"/>
    <linearGradient id="linear-gradient-87" x1="651.09" y1="2809.83" x2="712.24" y2="2809.83" xlink:href="#linear-gradient"/>
    <linearGradient id="linear-gradient-88" x1="638.44" y1="2727.08" x2="664.23" y2="2727.08" xlink:href="#linear-gradient"/>
    <linearGradient id="linear-gradient-89" x1="581.95" y1="3085.03" x2="1051.7" y2="3085.03" xlink:href="#linear-gradient"/>
    <linearGradient id="linear-gradient-90" x1="703.04" y1="3379.26" x2="760.83" y2="3379.26" xlink:href="#linear-gradient"/>
    <linearGradient id="linear-gradient-91" x1="860.46" y1="3379.26" x2="918.25" y2="3379.26" xlink:href="#linear-gradient"/>
    <linearGradient id="linear-gradient-92" x1="-7147.18" y1="2787.44" x2="-7059.33" y2="2787.44" gradientTransform="matrix(-1, 0, 0, 1, -5884.38, 0)" xlink:href="#linear-gradient"/>
    <linearGradient id="linear-gradient-93" x1="-7070.48" y1="2710.22" x2="-7044.68" y2="2710.22" gradientTransform="matrix(-1, 0, 0, 1, -5884.38, 0)" xlink:href="#linear-gradient"/>
    <linearGradient id="linear-gradient-94" x1="-7420" y1="2778.73" x2="-7358.85" y2="2778.73" gradientTransform="matrix(-1, 0, 0, 1, -5884.38, 0)" xlink:href="#linear-gradient"/>
    <linearGradient id="linear-gradient-95" x1="-7432.65" y1="2695.98" x2="-7406.86" y2="2695.98" gradientTransform="matrix(-1, 0, 0, 1, -5884.38, 0)" xlink:href="#linear-gradient"/>
    <linearGradient id="linear-gradient-96" x1="-7489.14" y1="3053.93" x2="-7019.39" y2="3053.93" gradientTransform="matrix(-1, 0, 0, 1, -5884.38, 0)" xlink:href="#linear-gradient"/>
    <linearGradient id="linear-gradient-97" x1="-7313.76" y1="3393.69" x2="-7255.97" y2="3393.69" gradientTransform="matrix(-1, 0, 0, 1, -5884.38, 0)" xlink:href="#linear-gradient"/>
    <linearGradient id="linear-gradient-98" x1="-7250" y1="3393.69" x2="-7192.21" y2="3393.69" gradientTransform="matrix(-1, 0, 0, 1, -5884.38, 0)" xlink:href="#linear-gradient"/>
    <linearGradient id="linear-gradient-99" x1="-5603.69" y1="2818.54" x2="-5515.84" y2="2818.54" gradientTransform="matrix(-1, 0, 0, 1, -3796.16, 0)" xlink:href="#linear-gradient"/>
    <linearGradient id="linear-gradient-100" x1="-5526.98" y1="2741.32" x2="-5501.19" y2="2741.32" gradientTransform="matrix(-1, 0, 0, 1, -3796.16, 0)" xlink:href="#linear-gradient"/>
    <linearGradient id="linear-gradient-101" x1="-5876.5" y1="2809.83" x2="-5815.35" y2="2809.83" gradientTransform="matrix(-1, 0, 0, 1, -3796.16, 0)" xlink:href="#linear-gradient"/>
    <linearGradient id="linear-gradient-102" x1="-5889.15" y1="2727.08" x2="-5863.37" y2="2727.08" gradientTransform="matrix(-1, 0, 0, 1, -3796.16, 0)" xlink:href="#linear-gradient"/>
    <linearGradient id="linear-gradient-103" x1="-5945.64" y1="3085.03" x2="-5475.9" y2="3085.03" gradientTransform="matrix(-1, 0, 0, 1, -3796.16, 0)" xlink:href="#linear-gradient"/>
    <linearGradient id="linear-gradient-104" x1="-5824.55" y1="3379.26" x2="-5766.76" y2="3379.26" gradientTransform="matrix(-1, 0, 0, 1, -3796.16, 0)" xlink:href="#linear-gradient"/>
    <linearGradient id="linear-gradient-105" x1="-5667.13" y1="3379.26" x2="-5609.34" y2="3379.26" gradientTransform="matrix(-1, 0, 0, 1, -3796.16, 0)" xlink:href="#linear-gradient"/>
    <linearGradient id="linear-gradient-106" x1="398.89" y1="134.38" x2="492.8" y2="134.38" xlink:href="#linear-gradient"/>
    <linearGradient id="linear-gradient-107" x1="480.89" y1="53.59" x2="508.46" y2="53.59" xlink:href="#linear-gradient"/>
    <linearGradient id="linear-gradient-108" x1="33.36" y1="413.16" x2="535.49" y2="413.16" xlink:href="#linear-gradient"/>
    <linearGradient id="linear-gradient-109" x1="200.18" y1="190.26" x2="265.55" y2="190.26" xlink:href="#linear-gradient"/>
    <linearGradient id="linear-gradient-110" x1="186.4" y1="103.21" x2="213.96" y2="103.21" xlink:href="#linear-gradient"/>
    <linearGradient id="linear-gradient-111" x1="4981.28" y1="3984.7" x2="5043" y2="3984.7" gradientTransform="translate(-5971.83 77.62) rotate(-32.54)" xlink:href="#linear-gradient"/>
    <linearGradient id="linear-gradient-112" x1="-5194.02" y1="464.43" x2="-5132.81" y2="464.43" gradientTransform="translate(4823.6 2966.96) rotate(30.66)" xlink:href="#linear-gradient"/>
    <linearGradient id="linear-gradient-113" x1="951.79" y1="153.79" x2="1045.7" y2="153.79" xlink:href="#linear-gradient"/>
    <linearGradient id="linear-gradient-114" x1="1033.79" y1="73" x2="1061.36" y2="73" xlink:href="#linear-gradient"/>
    <linearGradient id="linear-gradient-115" x1="586.27" y1="432.58" x2="1088.4" y2="432.58" xlink:href="#linear-gradient"/>
    <linearGradient id="linear-gradient-116" x1="753.08" y1="209.67" x2="818.45" y2="209.67" xlink:href="#linear-gradient"/>
    <linearGradient id="linear-gradient-117" x1="739.3" y1="122.63" x2="766.87" y2="122.63" xlink:href="#linear-gradient"/>
    <linearGradient id="linear-gradient-118" x1="6582.83" y1="5975.67" x2="6644.33" y2="5975.67" gradientTransform="translate(-7923.19 1040.14) rotate(-44.03)" xlink:href="#linear-gradient"/>
    <linearGradient id="linear-gradient-119" x1="-7863.49" y1="1473.73" x2="-7802.74" y2="1473.73" gradientTransform="translate(6822.52 5779.17) rotate(49.97)" xlink:href="#linear-gradient"/>
    <linearGradient id="linear-gradient-120" x1="1835.73" y1="247.1" x2="1929.52" y2="247.1" gradientTransform="translate(-373.03 -53.43) rotate(-2.15)" xlink:href="#linear-gradient"/>
    <linearGradient id="linear-gradient-121" x1="1917.6" y1="166.34" x2="1945.17" y2="166.34" gradientTransform="translate(-373.03 -53.43) rotate(-2.15)" xlink:href="#linear-gradient"/>
    <linearGradient id="linear-gradient-122" x1="1470.39" y1="525.76" x2="1972.5" y2="525.76" gradientTransform="translate(-373.03 -53.43) rotate(-2.15)" xlink:href="#linear-gradient"/>
    <linearGradient id="linear-gradient-123" x1="1636.96" y1="302.8" x2="1702.44" y2="302.8" gradientTransform="translate(-373.03 -53.43) rotate(-2.15)" xlink:href="#linear-gradient"/>
    <linearGradient id="linear-gradient-124" x1="1623.16" y1="215.74" x2="1650.73" y2="215.74" gradientTransform="translate(-373.03 -53.43) rotate(-2.15)" xlink:href="#linear-gradient"/>
    <linearGradient id="linear-gradient-125" x1="2310.21" y1="2061.92" x2="2372.06" y2="2061.92" gradientTransform="translate(-1232.65 -977.45) rotate(-7.93)" xlink:href="#linear-gradient"/>
    <linearGradient id="linear-gradient-126" x1="-7127.07" y1="749.81" x2="-7066.26" y2="749.81" gradientTransform="translate(6661.36 5465.9) rotate(47.83)" xlink:href="#linear-gradient"/>
    <linearGradient id="linear-gradient-127" x1="2404.61" y1="264.1" x2="2498.4" y2="264.1" gradientTransform="translate(-373.03 -53.43) rotate(-2.15)" xlink:href="#linear-gradient"/>
    <linearGradient id="linear-gradient-128" x1="2486.48" y1="183.35" x2="2514.05" y2="183.35" gradientTransform="translate(-373.03 -53.43) rotate(-2.15)" xlink:href="#linear-gradient"/>
    <linearGradient id="linear-gradient-129" x1="2039.27" y1="542.76" x2="2541.38" y2="542.76" gradientTransform="translate(-373.03 -53.43) rotate(-2.15)" xlink:href="#linear-gradient"/>
    <linearGradient id="linear-gradient-130" x1="2205.84" y1="319.8" x2="2271.32" y2="319.8" gradientTransform="translate(-373.03 -53.43) rotate(-2.15)" xlink:href="#linear-gradient"/>
    <linearGradient id="linear-gradient-131" x1="2192.04" y1="232.74" x2="2219.61" y2="232.74" gradientTransform="translate(-373.03 -53.43) rotate(-2.15)" xlink:href="#linear-gradient"/>
    <linearGradient id="linear-gradient-132" x1="-1001.6" y1="1250.93" x2="-940.03" y2="1250.93" gradientTransform="translate(3141.13 -215.96) rotate(14.81)" xlink:href="#linear-gradient"/>
    <linearGradient id="linear-gradient-133" x1="3635.35" y1="305.18" x2="3697.21" y2="305.18" gradientTransform="translate(-1603.86 1348.86) rotate(-14.36)" xlink:href="#linear-gradient"/>
    <linearGradient id="linear-gradient-134" x1="2559.83" y1="134.38" x2="2653.74" y2="134.38" xlink:href="#linear-gradient"/>
    <linearGradient id="linear-gradient-135" x1="2641.83" y1="53.59" x2="2669.4" y2="53.59" xlink:href="#linear-gradient"/>
    <linearGradient id="linear-gradient-136" x1="2194.31" y1="413.16" x2="2696.44" y2="413.16" xlink:href="#linear-gradient"/>
    <linearGradient id="linear-gradient-137" x1="2361.12" y1="190.26" x2="2426.49" y2="190.26" xlink:href="#linear-gradient"/>
    <linearGradient id="linear-gradient-138" x1="2347.34" y1="103.21" x2="2374.9" y2="103.21" xlink:href="#linear-gradient"/>
    <linearGradient id="linear-gradient-139" x1="6803.04" y1="5146.96" x2="6864.76" y2="5146.96" gradientTransform="translate(-5971.83 77.62) rotate(-32.54)" xlink:href="#linear-gradient"/>
    <linearGradient id="linear-gradient-140" x1="-3335.14" y1="-637.5" x2="-3273.93" y2="-637.5" gradientTransform="translate(4823.6 2966.96) rotate(30.66)" xlink:href="#linear-gradient"/>
    <linearGradient id="linear-gradient-141" x1="1726.85" y1="2201.38" x2="1753.18" y2="2201.38" xlink:href="#linear-gradient"/>
    <linearGradient id="linear-gradient-142" x1="2018.33" y1="1881.56" x2="2108.03" y2="1881.56" xlink:href="#linear-gradient"/>
    <linearGradient id="linear-gradient-143" x1="2096.65" y1="1802.71" x2="2122.99" y2="1802.71" xlink:href="#linear-gradient"/>
    <linearGradient id="linear-gradient-144" x1="1669.17" y1="2153.66" x2="2148.82" y2="2153.66" xlink:href="#linear-gradient"/>
    <linearGradient id="linear-gradient-145" x1="1848.25" y1="2500.58" x2="1907.26" y2="2500.58" xlink:href="#linear-gradient"/>
    <linearGradient id="linear-gradient-146" x1="1913.34" y1="2500.58" x2="1972.35" y2="2500.58" xlink:href="#linear-gradient"/>
    <linearGradient id="linear-gradient-147" x1="-5247.16" y1="1896.78" x2="-5157.46" y2="1896.78" gradientTransform="matrix(-1, 0, 0, 1, -3412.32, 0)" xlink:href="#linear-gradient"/>
    <linearGradient id="linear-gradient-148" x1="-5168.84" y1="1817.93" x2="-5142.51" y2="1817.93" gradientTransform="matrix(-1, 0, 0, 1, -3412.32, 0)" xlink:href="#linear-gradient"/>
  </defs>
  <title>aliensplash</title>
  <g>
    <g>
      <path class="cls-1" d="M411.75,1095.65c13.86,7.24,84-143.53,71.09-150.18.86,8.85-90.65,149.07-91.93,139.25Z"/>
      <ellipse class="cls-2" cx="486.28" cy="942.43" rx="13.72" ry="13.07"/>
    </g>
    <path class="cls-3" d="M143,1092c-15.07,4.57-53.4-156.24-39.41-160.4-2.63,8.53,58.83,162.89,62.07,153.5Z"/>
    <ellipse class="cls-4" cx="100.79" cy="928" rx="13.72" ry="13.07"/>
    <ellipse class="cls-5" cx="276.93" cy="1290.74" rx="250" ry="238.01"/>
    <ellipse class="cls-6" cx="176.03" cy="1353.63" rx="88.97" ry="84.7"/>
    <ellipse class="cls-6" cx="385.91" cy="1353.63" rx="88.97" ry="84.7"/>
    <g>
      <ellipse class="cls-7" cx="385.53" cy="1347.05" rx="57.24" ry="54.5"/>
      <ellipse class="cls-8" cx="406.07" cy="1377.39" rx="20.75" ry="19.76"/>
    </g>
    <g>
      <ellipse class="cls-7" cx="176.03" cy="1353.63" rx="57.24" ry="54.5"/>
      <ellipse class="cls-8" cx="196.57" cy="1383.97" rx="20.75" ry="19.76"/>
    </g>
    <g>
      <path class="cls-9" d="M168,1150.13c63.35,8.13,137.5,6.82,218,0a759.56,759.56,0,0,1-113.56,140.61C228.39,1246.33,192,1199.9,168,1150.13Z"/>
      <polyline class="cls-10" points="220.56 1204.82 202.1 1208.83 214.11 1224.71"/>
      <polyline class="cls-10" points="244.37 1235.63 226.31 1241.05 239.62 1255.95"/>
      <polyline class="cls-10" points="348.61 1176.19 357.6 1192.06 370.47 1176.81"/>
      <polyline class="cls-10" points="347.51 1206.1 328.73 1203.86 334.3 1222.69"/>
    </g>
    <path class="cls-11" d="M235,1523.26c-6.72,22-8.16,62-9.32,102.91.05,28.08,7,56.53,17.71,85.17-10.31,2.34-20.15,9.14-29.82,17.74a25.49,25.49,0,0,1,14.91,0l-14.91,9.76c8.9.31,19-2.19,29.82-6.21l-7.46,14.2c14.47-7.93,26.4-16.59,33.55-26.62,4-4.47,5.76-9.22,5.59-14.19C262,1672.63,250.46,1641,249,1620c-2.09-34.9-2.51-67.67,0-96.7Z"/>
    <path class="cls-12" d="M321.55,1523.26c8.07,35.94,12.45,70.67,9.32,102.91,4.09,23.18-5.26,53.37-17.71,85.17,10.31,2.34,20.15,9.14,29.82,17.74a25.49,25.49,0,0,0-14.91,0l14.91,9.76c-8.9.31-19-2.19-29.82-6.21l7.45,14.2c-14.47-7.93-26.39-16.59-33.54-26.62-4-4.47-5.76-9.22-5.59-14.19,13.16-33.39,24.65-65,26.09-86.06,2.08-34.9,2.51-67.67,0-96.7Z"/>
  </g>
  <g>
    <ellipse class="cls-13" cx="659.43" cy="928.68" rx="13.72" ry="13.07"/>
    <g>
      <path class="cls-14" d="M970.65,1095c13.86,7.24,84-143.53,71.1-150.18.85,8.85-90.66,149.07-91.94,139.25Z"/>
      <ellipse class="cls-15" cx="1045.19" cy="941.75" rx="13.72" ry="13.07"/>
    </g>
    <path class="cls-16" d="M701.86,1091.33c-15.06,4.56-53.4-156.24-39.41-160.4-2.63,8.53,58.83,162.89,62.07,153.49Z"/>
    <ellipse class="cls-17" cx="835.84" cy="1290.06" rx="250" ry="238.01"/>
    <ellipse class="cls-6" cx="944.82" cy="1352.95" rx="88.97" ry="84.7"/>
    <g>
      <ellipse class="cls-7" cx="944.23" cy="1346.55" rx="57.24" ry="54.5"/>
      <ellipse class="cls-8" cx="975.54" cy="1366.91" rx="20.75" ry="19.76"/>
    </g>
    <g>
      <path class="cls-9" d="M726.86,1149.45c63.34,8.13,137.5,6.82,218,0a759.61,759.61,0,0,1-113.57,140.61C787.3,1245.64,750.85,1199.22,726.86,1149.45Z"/>
      <polyline class="cls-10" points="779.47 1204.13 761.01 1208.15 773.02 1224.03"/>
      <polyline class="cls-10" points="803.27 1234.95 785.21 1240.36 798.52 1255.27"/>
      <polyline class="cls-10" points="907.52 1175.51 916.5 1191.38 929.38 1176.13"/>
      <polyline class="cls-10" points="906.42 1205.42 887.63 1203.17 893.21 1222.01"/>
    </g>
    <path class="cls-18" d="M794,1522.58c-6.73,22-8.17,62-9.32,102.91,0,28.08,7,56.53,17.7,85.17-10.3,2.33-20.15,9.14-29.82,17.74a25.33,25.33,0,0,1,14.91,0l-14.91,9.76c8.9.31,19-2.19,29.82-6.21l-7.45,14.19c14.47-7.92,26.39-16.58,33.54-26.61,4.05-4.48,5.76-9.23,5.59-14.19-13.16-33.4-24.64-65-26.09-86.06-2.08-34.9-2.51-67.67,0-96.7Z"/>
    <path class="cls-19" d="M880.45,1522.58c8.07,35.94,12.46,70.67,9.32,102.91,4.09,23.18-5.26,53.37-17.71,85.17,10.31,2.33,20.16,9.14,29.82,17.74a25.33,25.33,0,0,0-14.91,0l14.91,9.76c-8.9.31-19-2.19-29.82-6.21l7.46,14.19c-14.47-7.92-26.4-16.58-33.55-26.61-4-4.48-5.76-9.23-5.59-14.19,13.16-33.4,24.65-65,26.09-86.06,2.09-34.9,2.51-67.67,0-96.7Z"/>
    <ellipse class="cls-6" cx="731.93" cy="1352.95" rx="88.97" ry="84.7"/>
    <g>
      <ellipse class="cls-7" cx="731.93" cy="1352.95" rx="57.24" ry="54.5"/>
      <ellipse class="cls-8" cx="763.24" cy="1373.3" rx="20.75" ry="19.76"/>
    </g>
  </g>
  <g>
    <ellipse class="cls-20" cx="1215.99" cy="928.68" rx="13.72" ry="13.07"/>
    <g>
      <path class="cls-21" d="M1527.21,1095c13.86,7.24,84-143.53,71.1-150.18.85,8.85-90.66,149.07-91.94,139.25Z"/>
      <ellipse class="cls-22" cx="1601.75" cy="941.75" rx="13.72" ry="13.07"/>
    </g>
    <path class="cls-23" d="M1258.42,1091.33c-15.07,4.56-53.4-156.24-39.41-160.4-2.63,8.53,58.83,162.89,62.07,153.49Z"/>
    <ellipse class="cls-24" cx="1392.4" cy="1290.06" rx="250" ry="238.01"/>
    <ellipse class="cls-6" cx="1501.38" cy="1352.95" rx="88.97" ry="84.7"/>
    <g>
      <ellipse class="cls-7" cx="1500.69" cy="1346.74" rx="57.24" ry="54.5"/>
      <ellipse class="cls-8" cx="1537.04" cy="1357.02" rx="20.75" ry="19.76"/>
    </g>
    <g>
      <path class="cls-9" d="M1283.42,1149.45c63.34,8.13,137.5,6.82,218,0a759.61,759.61,0,0,1-113.57,140.61C1343.86,1245.64,1307.41,1199.22,1283.42,1149.45Z"/>
      <polyline class="cls-10" points="1336.03 1204.13 1317.57 1208.15 1329.58 1224.03"/>
      <polyline class="cls-10" points="1359.83 1234.95 1341.77 1240.36 1355.08 1255.27"/>
      <polyline class="cls-10" points="1464.08 1175.51 1473.06 1191.38 1485.93 1176.13"/>
      <polyline class="cls-10" points="1462.98 1205.42 1444.19 1203.17 1449.77 1222.01"/>
    </g>
    <path class="cls-25" d="M1350.51,1522.58c-6.73,22-8.17,62-9.32,102.91,0,28.08,7,56.53,17.7,85.17-10.3,2.33-20.15,9.14-29.82,17.74a25.33,25.33,0,0,1,14.91,0l-14.91,9.76c8.9.31,19-2.19,29.82-6.21l-7.45,14.19c14.47-7.92,26.39-16.58,33.54-26.61,4-4.48,5.76-9.23,5.59-14.19-13.16-33.4-24.65-65-26.09-86.06-2.08-34.9-2.51-67.67,0-96.7Z"/>
    <path class="cls-26" d="M1437,1522.58c8.07,35.94,12.46,70.67,9.32,102.91,4.09,23.18-5.26,53.37-17.71,85.17,10.31,2.33,20.16,9.14,29.82,17.74a25.33,25.33,0,0,0-14.91,0l14.91,9.76c-8.9.31-19-2.19-29.82-6.21l7.46,14.19c-14.47-7.92-26.4-16.58-33.55-26.61-4-4.48-5.76-9.23-5.59-14.19,13.16-33.4,24.65-65,26.09-86.06,2.09-34.9,2.51-67.67,0-96.7Z"/>
    <ellipse class="cls-6" cx="1290.39" cy="1354.58" rx="88.97" ry="84.7"/>
    <g>
      <ellipse class="cls-7" cx="1290.39" cy="1353.54" rx="57.24" ry="54.5"/>
      <ellipse class="cls-8" cx="1326.74" cy="1363.82" rx="20.75" ry="19.76"/>
    </g>
  </g>
  <g>
    <ellipse class="cls-27" cx="1761.52" cy="928.68" rx="13.72" ry="13.07"/>
    <g>
      <path class="cls-28" d="M2072.74,1095c13.86,7.24,84-143.53,71.1-150.18.85,8.85-90.66,149.07-91.94,139.25Z"/>
      <ellipse class="cls-29" cx="2147.27" cy="941.75" rx="13.72" ry="13.07"/>
    </g>
    <path class="cls-30" d="M1804,1091.33c-15.07,4.56-53.4-156.24-39.41-160.4-2.63,8.53,58.83,162.89,62.07,153.49Z"/>
    <ellipse class="cls-31" cx="1937.92" cy="1290.06" rx="250" ry="238.01"/>
    <ellipse class="cls-6" cx="2046.9" cy="1352.95" rx="88.97" ry="84.7"/>
    <g>
      <ellipse class="cls-7" cx="2046.19" cy="1346.98" rx="57.24" ry="54.5"/>
      <ellipse class="cls-8" cx="2084.03" cy="1344.58" rx="20.75" ry="19.76"/>
    </g>
    <g>
      <path class="cls-9" d="M1829,1149.45c63.34,8.13,137.5,6.82,218,0a759.15,759.15,0,0,1-113.56,140.61C1889.39,1245.64,1852.94,1199.22,1829,1149.45Z"/>
      <polyline class="cls-10" points="1881.56 1204.13 1863.1 1208.15 1875.11 1224.03"/>
      <polyline class="cls-10" points="1905.36 1234.95 1887.3 1240.36 1900.61 1255.27"/>
      <polyline class="cls-10" points="2009.6 1175.51 2018.59 1191.38 2031.46 1176.13"/>
      <polyline class="cls-10" points="2008.51 1205.42 1989.72 1203.17 1995.29 1222.01"/>
    </g>
    <path class="cls-32" d="M1896,1522.58c-6.72,22-8.16,62-9.31,102.91,0,28.08,7,56.53,17.7,85.17-10.3,2.33-20.15,9.14-29.82,17.74a25.33,25.33,0,0,1,14.91,0l-14.91,9.76c8.9.31,19-2.19,29.82-6.21l-7.45,14.19c14.47-7.92,26.39-16.58,33.54-26.61,4-4.48,5.76-9.23,5.59-14.19-13.16-33.4-24.65-65-26.09-86.06-2.08-34.9-2.51-67.67,0-96.7Z"/>
    <path class="cls-33" d="M1982.54,1522.58c8.07,35.94,12.45,70.67,9.32,102.91,4.09,23.18-5.26,53.37-17.71,85.17,10.31,2.33,20.16,9.14,29.82,17.74a25.33,25.33,0,0,0-14.91,0l14.91,9.76c-8.9.31-19-2.19-29.82-6.21l7.46,14.19c-14.47-7.92-26.4-16.58-33.55-26.61-4-4.48-5.76-9.23-5.59-14.19,13.16-33.4,24.65-65,26.09-86.06,2.09-34.9,2.51-67.67,0-96.7Z"/>
    <ellipse class="cls-6" cx="1833.79" cy="1355.89" rx="88.97" ry="84.7"/>
    <g>
      <ellipse class="cls-7" cx="1833.08" cy="1349.92" rx="57.24" ry="54.5"/>
      <ellipse class="cls-8" cx="1870.91" cy="1347.52" rx="20.75" ry="19.76"/>
    </g>
  </g>
  <g>
    <ellipse class="cls-34" cx="2288.51" cy="928.68" rx="13.72" ry="13.07"/>
    <g>
      <path class="cls-35" d="M2599.73,1095c13.86,7.24,84-143.53,71.1-150.18.85,8.85-90.66,149.07-91.94,139.25Z"/>
      <ellipse class="cls-36" cx="2674.27" cy="941.75" rx="13.72" ry="13.07"/>
    </g>
    <path class="cls-37" d="M2330.94,1091.33c-15.07,4.56-53.4-156.24-39.41-160.4-2.63,8.53,58.83,162.89,62.07,153.49Z"/>
    <ellipse class="cls-38" cx="2464.92" cy="1290.06" rx="250" ry="238.01"/>
    <ellipse class="cls-6" cx="2573.89" cy="1352.95" rx="88.97" ry="84.7"/>
    <g>
      <ellipse class="cls-7" cx="2573.23" cy="1347.19" rx="57.24" ry="54.5"/>
      <ellipse class="cls-8" cx="2608.4" cy="1333.7" rx="20.75" ry="19.76"/>
    </g>
    <g>
      <path class="cls-9" d="M2355.94,1149.45c63.34,8.13,137.5,6.82,217.95,0a759.15,759.15,0,0,1-113.56,140.61C2416.38,1245.64,2379.93,1199.22,2355.94,1149.45Z"/>
      <polyline class="cls-10" points="2408.55 1204.13 2390.09 1208.15 2402.1 1224.03"/>
      <polyline class="cls-10" points="2432.35 1234.95 2414.29 1240.36 2427.6 1255.27"/>
      <polyline class="cls-10" points="2536.59 1175.51 2545.58 1191.38 2558.45 1176.13"/>
      <polyline class="cls-10" points="2535.49 1205.42 2516.71 1203.17 2522.28 1222.01"/>
    </g>
    <path class="cls-39" d="M2423,1522.58c-6.72,22-8.16,62-9.31,102.91.05,28.08,7,56.53,17.7,85.17-10.3,2.33-20.15,9.14-29.82,17.74a25.33,25.33,0,0,1,14.91,0l-14.91,9.76c8.9.31,19-2.19,29.82-6.21l-7.45,14.19c14.47-7.92,26.39-16.58,33.54-26.61,4-4.48,5.76-9.23,5.59-14.19-13.16-33.4-24.65-65-26.09-86.06-2.08-34.9-2.51-67.67,0-96.7Z"/>
    <path class="cls-40" d="M2509.53,1522.58c8.07,35.94,12.45,70.67,9.32,102.91,4.09,23.18-5.26,53.37-17.71,85.17,10.31,2.33,20.16,9.14,29.82,17.74a25.33,25.33,0,0,0-14.91,0l14.91,9.76c-8.9.31-19-2.19-29.82-6.21l7.46,14.19c-14.47-7.92-26.4-16.58-33.55-26.61-4-4.48-5.76-9.23-5.59-14.19,13.16-33.4,24.65-65,26.09-86.06,2.09-34.9,2.51-67.67,0-96.7Z"/>
    <ellipse class="cls-6" cx="2365.93" cy="1361.94" rx="88.97" ry="84.7"/>
    <g>
      <ellipse class="cls-7" cx="2365.27" cy="1356.18" rx="57.24" ry="54.5"/>
      <ellipse class="cls-8" cx="2400.44" cy="1342.69" rx="20.75" ry="19.76"/>
    </g>
  </g>
  <g>
    <ellipse class="cls-41" cx="2843.43" cy="928.68" rx="13.72" ry="13.07"/>
    <g>
      <path class="cls-42" d="M3154.65,1095c13.86,7.24,84-143.53,71.09-150.18.86,8.85-90.65,149.07-91.93,139.25Z"/>
      <ellipse class="cls-43" cx="3229.18" cy="941.75" rx="13.72" ry="13.07"/>
    </g>
    <path class="cls-44" d="M2885.85,1091.33c-15.06,4.56-53.4-156.24-39.4-160.4-2.63,8.53,58.83,162.89,62.07,153.49Z"/>
    <ellipse class="cls-45" cx="3019.83" cy="1290.06" rx="250" ry="238.01"/>
    <ellipse class="cls-6" cx="3128.81" cy="1352.95" rx="88.97" ry="84.7"/>
    <g>
      <ellipse class="cls-7" cx="3128.44" cy="1347.52" rx="57.24" ry="54.5"/>
      <ellipse class="cls-8" cx="3148.18" cy="1316.7" rx="20.75" ry="19.76"/>
    </g>
    <g>
      <path class="cls-9" d="M2910.85,1149.45c63.35,8.13,137.5,6.82,218,0a759.56,759.56,0,0,1-113.56,140.61C2971.29,1245.64,2934.84,1199.22,2910.85,1149.45Z"/>
      <polyline class="cls-10" points="2963.46 1204.13 2945 1208.15 2957.01 1224.03"/>
      <polyline class="cls-10" points="2987.26 1234.95 2969.2 1240.36 2982.52 1255.27"/>
      <polyline class="cls-10" points="3091.51 1175.51 3100.49 1191.38 3113.37 1176.13"/>
      <polyline class="cls-10" points="3090.41 1205.42 3071.62 1203.17 3077.2 1222.01"/>
    </g>
    <path class="cls-46" d="M2977.94,1522.58c-6.72,22-8.16,62-9.32,102.91.05,28.08,7,56.53,17.71,85.17-10.31,2.33-20.16,9.14-29.82,17.74a25.33,25.33,0,0,1,14.91,0l-14.91,9.76c8.9.31,19-2.19,29.82-6.21l-7.46,14.19c14.47-7.92,26.4-16.58,33.55-26.61,4-4.48,5.76-9.23,5.59-14.19-13.16-33.4-24.65-65-26.09-86.06-2.09-34.9-2.51-67.67,0-96.7Z"/>
    <path class="cls-47" d="M3064.45,1522.58c8.06,35.94,12.45,70.67,9.31,102.91,4.1,23.18-5.25,53.37-17.7,85.17,10.3,2.33,20.15,9.14,29.82,17.74a25.33,25.33,0,0,0-14.91,0l14.91,9.76c-8.9.31-19-2.19-29.82-6.21l7.45,14.19c-14.47-7.92-26.39-16.58-33.54-26.61-4-4.48-5.76-9.23-5.59-14.19,13.16-33.4,24.65-65,26.09-86.06,2.08-34.9,2.51-67.67,0-96.7Z"/>
    <ellipse class="cls-6" cx="2918.67" cy="1356.81" rx="88.97" ry="84.7"/>
    <g>
      <ellipse class="cls-7" cx="2918.3" cy="1351.39" rx="57.24" ry="54.5"/>
      <ellipse class="cls-8" cx="2938.04" cy="1320.57" rx="20.75" ry="19.76"/>
    </g>
  </g>
  <g>
    <ellipse class="cls-48" cx="3384.63" cy="928.68" rx="13.72" ry="13.07"/>
    <g>
      <path class="cls-49" d="M3695.85,1095c13.86,7.24,84-143.53,71.1-150.18.85,8.85-90.66,149.07-91.94,139.25Z"/>
      <ellipse class="cls-50" cx="3770.39" cy="941.75" rx="13.72" ry="13.07"/>
    </g>
    <path class="cls-51" d="M3427.06,1091.33c-15.07,4.56-53.4-156.24-39.41-160.4-2.63,8.53,58.83,162.89,62.07,153.49Z"/>
    <ellipse class="cls-52" cx="3561.04" cy="1290.06" rx="250" ry="238.01"/>
    <ellipse class="cls-6" cx="3670.01" cy="1352.95" rx="88.97" ry="84.7"/>
    <g>
      <ellipse class="cls-7" cx="3669.98" cy="1347.61" rx="57.24" ry="54.5"/>
      <ellipse class="cls-8" cx="3671.57" cy="1311.55" rx="20.75" ry="19.76"/>
    </g>
    <g>
      <path class="cls-9" d="M3452.06,1149.45c63.34,8.13,137.5,6.82,218,0a759.15,759.15,0,0,1-113.56,140.61C3512.5,1245.64,3476.05,1199.22,3452.06,1149.45Z"/>
      <polyline class="cls-10" points="3504.67 1204.13 3486.21 1208.15 3498.22 1224.03"/>
      <polyline class="cls-10" points="3528.47 1234.95 3510.41 1240.36 3523.72 1255.27"/>
      <polyline class="cls-10" points="3632.72 1175.51 3641.7 1191.38 3654.57 1176.13"/>
      <polyline class="cls-10" points="3631.61 1205.42 3612.83 1203.17 3618.4 1222.01"/>
    </g>
    <path class="cls-53" d="M3519.14,1522.58c-6.72,22-8.16,62-9.31,102.91.05,28.08,7,56.53,17.7,85.17-10.3,2.33-20.15,9.14-29.82,17.74a25.33,25.33,0,0,1,14.91,0l-14.91,9.76c8.9.31,19-2.19,29.82-6.21l-7.45,14.19c14.47-7.92,26.39-16.58,33.54-26.61,4-4.48,5.76-9.23,5.59-14.19-13.16-33.4-24.65-65-26.09-86.06-2.08-34.9-2.51-67.67,0-96.7Z"/>
    <path class="cls-54" d="M3605.65,1522.58c8.07,35.94,12.45,70.67,9.32,102.91,4.09,23.18-5.26,53.37-17.71,85.17,10.31,2.33,20.16,9.14,29.82,17.74a25.33,25.33,0,0,0-14.91,0l14.91,9.76c-8.9.31-19-2.19-29.82-6.21l7.46,14.19c-14.47-7.92-26.4-16.58-33.55-26.61-4-4.48-5.76-9.23-5.59-14.19,13.16-33.4,24.65-65,26.09-86.06,2.09-34.9,2.51-67.67,0-96.7Z"/>
    <ellipse class="cls-6" cx="3452.06" cy="1356.02" rx="88.97" ry="84.7"/>
    <g>
      <ellipse class="cls-7" cx="3452.03" cy="1350.69" rx="57.24" ry="54.5"/>
      <ellipse class="cls-8" cx="3453.61" cy="1314.62" rx="20.75" ry="19.76"/>
    </g>
  </g>
  <g>
    <g>
      <path class="cls-55" d="M399.8,1957.09c13.29,7.29,80.56-144.62,68.2-151.32.82,8.92-87,150.2-88.19,140.31Z"/>
      <circle class="cls-56" cx="471.3" cy="1802.71" r="13.16"/>
    </g>
    <path class="cls-57" d="M142,1953.42C127.5,1958,90.72,1796,104.14,1791.8c-2.52,8.6,56.44,164.13,59.54,154.66Z"/>
    <circle class="cls-58" cx="101.49" cy="1788.16" r="13.16"/>
    <circle class="cls-59" cx="270.47" cy="2153.66" r="239.82"/>
    <circle class="cls-6" cx="173.67" cy="2217.02" r="85.34"/>
    <circle class="cls-7" cx="161.09" cy="2204.44" r="42.33"/>
    <circle class="cls-8" cx="173.47" cy="2221.06" r="19.91"/>
    <g>
      <path class="cls-9" d="M165.93,2012c60.76,8.2,131.9,6.87,209.08,0a759.47,759.47,0,0,1-108.94,141.68C223.91,2108.91,188.94,2062.13,165.93,2012Z"/>
      <polyline class="cls-10" points="216.4 2067.08 198.69 2071.13 210.21 2087.13"/>
      <polyline class="cls-10" points="239.23 2098.13 221.9 2103.59 234.67 2118.61"/>
      <polyline class="cls-10" points="339.23 2038.24 347.85 2054.23 360.2 2038.86"/>
      <polyline class="cls-10" points="338.18 2068.38 320.15 2066.12 325.5 2085.09"/>
    </g>
    <path class="cls-60" d="M230.28,2388c-6.45,22.15-7.83,62.42-8.94,103.69,0,28.3,6.73,57,17,85.82-9.89,2.35-19.33,9.21-28.61,17.87a23.3,23.3,0,0,1,14.31,0l-14.31,9.84c8.54.31,18.26-2.21,28.61-6.26l-7.15,14.3c13.88-8,25.32-16.71,32.18-26.81a20.43,20.43,0,0,0,5.36-14.31c-12.62-33.64-23.64-65.51-25-86.7-2-35.17-2.4-68.19,0-97.44Z"/>
    <path class="cls-61" d="M313.27,2388c7.74,36.21,12,71.2,8.94,103.69,3.92,23.36-5,53.77-17,85.82,9.89,2.35,19.33,9.21,28.61,17.87a23.3,23.3,0,0,0-14.31,0l14.31,9.84c-8.54.31-18.26-2.21-28.61-6.26l7.15,14.3c-13.88-8-25.32-16.71-32.18-26.81a20.43,20.43,0,0,1-5.36-14.31c12.62-33.64,23.65-65.51,25-86.7,2-35.17,2.4-68.19,0-97.44Z"/>
    <line class="cls-62" x1="88.01" y1="2101.09" x2="243.84" y2="2223.13"/>
    <circle class="cls-6" cx="360.04" cy="2219.74" r="85.34"/>
    <circle class="cls-7" cx="372.62" cy="2207.16" r="42.33"/>
    <circle class="cls-8" cx="360.24" cy="2223.77" r="19.91"/>
    <line class="cls-62" x1="445.7" y1="2103.8" x2="289.87" y2="2225.84"/>
  </g>
  <g>
    <g>
      <path class="cls-63" d="M955.77,1957.09c13.3,7.29,80.56-144.62,68.2-151.32.82,8.92-87,150.2-88.19,140.31Z"/>
      <circle class="cls-64" cx="1027.27" cy="1802.71" r="13.16"/>
    </g>
    <path class="cls-65" d="M697.92,1953.42c-14.45,4.6-51.23-157.42-37.81-161.62-2.52,8.6,56.44,164.13,59.55,154.66Z"/>
    <circle class="cls-66" cx="657.46" cy="1788.16" r="13.16"/>
    <circle class="cls-67" cx="826.44" cy="2153.66" r="239.82"/>
    <circle class="cls-6" cx="729.64" cy="2217.02" r="85.34"/>
    <circle class="cls-7" cx="717.06" cy="2204.44" r="42.33"/>
    <circle class="cls-8" cx="749.35" cy="2217.02" r="19.91"/>
    <path class="cls-68" d="M786.25,2388c-6.45,22.15-7.83,62.42-8.93,103.69,0,28.3,6.72,57,17,85.82-9.89,2.35-19.33,9.21-28.61,17.87a23.3,23.3,0,0,1,14.31,0l-14.31,9.84c8.54.31,18.26-2.21,28.61-6.26l-7.15,14.3c13.88-8,25.32-16.71,32.18-26.81a20.38,20.38,0,0,0,5.36-14.31c-12.62-33.64-23.64-65.51-25-86.7-2-35.17-2.4-68.19,0-97.44Z"/>
    <path class="cls-69" d="M869.24,2388c7.74,36.21,12,71.2,8.94,103.69,3.92,23.36-5,53.77-17,85.82,9.89,2.35,19.34,9.21,28.61,17.87a23.3,23.3,0,0,0-14.31,0l14.31,9.84c-8.54.31-18.25-2.21-28.61-6.26l7.15,14.3c-13.88-8-25.32-16.71-32.18-26.81a20.43,20.43,0,0,1-5.36-14.31c12.62-33.64,23.65-65.51,25-86.7,2-35.17,2.41-68.19,0-97.44Z"/>
    <line class="cls-62" x1="643.98" y1="2101.09" x2="799.81" y2="2223.13"/>
    <circle class="cls-6" cx="916.01" cy="2219.74" r="85.34"/>
    <circle class="cls-7" cx="928.59" cy="2207.16" r="42.33"/>
    <circle class="cls-8" cx="896.3" cy="2217.36" r="19.91"/>
    <line class="cls-62" x1="1001.67" y1="2103.8" x2="845.84" y2="2225.84"/>
    <line class="cls-62" x1="666.16" y1="2260.17" x2="805.54" y2="2221.76"/>
  </g>
  <g>
    <g>
      <path class="cls-70" d="M1488.94,2016.4c13.29,7.29,80.56-144.63,68.2-151.33.82,8.92-87,150.2-88.2,140.31Z"/>
      <circle class="cls-71" cx="1560.44" cy="1862.01" r="13.16"/>
    </g>
    <path class="cls-72" d="M1231.09,2012.73c-14.46,4.59-51.23-157.43-37.81-161.62-2.52,8.59,56.44,164.13,59.54,154.66Z"/>
    <circle class="cls-73" cx="1363.96" cy="2218.34" r="239.82"/>
    <path class="cls-74" d="M1270.63,2388.41c-8.5,21.44-13.66,61.41-18.63,102.39-2.61,28.17,1.35,57.34,8.86,87-10.07,1.42-20.12,7.36-30.16,15.11a23.2,23.2,0,0,1,14.24,1.35l-15.16,8.44c8.47,1.11,18.37-.48,29.06-3.54l-8.46,13.57c14.57-6.65,26.78-14.26,34.56-23.68a20.39,20.39,0,0,0,6.68-13.74c-9.41-34.68-17.4-67.44-16.78-88.67,1.31-35.2,4-68.12,9.14-97Z"/>
    <path class="cls-75" d="M1447.19,2388c7.74,36.21,12,71.2,8.94,103.69,3.92,23.36-5,53.77-17,85.82,9.89,2.35,19.34,9.21,28.61,17.87a23.27,23.27,0,0,0-14.3,0l14.3,9.84c-8.54.31-18.25-2.21-28.61-6.26l7.15,14.3c-13.88-8-25.32-16.71-32.18-26.81a20.43,20.43,0,0,1-5.36-14.31c12.63-33.64,23.65-65.51,25-86.7,2-35.17,2.41-68.19,0-97.44Z"/>
    <circle class="cls-76" cx="1192.64" cy="1856.23" r="13.16"/>
    <g>
      <circle class="cls-6" cx="1455.72" cy="2284.88" r="85.34"/>
      <circle class="cls-7" cx="1472.12" cy="2277.99" r="42.33"/>
      <circle class="cls-8" cx="1439.47" cy="2272" r="19.91"/>
      <line class="cls-62" x1="1578.84" y1="2209.92" x2="1388.44" y2="2264.01"/>
      <line class="cls-62" x1="1395.88" y1="2257.34" x2="1486.9" y2="2353.79"/>
    </g>
    <g>
      <circle class="cls-6" cx="1271.7" cy="2279.36" r="85.34"/>
      <circle class="cls-7" cx="1255.3" cy="2272.47" r="42.33"/>
      <circle class="cls-8" cx="1287.95" cy="2266.48" r="19.91"/>
      <line class="cls-62" x1="1148.58" y1="2204.4" x2="1338.98" y2="2258.49"/>
      <line class="cls-62" x1="1331.54" y1="2251.83" x2="1240.52" y2="2348.27"/>
    </g>
  </g>
  <g>
    <g>
      <path class="cls-77" d="M2591.42,2016.4c13.3,7.29,80.57-144.63,68.2-151.33.83,8.92-87,150.2-88.19,140.31Z"/>
      <circle class="cls-78" cx="2662.92" cy="1862.01" r="13.16"/>
    </g>
    <path class="cls-79" d="M2333.57,2012.73c-14.45,4.59-51.22-157.43-37.8-161.62-2.52,8.59,56.43,164.13,59.54,154.66Z"/>
    <circle class="cls-80" cx="2466.44" cy="2218.34" r="239.82"/>
    <path class="cls-81" d="M2373.12,2388.41c-8.5,21.44-13.66,61.41-18.63,102.39-2.61,28.17,1.35,57.34,8.85,87-10.06,1.42-20.11,7.36-30.15,15.11a23.2,23.2,0,0,1,14.24,1.35l-15.17,8.44c8.47,1.11,18.38-.48,29.07-3.54l-8.46,13.57c14.57-6.65,26.78-14.26,34.55-23.68a20.35,20.35,0,0,0,6.68-13.74c-9.41-34.68-17.39-67.44-16.78-88.67,1.31-35.2,4-68.12,9.15-97Z"/>
    <path class="cls-82" d="M2549.68,2388c7.74,36.21,11.94,71.2,8.93,103.69,3.93,23.36-5,53.77-17,85.82,9.89,2.35,19.33,9.21,28.61,17.87a23.3,23.3,0,0,0-14.31,0l14.31,9.84c-8.54.31-18.26-2.21-28.61-6.26l7.15,14.3c-13.88-8-25.32-16.71-32.18-26.81a20.38,20.38,0,0,1-5.36-14.31c12.62-33.64,23.64-65.51,25-86.7,2-35.17,2.4-68.19,0-97.44Z"/>
    <circle class="cls-83" cx="2295.13" cy="1856.23" r="13.16"/>
    <g>
      <circle class="cls-6" cx="2558.2" cy="2284.88" r="85.34"/>
      <circle class="cls-7" cx="2574.61" cy="2277.99" r="42.33"/>
      <circle class="cls-8" cx="2541.96" cy="2272" r="19.91"/>
      <line class="cls-62" x1="2681.33" y1="2209.92" x2="2490.93" y2="2264.01"/>
      <line class="cls-62" x1="2498.37" y1="2257.34" x2="2589.39" y2="2353.79"/>
    </g>
    <g>
      <circle class="cls-6" cx="2374.19" cy="2279.36" r="85.34"/>
      <circle class="cls-7" cx="2357.79" cy="2272.47" r="42.33"/>
      <circle class="cls-8" cx="2390.44" cy="2266.48" r="19.91"/>
      <line class="cls-62" x1="2251.06" y1="2204.4" x2="2441.46" y2="2258.49"/>
      <line class="cls-62" x1="2434.03" y1="2251.83" x2="2343" y2="2348.27"/>
    </g>
  </g>
  <g>
    <g>
      <path class="cls-84" d="M161.7,2856.75c-13,7.14-78.9-141.65-66.79-148.2-.8,8.73,85.17,147.1,86.37,137.41Z"/>
      <circle class="cls-85" cx="91.68" cy="2705.55" r="12.89"/>
    </g>
    <path class="cls-86" d="M414.23,2853.15c14.16,4.51,50.17-154.17,37-158.28,2.47,8.42-55.27,160.74-58.32,151.47Z"/>
    <circle class="cls-87" cx="453.85" cy="2691.31" r="12.89"/>
    <circle class="cls-88" cx="288.36" cy="3049.26" r="234.87"/>
    <circle class="cls-6" cx="383.16" cy="3111.32" r="83.58"/>
    <circle class="cls-6" cx="185.98" cy="3111.32" r="83.58"/>
    <g>
      <path class="cls-9" d="M174.73,2996.23c61-52.15,130.74-52.88,204.69,5.81A744.13,744.13,0,0,0,276.7,2860.31C234.18,2903,198.65,2947.77,174.73,2996.23Z"/>
      <polyline class="cls-10" points="225.67 2943.69 208.44 2939.24 220.16 2923.89"/>
      <polyline class="cls-10" points="248.88 2913.93 232.07 2908.1 244.99 2893.75"/>
      <polyline class="cls-10" points="345.12 2975.34 354 2959.92 365.66 2975.31"/>
      <polyline class="cls-10" points="344.92 2945.81 327.21 2947.52 332.98 2929.09"/>
    </g>
    <path class="cls-89" d="M327.72,3278.72c6.32,21.68,7.67,61.13,8.75,101.55,0,27.71-6.59,55.78-16.63,84,9.68,2.31,18.93,9,28,17.51a22.68,22.68,0,0,0-14,0l14,9.63c-8.36.3-17.87-2.16-28-6.13l7,14c-13.59-7.82-24.8-16.37-31.51-26.26a20,20,0,0,1-5.26-14c12.37-32.95,23.16-64.16,24.52-84.92,2-34.44,2.35-66.78,0-95.42Z"/>
    <path class="cls-90" d="M246.45,3278.72c-7.58,35.46-11.7,69.73-8.76,101.55-3.84,22.87,4.94,52.66,16.64,84-9.68,2.31-18.94,9-28,17.51a22.72,22.72,0,0,1,14,0l-14,9.63c8.36.3,17.88-2.16,28-6.13l-7,14c13.6-7.82,24.8-16.37,31.52-26.26a19.93,19.93,0,0,0,5.25-14c-12.36-32.95-23.16-64.16-24.51-84.92-2-34.44-2.36-66.78,0-95.42Z"/>
    <path class="cls-10" d="M333.23,3138.56c-1.87,7.17,80.48,28.67,82.35,21.5,12.62-48.34,4.42-92.34-18.32-98.28S345.85,3090.22,333.23,3138.56Z"/>
    <circle class="cls-8" cx="375.06" cy="3135.57" r="26.76"/>
    <path class="cls-10" d="M149.89,3160.6c2.3,7.05,83.22-19.37,80.91-26.42-15.5-47.49-46.18-80.07-68.53-72.78S134.39,3113.11,149.89,3160.6Z"/>
    <circle class="cls-8" cx="183.47" cy="3135.48" r="26.76"/>
  </g>
  <g>
    <g>
      <path class="cls-91" d="M943.49,2892.52c13,7.14,78.9-141.64,66.79-148.2.8,8.73-85.17,147.1-86.37,137.41Z"/>
      <circle class="cls-92" cx="1013.51" cy="2741.32" r="12.89"/>
    </g>
    <path class="cls-93" d="M691,2888.93c-14.15,4.5-50.17-154.18-37-158.29-2.47,8.42,55.27,160.75,58.31,151.47Z"/>
    <circle class="cls-94" cx="651.34" cy="2727.08" r="12.89"/>
    <circle class="cls-95" cx="816.83" cy="3085.03" r="234.87"/>
    <circle class="cls-6" cx="722.03" cy="3147.09" r="83.58"/>
    <circle class="cls-6" cx="919.21" cy="3147.09" r="83.58"/>
    <g>
      <path class="cls-9" d="M930.46,3032c-61-52.14-130.74-52.87-204.69,5.81a743.74,743.74,0,0,1,102.72-141.72C871,2938.72,906.54,2983.55,930.46,3032Z"/>
      <polyline class="cls-10" points="879.52 2979.46 896.75 2975.01 885.02 2959.67"/>
      <polyline class="cls-10" points="856.31 2949.7 873.12 2943.88 860.2 2929.53"/>
      <polyline class="cls-10" points="760.07 3011.11 751.19 2995.7 739.53 3011.09"/>
      <polyline class="cls-10" points="760.27 2981.58 777.97 2983.29 772.21 2964.86"/>
    </g>
    <path class="cls-96" d="M723.18,3269c-6.32,21.69-7.67,61.13-8.75,101.55,0,27.71,6.59,55.78,16.63,84-9.68,2.31-18.93,9-28,17.51a22.86,22.86,0,0,1,14,0l-14,9.63c8.37.31,17.88-2.16,28-6.12l-7,14c13.59-7.82,24.8-16.36,31.51-26.26a19.92,19.92,0,0,0,5.25-14c-12.36-32.95-23.15-64.16-24.51-84.92-2-34.44-2.35-66.78,0-95.42Z"/>
    <path class="cls-97" d="M898.12,3269c7.58,35.47,11.7,69.73,8.75,101.55,3.85,22.88-4.93,52.66-16.63,84,9.68,2.31,18.93,9,28,17.51a22.83,22.83,0,0,0-14,0l14,9.63c-8.36.31-17.87-2.16-28-6.12l7,14c-13.59-7.82-24.8-16.36-31.51-26.26a20,20,0,0,1-5.26-14c12.37-32.95,23.16-64.16,24.52-84.92,2-34.44,2.35-66.78,0-95.42Z"/>
    <path class="cls-10" d="M772,3174.33c1.87,7.18-80.48,28.68-82.36,21.5-12.62-48.34-4.41-92.34,18.33-98.27S759.34,3126,772,3174.33Z"/>
    <circle class="cls-8" cx="730.13" cy="3171.34" r="26.76"/>
    <path class="cls-10" d="M955.3,3196.38c-2.31,7-83.22-19.37-80.92-26.42,15.51-47.49,46.19-80.08,68.54-72.78S970.8,3148.89,955.3,3196.38Z"/>
    <circle class="cls-8" cx="921.72" cy="3171.26" r="26.76"/>
  </g>
  <g>
    <g>
      <path class="cls-98" d="M1243.22,2861.42c-13,7.14-78.9-141.64-66.79-148.2-.8,8.73,85.17,147.1,86.37,137.41Z"/>
      <circle class="cls-99" cx="1173.2" cy="2710.22" r="12.89"/>
    </g>
    <path class="cls-100" d="M1495.76,2857.82c14.15,4.51,50.16-154.17,37-158.28,2.47,8.42-55.27,160.74-58.31,151.47Z"/>
    <circle class="cls-101" cx="1535.37" cy="2695.98" r="12.89"/>
    <circle class="cls-102" cx="1369.88" cy="3053.93" r="234.87"/>
    <circle class="cls-6" cx="1464.68" cy="3115.99" r="83.58"/>
    <circle class="cls-6" cx="1267.5" cy="3115.99" r="83.58"/>
    <g>
      <path class="cls-9" d="M1256.25,3000.9c61-52.15,130.74-52.88,204.69,5.81A744.13,744.13,0,0,0,1358.22,2865C1315.7,2907.62,1280.17,2952.45,1256.25,3000.9Z"/>
      <polyline class="cls-10" points="1307.19 2948.36 1289.96 2943.91 1301.69 2928.57"/>
      <polyline class="cls-10" points="1330.4 2918.6 1313.59 2912.78 1326.51 2898.43"/>
      <polyline class="cls-10" points="1426.64 2980.01 1435.52 2964.59 1447.18 2979.98"/>
      <polyline class="cls-10" points="1426.44 2950.48 1408.74 2952.19 1414.5 2933.76"/>
    </g>
    <path class="cls-103" d="M1409.24,3283.39c6.32,21.68,7.67,61.13,8.76,101.55,0,27.71-6.59,55.78-16.64,84,9.68,2.31,18.94,9,28,17.51a22.72,22.72,0,0,0-14,0l14,9.63c-8.36.3-17.88-2.16-28-6.13l7,14c-13.6-7.82-24.81-16.37-31.52-26.26a19.93,19.93,0,0,1-5.25-14c12.36-32.95,23.15-64.16,24.51-84.92,2-34.44,2.36-66.78,0-95.42Z"/>
    <path class="cls-104" d="M1328,3283.39c-7.58,35.46-11.7,69.73-8.76,101.55-3.84,22.87,4.94,52.66,16.64,84-9.68,2.31-18.94,9-28,17.51a22.72,22.72,0,0,1,14,0l-14,9.63c8.36.3,17.88-2.16,28-6.13l-7,14c13.6-7.82,24.81-16.37,31.52-26.26a19.93,19.93,0,0,0,5.25-14c-12.36-32.95-23.15-64.16-24.51-84.92-2-34.44-2.36-66.78,0-95.42Z"/>
    <path class="cls-10" d="M1414.75,3143.23c-1.87,7.17,80.48,28.67,82.36,21.5,12.62-48.34,4.41-92.34-18.33-98.28S1427.37,3094.89,1414.75,3143.23Z"/>
    <circle class="cls-8" cx="1456.58" cy="3140.24" r="26.76"/>
    <path class="cls-10" d="M1231.41,3165.27c2.31,7.05,83.22-19.37,80.92-26.41-15.51-47.5-46.19-80.08-68.54-72.79S1215.91,3117.78,1231.41,3165.27Z"/>
    <circle class="cls-8" cx="1264.99" cy="3140.16" r="26.76"/>
  </g>
  <g>
    <g>
      <path class="cls-105" d="M1788,2892.52c-13,7.14-78.9-141.64-66.79-148.2-.81,8.73,85.17,147.1,86.37,137.41Z"/>
      <circle class="cls-106" cx="1717.93" cy="2741.32" r="12.89"/>
    </g>
    <path class="cls-107" d="M2040.48,2888.93c14.15,4.5,50.17-154.18,37-158.29,2.47,8.42-55.28,160.75-58.32,151.47Z"/>
    <circle class="cls-108" cx="2080.1" cy="2727.08" r="12.89"/>
    <circle class="cls-109" cx="1914.61" cy="3085.03" r="234.87"/>
    <circle class="cls-6" cx="2009.41" cy="3147.09" r="83.58"/>
    <circle class="cls-6" cx="1812.22" cy="3147.09" r="83.58"/>
    <g>
      <path class="cls-9" d="M1801,3032c61-52.14,130.75-52.87,204.69,5.81A743.69,743.69,0,0,0,1903,2896.09C1860.43,2938.72,1824.9,2983.55,1801,3032Z"/>
      <polyline class="cls-10" points="1851.91 2979.46 1834.69 2975.01 1846.41 2959.67"/>
      <polyline class="cls-10" points="1875.13 2949.7 1858.32 2943.88 1871.24 2929.53"/>
      <polyline class="cls-10" points="1971.36 3011.11 1980.24 2995.7 1991.91 3011.09"/>
      <polyline class="cls-10" points="1971.17 2981.58 1953.46 2983.29 1959.23 2964.86"/>
    </g>
    <path class="cls-110" d="M2008.25,3269c6.32,21.69,7.68,61.13,8.76,101.55,0,27.71-6.59,55.78-16.64,84,9.69,2.31,18.94,9,28,17.51a22.86,22.86,0,0,0-14,0l14,9.63c-8.36.31-17.88-2.16-28-6.12l7,14c-13.6-7.82-24.8-16.36-31.52-26.26a20,20,0,0,1-5.25-14c12.36-32.95,23.16-64.16,24.51-84.92,2-34.44,2.36-66.78,0-95.42Z"/>
    <path class="cls-111" d="M1833.31,3269c-7.58,35.47-11.7,69.73-8.75,101.55-3.85,22.88,4.94,52.66,16.63,84-9.68,2.31-18.93,9-28,17.51a22.86,22.86,0,0,1,14,0l-14,9.63c8.36.31,17.87-2.16,28-6.12l-7,14c13.6-7.82,24.8-16.36,31.52-26.26a20,20,0,0,0,5.25-14c-12.37-32.95-23.16-64.16-24.51-84.92-2-34.44-2.36-66.78,0-95.42Z"/>
    <path class="cls-10" d="M1959.48,3174.33c-1.88,7.18,80.48,28.68,82.35,21.5,12.62-48.34,4.41-92.34-18.33-98.27S1972.09,3126,1959.48,3174.33Z"/>
    <circle class="cls-8" cx="2001.3" cy="3171.34" r="26.76"/>
    <path class="cls-10" d="M1776.14,3196.38c2.3,7,83.21-19.37,80.91-26.42-15.51-47.49-46.19-80.08-68.53-72.78S1760.63,3148.89,1776.14,3196.38Z"/>
    <circle class="cls-8" cx="1809.72" cy="3171.26" r="26.76"/>
  </g>
  <g>
    <g>
      <path class="cls-112" d="M419.82,211.77c13.92,7.47,84.34-148.18,71.4-155,.86,9.13-91.05,153.89-92.33,143.75Z"/>
      <ellipse class="cls-113" cx="494.67" cy="53.59" rx="13.78" ry="13.49"/>
    </g>
    <ellipse class="cls-114" cx="284.43" cy="413.16" rx="251.06" ry="245.71"/>
    <g>
      <path class="cls-115" d="M242.79,273c-15.13,4.71-53.63-161.29-39.58-165.59-2.64,8.81,59.08,168.16,62.34,158.46Z"/>
      <ellipse class="cls-116" cx="200.18" cy="103.21" rx="13.78" ry="13.49"/>
    </g>
    <ellipse class="cls-6" cx="393.87" cy="478.09" rx="89.35" ry="87.44"/>
    <g>
      <ellipse class="cls-7" cx="393.26" cy="471.51" rx="57.49" ry="56.26"/>
      <ellipse class="cls-8" cx="425.64" cy="491.14" rx="20.84" ry="20.4"/>
    </g>
    <g>
      <path class="cls-9" d="M419.79,250.45c59.61,23.3,118.77,133.77,65.59,165.77C454,361.23,430.38,306,419.79,250.45Z"/>
      <polyline class="cls-10" points="457 317.8 437.98 317.4 445.61 336.17"/>
      <polyline class="cls-10" points="472.27 354.34 453.29 355.45 462.43 373.56"/>
    </g>
    <path class="cls-117" d="M340.48,639.34c27.23,27,50.64,54.92,66.28,84.64,16.61,18,25.83,49.23,33.33,83.48,10.05-3.41,22.25-2.69,35.31-.32A24.4,24.4,0,0,0,462.78,815l18.16.62c-7.36,5-17.35,8.15-28.77,10.35l14.36,8.42c-16.75.75-31.76-.48-43.5-5.43-6-1.76-10.11-5-12.79-9.4-7.8-36-16-69.62-26.73-88.69-18-31.47-36.27-60.22-54.86-84.16Z"/>
    <path class="cls-118" d="M214,639.39c-12.36,36-27.25,69-47.3,96.06-8.94,22.63-33.25,44.75-61.11,66.76,7.65,7.23,12.49,18.22,16.22,30.7a24.44,24.44,0,0,0-12.88-7.48l7.63,16.14c-7.85-4.18-15.26-11.48-22.42-20.46l-1.2,16.34C84.67,823.16,79,809.5,78.24,797a20.51,20.51,0,0,1,2.81-15.41c29.32-23.06,56.26-45.39,68.82-63.34,20.58-30,38.57-58.85,52-85.88Z"/>
  </g>
  <g>
    <g>
      <path class="cls-119" d="M972.72,231.18c13.92,7.47,84.34-148.18,71.4-155,.86,9.14-91,153.89-92.33,143.76Z"/>
      <ellipse class="cls-120" cx="1047.57" cy="73" rx="13.78" ry="13.49"/>
    </g>
    <ellipse class="cls-121" cx="837.33" cy="432.58" rx="251.06" ry="245.71"/>
    <g>
      <path class="cls-122" d="M795.69,292.42c-15.13,4.71-53.63-161.3-39.58-165.59-2.64,8.8,59.09,168.16,62.34,158.46Z"/>
      <ellipse class="cls-123" cx="753.08" cy="122.63" rx="13.78" ry="13.49"/>
    </g>
    <ellipse class="cls-6" cx="946.78" cy="497.5" rx="89.35" ry="87.44"/>
    <g>
      <ellipse class="cls-7" cx="946.17" cy="490.93" rx="57.49" ry="56.26"/>
      <ellipse class="cls-8" cx="978.54" cy="510.55" rx="20.84" ry="20.4"/>
    </g>
    <g>
      <path class="cls-9" d="M972.69,269.87c59.61,23.29,118.77,133.76,65.59,165.76C1006.87,380.65,983.28,325.44,972.69,269.87Z"/>
      <polyline class="cls-10" points="1009.9 337.21 990.89 336.81 998.51 355.59"/>
      <polyline class="cls-10" points="1025.17 373.76 1006.19 374.86 1015.33 392.97"/>
    </g>
    <path class="cls-124" d="M909.17,651.21c32.18,21.17,60.8,43.95,82.18,70,19.95,14.41,35.33,43.2,49.65,75.31,9.16-5.3,21.26-7,34.54-7.2a24,24,0,0,0-10.76,10.19l17.92-2.94c-6.2,6.3-15.35,11.37-26.09,15.76l15.79,5.44c-16.26,4-31.22,5.72-43.73,3.16-6.2-.56-10.92-2.91-14.45-6.72-15-33.77-29.87-65.09-44.25-81.69-24.08-27.33-47.8-51.95-70.89-71.78Z"/>
    <path class="cls-125" d="M753.08,662.31c-23.82,29.94-49,56.3-77.1,75.34-16.08,18.48-46.5,31.48-80.23,43.23,4.77,9.3,5.63,21.23,4.93,34.22a24,24,0,0,0-9.63-11.22l1.74,17.7c-6-6.5-10.52-15.78-14.24-26.57l-6.65,15c-2.94-16.16-3.65-30.88-.17-42.92a20.76,20.76,0,0,1,7.86-13.63C615.06,741.23,648,728.88,666,716c29.53-21.6,56.28-43,78.11-64.2Z"/>
  </g>
  <g>
    <g>
      <path class="cls-126" d="M1494.5,201.2c14.19,7,78.6-151.17,65.4-157.55,1.21,9.1-85.08,157.13-86.75,147Z"/>
      <ellipse class="cls-127" cx="1563.23" cy="40.39" rx="13.78" ry="13.49"/>
    </g>
    <ellipse class="cls-128" cx="1366.91" cy="407.43" rx="251.06" ry="245.71"/>
    <g>
      <path class="cls-129" d="M1319.93,268.89c-14.93,5.27-59.76-159.21-45.89-164-2.3,8.9,65.48,165.88,68.36,156.06Z"/>
      <ellipse class="cls-130" cx="1270.85" cy="100.79" rx="13.78" ry="13.49"/>
    </g>
    <ellipse class="cls-6" cx="1478.77" cy="468.29" rx="89.35" ry="87.44"/>
    <g>
      <ellipse class="cls-7" cx="1477.91" cy="461.75" rx="57.49" ry="56.26"/>
      <ellipse class="cls-8" cx="1511.01" cy="480.17" rx="20.84" ry="20.4"/>
    </g>
    <g>
      <path class="cls-9" d="M1495.94,239.87c60.47,21.09,123.81,129.31,71.9,163.24C1534.34,349.32,1508.66,295,1495.94,239.87Z"/>
      <polyline class="cls-10" points="1535.71 305.8 1516.69 306.1 1525.03 324.58"/>
      <polyline class="cls-10" points="1552.37 341.76 1533.44 343.56 1543.27 361.32"/>
    </g>
    <path class="cls-131" d="M1363.42,626.05c13.26,35.66,22.68,70.57,24.25,104,7.45,23.15,2.54,55.28-5.21,89.49,10.59,1,21.38,6.61,32.24,14.09a24.78,24.78,0,0,0-14.83,2l16.26,8c-8.81,1.52-19.25.34-30.57-2.3l9.48,13.5c-15.54-6.14-28.67-13.38-37.24-22.66-4.67-4-7.07-8.65-7.63-13.76,8.23-35.92,15-69.82,13.43-91.53-3-36-7.36-69.53-14.08-98.87Z"/>
    <path class="cls-132" d="M1435.25,640c-22.66,30.78-46.85,58.05-74.17,78.11-15.36,19.05-45.26,33.16-78.51,46.14,5.12,9.12,6.44,21,6.23,34a24,24,0,0,0-10-10.86l2.42,17.63c-6.24-6.27-11.11-15.38-15.25-26l-6.07,15.27c-3.56-16-4.83-30.72-1.81-42.88a20.72,20.72,0,0,1,7.32-13.91c35-13.56,67.45-27.11,84.87-40.64,28.69-22.67,54.59-45.08,75.59-67Z"/>
  </g>
  <g>
    <g>
      <path class="cls-133" d="M2063.61,196.87c14.2,6.95,78.61-151.17,65.41-157.56,1.21,9.1-85.08,157.13-86.76,147.05Z"/>
      <ellipse class="cls-134" cx="2132.35" cy="36.05" rx="13.78" ry="13.49"/>
    </g>
    <ellipse class="cls-135" cx="1936.03" cy="403.09" rx="251.06" ry="245.71"/>
    <g>
      <path class="cls-136" d="M1889.05,264.56c-14.94,5.26-59.77-159.22-45.89-164-2.3,8.9,65.48,165.88,68.36,156.07Z"/>
      <ellipse class="cls-137" cx="1839.97" cy="96.45" rx="13.78" ry="13.49"/>
    </g>
    <ellipse class="cls-6" cx="2047.88" cy="463.95" rx="89.35" ry="87.44"/>
    <g>
      <ellipse class="cls-7" cx="2047.02" cy="457.41" rx="57.49" ry="56.26"/>
      <ellipse class="cls-8" cx="2080.13" cy="475.83" rx="20.84" ry="20.4"/>
    </g>
    <g>
      <path class="cls-9" d="M2065.06,235.53c60.46,21.09,123.81,129.31,71.9,163.24C2103.46,345,2077.77,290.68,2065.06,235.53Z"/>
      <polyline class="cls-10" points="2104.82 301.46 2085.81 301.76 2094.14 320.24"/>
      <polyline class="cls-10" points="2121.49 337.42 2102.56 339.22 2112.39 356.98"/>
    </g>
    <path class="cls-138" d="M1922.44,636.21c-1.86,37.9-7,73.66-18.7,105-2.28,24.17-19.49,51.94-40.15,80.56,9.37,4.92,17.1,14.19,24.16,25.2a24.66,24.66,0,0,0-14.47-3.75l11.84,13.49c-8.72-1.93-17.88-7-27.27-13.69l3.41,16c-11.92-11.55-21.16-23.19-25.4-35-2.71-5.49-3.1-10.66-1.6-15.57,21.78-30,41.46-58.71,48.54-79.34,11.43-34.31,20.68-66.91,26.07-96.51Z"/>
    <path class="cls-139" d="M2003,621.46c17.25,34,30.6,67.64,36,100.65,10,22.19,8.85,54.66,5,89.49,10.64-.17,22,4.24,33.66,10.48a24.68,24.68,0,0,0-14.51,3.64l17.06,6.12c-8.58,2.48-19.09,2.45-30.64,1.06l11,12.38c-16.15-4.4-30-10.16-39.6-18.44-5.1-3.5-8-7.83-9.15-12.84,4.07-36.6,7-71,2.87-92.42-7.1-35.41-15.26-68.29-25.29-96.71Z"/>
  </g>
  <g>
    <g>
      <path class="cls-140" d="M2580.76,211.77c13.92,7.47,84.34-148.18,71.4-155,.86,9.13-91,153.89-92.33,143.75Z"/>
      <ellipse class="cls-141" cx="2655.61" cy="53.59" rx="13.78" ry="13.49"/>
    </g>
    <ellipse class="cls-142" cx="2445.37" cy="413.16" rx="251.06" ry="245.71"/>
    <g>
      <path class="cls-143" d="M2403.73,273c-15.13,4.71-53.63-161.29-39.58-165.59-2.64,8.81,59.09,168.16,62.34,158.46Z"/>
      <ellipse class="cls-144" cx="2361.12" cy="103.21" rx="13.78" ry="13.49"/>
    </g>
    <ellipse class="cls-6" cx="2554.82" cy="478.09" rx="89.35" ry="87.44"/>
    <g>
      <ellipse class="cls-7" cx="2554.21" cy="471.51" rx="57.49" ry="56.26"/>
      <ellipse class="cls-8" cx="2586.58" cy="491.14" rx="20.84" ry="20.4"/>
    </g>
    <g>
      <path class="cls-9" d="M2580.73,250.45c59.61,23.3,118.77,133.77,65.59,165.77C2614.91,361.23,2591.32,306,2580.73,250.45Z"/>
      <polyline class="cls-10" points="2617.94 317.8 2598.93 317.4 2606.55 336.17"/>
      <polyline class="cls-10" points="2633.21 354.34 2614.23 355.45 2623.37 373.56"/>
    </g>
    <path class="cls-145" d="M2501.43,639.34c27.22,27,50.63,54.92,66.27,84.64,16.62,18,25.83,49.23,33.33,83.48,10-3.41,22.25-2.69,35.31-.32a24.44,24.44,0,0,0-12.62,7.88l18.16.62c-7.36,5-17.35,8.15-28.77,10.35l14.36,8.42c-16.74.75-31.75-.48-43.5-5.43-6-1.76-10.1-5-12.78-9.4-7.8-36-16-69.62-26.74-88.69-18-31.47-36.27-60.22-54.86-84.16Z"/>
    <path class="cls-146" d="M2374.9,639.39c-12.36,36-27.25,69-47.3,96.06-8.93,22.63-33.24,44.75-61.11,66.76,7.65,7.23,12.5,18.22,16.22,30.7a24.44,24.44,0,0,0-12.88-7.48l7.63,16.14c-7.85-4.18-15.26-11.48-22.42-20.46l-1.19,16.34c-8.24-14.29-13.89-28-14.67-40.44A20.51,20.51,0,0,1,2242,781.6c29.33-23.06,56.27-45.39,68.83-63.34,20.57-30,38.56-58.85,52-85.88Z"/>
  </g>
  <g>
    <rect class="cls-147" x="3284.83" y="-0.28" width="547.35" height="882.24"/>
    <rect class="cls-147" x="3284.73" y="881.99" width="547.35" height="882.24"/>
    <g>
      <rect class="cls-147" x="3284.72" y="1763.53" width="547.35" height="882.24"/>
      <rect class="cls-147" x="3284.62" y="2645.8" width="547.35" height="882.24"/>
    </g>
  </g>
  <g>
    <g>
      <rect class="cls-147" x="2189.84" y="-0.21" width="547.35" height="882.24"/>
      <rect class="cls-147" x="2189.75" y="882.06" width="547.35" height="882.24"/>
      <g>
        <rect class="cls-147" x="2189.73" y="1763.61" width="547.35" height="882.24"/>
        <rect class="cls-147" x="2189.64" y="2645.88" width="547.35" height="882.24"/>
      </g>
    </g>
    <g>
      <rect class="cls-147" x="2737.09" y="-0.21" width="547.35" height="882.24"/>
      <rect class="cls-147" x="2737" y="882.06" width="547.35" height="882.24"/>
      <g>
        <rect class="cls-147" x="2736.98" y="1763.6" width="547.35" height="882.24"/>
        <rect class="cls-147" x="2736.89" y="2645.87" width="547.35" height="882.24"/>
      </g>
    </g>
  </g>
  <g>
    <g>
      <g>
        <rect class="cls-147" x="1095.09" y="-0.28" width="547.35" height="882.24"/>
        <rect class="cls-147" x="1094.99" y="881.99" width="547.35" height="882.24"/>
        <g>
          <rect class="cls-147" x="1094.98" y="1763.53" width="547.35" height="882.24"/>
          <rect class="cls-147" x="1094.88" y="2645.8" width="547.35" height="882.24"/>
        </g>
      </g>
      <g>
        <rect class="cls-147" x="1642.34" y="-0.29" width="547.35" height="882.24"/>
        <rect class="cls-147" x="1642.24" y="881.98" width="547.35" height="882.24"/>
        <g>
          <rect class="cls-147" x="1642.23" y="1763.53" width="547.35" height="882.24"/>
          <rect class="cls-147" x="1642.13" y="2645.8" width="547.35" height="882.24"/>
        </g>
      </g>
    </g>
    <g>
      <g>
        <rect class="cls-147" x="0.1" y="-0.21" width="547.35" height="882.24"/>
        <rect class="cls-147" x="0.01" y="882.06" width="547.35" height="882.24"/>
        <g>
          <rect class="cls-147" x="-0.01" y="1763.6" width="547.35" height="882.24"/>
          <rect class="cls-147" x="-0.1" y="2645.88" width="547.35" height="882.24"/>
        </g>
      </g>
      <g>
        <rect class="cls-147" x="547.35" y="-0.21" width="547.35" height="882.24"/>
        <rect class="cls-147" x="547.26" y="882.06" width="547.35" height="882.24"/>
        <g>
          <rect class="cls-147" x="547.24" y="1763.6" width="547.35" height="882.24"/>
          <rect class="cls-147" x="547.14" y="2645.87" width="547.35" height="882.24"/>
        </g>
      </g>
    </g>
  </g>
  <g>
    <circle class="cls-148" cx="1740.02" cy="2201.38" r="13.16"/>
    <g>
      <path class="cls-149" d="M2038.32,1957.09c13.3,7.29,80.57-144.62,68.2-151.32.82,8.92-87,150.2-88.19,140.31Z"/>
      <circle class="cls-150" cx="2109.82" cy="1802.71" r="13.16"/>
    </g>
    <circle class="cls-151" cx="1908.99" cy="2153.66" r="239.82"/>
    <circle class="cls-6" cx="1812.2" cy="2217.02" r="85.34"/>
    <circle class="cls-7" cx="1799.62" cy="2204.44" r="42.33"/>
    <circle class="cls-8" cx="1831.9" cy="2217.02" r="19.91"/>
    <path class="cls-152" d="M1868.81,2388c-6.45,22.15-7.83,62.42-8.94,103.69.05,28.3,6.73,57,17,85.82-9.88,2.35-19.33,9.21-28.6,17.87a23.27,23.27,0,0,1,14.3,0l-14.3,9.84c8.54.31,18.25-2.21,28.6-6.26l-7.15,14.3c13.88-8,25.33-16.71,32.18-26.81a20.39,20.39,0,0,0,5.37-14.31c-12.63-33.64-23.65-65.51-25-86.7-2-35.17-2.41-68.19,0-97.44Z"/>
    <path class="cls-153" d="M1951.79,2388c7.74,36.21,12,71.2,8.94,103.69,3.93,23.36-5,53.77-17,85.82,9.88,2.35,19.33,9.21,28.6,17.87a23.27,23.27,0,0,0-14.3,0l14.3,9.84c-8.53.31-18.25-2.21-28.6-6.26l7.15,14.3c-13.88-8-25.32-16.71-32.18-26.81a20.39,20.39,0,0,1-5.37-14.31c12.63-33.64,23.65-65.51,25-86.7,2-35.17,2.41-68.19,0-97.44Z"/>
    <line class="cls-62" x1="1726.54" y1="2101.09" x2="1882.37" y2="2223.13"/>
    <circle class="cls-6" cx="1998.57" cy="2219.74" r="85.34"/>
    <circle class="cls-7" cx="2011.15" cy="2207.16" r="42.33"/>
    <circle class="cls-8" cx="1978.86" cy="2217.36" r="19.91"/>
    <line class="cls-62" x1="2084.23" y1="2103.8" x2="1928.4" y2="2225.84"/>
    <line class="cls-62" x1="1748.72" y1="2260.17" x2="1888.1" y2="2221.76"/>
    <g>
      <path class="cls-154" d="M1814.85,1972.31c-13.3,7.3-80.56-144.62-68.2-151.32-.82,8.92,87,150.2,88.19,140.31Z"/>
      <circle class="cls-155" cx="1743.35" cy="1817.93" r="13.16"/>
    </g>
  </g>
</svg>
