<svg id="Layer_1" data-name="Layer 1" xmlns="http://www.w3.org/2000/svg" xmlns:xlink="http://www.w3.org/1999/xlink" viewBox="0 0 39.91 68.89">
  <defs>
    <style>
      .cls-1 {
        fill: url(#linear-gradient);
      }

      .cls-2 {
        fill: url(#linear-gradient-2);
      }
    </style>
    <linearGradient id="linear-gradient" x1="6.64" y1="29.7" x2="38.49" y2="29.7" gradientUnits="userSpaceOnUse">
      <stop offset="0" stop-color="#fff"/>
      <stop offset="0.02" stop-color="#f8f8f8"/>
      <stop offset="0.13" stop-color="#dbdad9"/>
      <stop offset="0.24" stop-color="#c6c4c2"/>
      <stop offset="0.35" stop-color="#b9b7b5"/>
      <stop offset="0.44" stop-color="#b5b2b0"/>
      <stop offset="1" stop-color="#ededec"/>
    </linearGradient>
    <linearGradient id="linear-gradient-2" x1="4.06" y1="58.06" x2="28.9" y2="58.06" gradientUnits="userSpaceOnUse">
      <stop offset="0" stop-color="#fff"/>
      <stop offset="0.07" stop-color="#e5e4e3"/>
      <stop offset="0.17" stop-color="#c8c6c4"/>
      <stop offset="0.27" stop-color="#b3b0ad"/>
      <stop offset="0.36" stop-color="#a6a2a0"/>
      <stop offset="0.44" stop-color="#a29e9b"/>
      <stop offset="1" stop-color="#ededec"/>
    </linearGradient>
  </defs>
  <title>ben</title>
  <path d="M5.65,60.05,5,63.48c-1.5.08-2.72,1.42-3.86,3.05A9.19,9.19,0,0,1,2.43,62,6,6,0,0,1,5.65,60.05Z"/>
  <g>
    <path class="cls-1" d="M17.55.3,38.32.57C39.56,16.34,34.23,26.5,21.7,30.52c4.84,2.62,7.41,6.56,6.53,12.52-1.45,4.27-1.08,9.74.59,16.06L14,52.84,9.84,39.5C7,36.67,6.28,32.86,7.17,28.34,5,19.3,9.65,8.73,17.55.3Z"/>
    <path class="cls-2" d="M27.47,54.86c.78-3.14-15.17-7.11-13.74-3.12C13.45,54.38,9,56.57,5.2,58.83c-1.27,1.25-1.87,2.75.32,5.25a8.17,8.17,0,0,0,6.95.43,7.61,7.61,0,0,0,3.16,1.56c2.66-2.32,6-4.36,12.16-5.25C29.41,60.25,29.2,58.18,27.47,54.86Z"/>
  </g>
  <path d="M15.8,62.85,15.74,66c-1.25-.67-2.89.63-4.64,2.42C12,64.79,13.57,62.89,15.8,62.85Z"/>
  <path d="M10,61.62,9.12,65C7.61,65,6.31,66.22,5,67.76a9.19,9.19,0,0,1,1.58-4.38A6,6,0,0,1,10,61.62Z"/>
</svg>
