<svg id="Layer_3" data-name="Layer 3" xmlns="http://www.w3.org/2000/svg" xmlns:xlink="http://www.w3.org/1999/xlink" viewBox="0 0 28.35 28.35">
  <defs>
    <style>
      .cls-1 {
        fill: url(#linear-gradient);
      }

      .cls-2 {
        fill: url(#linear-gradient-2);
      }

      .cls-3 {
        fill: #070102;
      }

      .cls-4 {
        fill: url(#linear-gradient-3);
      }
    </style>
    <linearGradient id="linear-gradient" x1="-1.22" y1="41.74" x2="6.75" y2="41.74" gradientTransform="translate(6.1 -19.34) rotate(0.64)" gradientUnits="userSpaceOnUse">
      <stop offset="0" stop-color="#fff"/>
      <stop offset="0.14" stop-color="#fcfcfb"/>
      <stop offset="0.28" stop-color="#f1f1f0"/>
      <stop offset="0.4" stop-color="#e0dfde"/>
      <stop offset="0.51" stop-color="#cccbc9"/>
      <stop offset="0.58" stop-color="#c6c4c2"/>
      <stop offset="0.76" stop-color="#bdbbb9"/>
      <stop offset="1" stop-color="#bab8b6"/>
    </linearGradient>
    <linearGradient id="linear-gradient-2" x1="2.49" y1="31.51" x2="14.69" y2="31.51" xlink:href="#linear-gradient"/>
    <linearGradient id="linear-gradient-3" x1="3628.85" y1="42.05" x2="3636.94" y2="42.05" gradientTransform="matrix(-1, -0.01, -0.01, 1, 3654.04, 21.56)" xlink:href="#linear-gradient"/>
  </defs>
  <title>human</title>
  <path class="cls-1" d="M11.39,17.43C9.7,16.3,2.94,26.37,4.63,27.5c2.67-3,5.35-6,7.75-4.7Z"/>
  <path class="cls-2" d="M9.18,23.33l10.41.12c2-10.25.36-17.87-5.68-22.34C7.86,6.36,7.26,14.24,9.18,23.33Z"/>
  <ellipse class="cls-3" cx="14.16" cy="15.47" rx="1" ry="0.95" transform="translate(-2.3 28.45) rotate(-85.79)"/>
  <path class="cls-4" d="M18,17.73c1.74-1.11,8.37,9.26,6.63,10.37C22,25,19.32,21.91,16.85,23.17Z"/>
  <ellipse class="cls-3" cx="14.16" cy="12.06" rx="1" ry="0.95" transform="translate(1.09 25.3) rotate(-85.79)"/>
  <ellipse class="cls-3" cx="14.16" cy="18.94" rx="1" ry="0.95" transform="translate(-5.77 31.67) rotate(-85.79)"/>
</svg>
