<svg id="Layer_1" data-name="Layer 1" xmlns="http://www.w3.org/2000/svg" viewBox="0 0 9.98 3.15">
  <defs>
    <style>
      .cls-1 {
        fill: #fff;
      }

      .cls-2 {
        font-size: 1.78px;
      }

      .cls-2, .cls-4, .cls-5 {
        fill: #2f0d00;
        font-family: LuckiestGuy-Regular, Luckiest Guy;
      }

      .cls-3 {
        letter-spacing: 0em;
      }

      .cls-4 {
        font-size: 0.71px;
      }

      .cls-5 {
        font-size: 0.73px;
      }

      .cls-6 {
        letter-spacing: -0.01em;
      }
    </style>
  </defs>
  <title>kill</title>
  <g>
    <ellipse class="cls-1" cx="1.66" cy="1.55" rx="1.58" ry="1.48"/>
    <path class="cls-1" d="M.46,2.49c0,.2-.11.41-.3.63a1.62,1.62,0,0,0,.69-.31Z"/>
    <text class="cls-2" transform="translate(0.54 2.16)">S<tspan class="cls-3" x="0.94" y="0">E</tspan><tspan x="1.8" y="0">!</tspan></text>
  </g>
  <g>
    <ellipse class="cls-1" cx="4.96" cy="1.55" rx="1.58" ry="1.48"/>
    <path class="cls-1" d="M3.76,2.49c.06.2-.11.41-.3.63a1.62,1.62,0,0,0,.69-.31Z"/>
    <text class="cls-4" transform="translate(4 1.35)">EN NY</text>
    <text class="cls-4" transform="translate(3.71 2.13)">planet!</text>
  </g>
  <g>
    <ellipse class="cls-1" cx="8.31" cy="1.55" rx="1.61" ry="1.51"/>
    <path class="cls-1" d="M7.08,2.51c.06.2-.11.42-.3.64a1.51,1.51,0,0,0,.7-.32Z"/>
    <text class="cls-5" transform="translate(7.6 1.35)"><tspan class="cls-6">N</tspan><tspan x="0.51" y="0">AK</tspan><tspan x="-0.04" y="0.87">DEN!</tspan></text>
    <text></text>
  </g>
</svg>
