<svg id="Layer_1" data-name="Layer 1" xmlns="http://www.w3.org/2000/svg" xmlns:xlink="http://www.w3.org/1999/xlink" viewBox="0 0 27.09 68.78">
  <defs>
    <style>
      .cls-1 {
        fill: url(#linear-gradient);
      }

      .cls-2 {
        fill: url(#linear-gradient-2);
      }

      .cls-3 {
        fill: url(#linear-gradient-3);
      }

      .cls-4 {
        fill: url(#linear-gradient-4);
      }

      .cls-5 {
        fill: url(#linear-gradient-5);
      }

      .cls-6 {
        fill: #fafafa;
      }
    </style>
    <linearGradient id="linear-gradient" x1="2.91" y1="56.52" x2="12.19" y2="56.52" gradientUnits="userSpaceOnUse">
      <stop offset="0" stop-color="#fff"/>
      <stop offset="0.02" stop-color="#f8f8f8"/>
      <stop offset="0.13" stop-color="#dbdad9"/>
      <stop offset="0.24" stop-color="#c6c4c2"/>
      <stop offset="0.35" stop-color="#b9b7b5"/>
      <stop offset="0.44" stop-color="#b5b2b0"/>
      <stop offset="1" stop-color="#ededec"/>
    </linearGradient>
    <linearGradient id="linear-gradient-2" x1="2.16" y1="64.77" x2="9.39" y2="64.77" gradientUnits="userSpaceOnUse">
      <stop offset="0" stop-color="#fff"/>
      <stop offset="0.07" stop-color="#e5e4e3"/>
      <stop offset="0.17" stop-color="#c8c6c4"/>
      <stop offset="0.27" stop-color="#b3b0ad"/>
      <stop offset="0.36" stop-color="#a6a2a0"/>
      <stop offset="0.44" stop-color="#a29e9b"/>
      <stop offset="1" stop-color="#ededec"/>
    </linearGradient>
    <linearGradient id="linear-gradient-3" x1="8718.22" y1="56.45" x2="8727.49" y2="56.45" gradientTransform="matrix(-1, 0, 0, 1, 8741.83, 0)" xlink:href="#linear-gradient"/>
    <linearGradient id="linear-gradient-4" x1="8717.47" y1="64.7" x2="8724.7" y2="64.7" gradientTransform="matrix(-1, 0, 0, 1, 8741.83, 0)" xlink:href="#linear-gradient-2"/>
    <linearGradient id="linear-gradient-5" x1="27.02" y1="32.09" x2="0.99" y2="32.09" gradientUnits="userSpaceOnUse">
      <stop offset="0" stop-color="#fff"/>
      <stop offset="0.08" stop-color="#e5e4e3"/>
      <stop offset="0.19" stop-color="#c8c6c4"/>
      <stop offset="0.3" stop-color="#b3b0ad"/>
      <stop offset="0.41" stop-color="#a6a2a0"/>
      <stop offset="0.5" stop-color="#a29e9b"/>
      <stop offset="1" stop-color="#ededec"/>
    </linearGradient>
  </defs>
  <title>monster</title>
  <g>
    <path d="M5.58,66.17l0,.93c-.36-.2-.84.18-1.35.7C4.48,66.73,4.93,66.18,5.58,66.17Z"/>
    <path d="M3.88,65.81l-.25,1c-.44,0-.82.36-1.19.81a2.68,2.68,0,0,1,.46-1.28A1.73,1.73,0,0,1,3.88,65.81Z"/>
    <path d="M2.62,65.35l-.18,1c-.44,0-.79.41-1.13.89a2.68,2.68,0,0,1,.37-1.31A1.73,1.73,0,0,1,2.62,65.35Z"/>
    <path d="M20.94,66.1,21,67c.36-.2.84.18,1.35.7C22,66.66,21.59,66.11,20.94,66.1Z"/>
    <path d="M22.63,65.74l.25,1c.44,0,.82.36,1.19.81a2.68,2.68,0,0,0-.46-1.28A1.73,1.73,0,0,0,22.63,65.74Z"/>
    <path d="M23.9,65.28l.18,1c.44,0,.79.41,1.13.89a2.68,2.68,0,0,0-.37-1.31A1.73,1.73,0,0,0,23.9,65.28Z"/>
    <g>
      <path class="cls-1" d="M6.09,48l6,.08c.36,4.59-1.19,7.55-4.84,8.72A3.28,3.28,0,0,1,9.2,60.4a8.33,8.33,0,0,0,.17,4.68L5.05,63.26,3.84,59.37a3.37,3.37,0,0,1-.78-3.25C2.44,53.49,3.79,50.41,6.09,48Z"/>
      <path class="cls-2" d="M9,63.84c.23-.91-4.42-2.07-4-.91C4.9,63.7,3.61,64.34,2.49,65c-.37.37-.55.8.09,1.53a2.38,2.38,0,0,0,2,.12,2.22,2.22,0,0,0,.92.45,6.34,6.34,0,0,1,3.54-1.53C9.54,65.41,9.48,64.81,9,63.84Z"/>
    </g>
    <g>
      <path class="cls-3" d="M20.43,47.89l-6,.08c-.36,4.59,1.19,7.55,4.84,8.72a3.28,3.28,0,0,0-1.9,3.65A8.33,8.33,0,0,1,17.15,65l4.32-1.82,1.21-3.88A3.37,3.37,0,0,0,23.45,56C24.08,53.42,22.73,50.34,20.43,47.89Z"/>
      <path class="cls-4" d="M17.54,63.77c-.23-.91,4.42-2.07,4-.91.08.77,1.36,1.41,2.48,2.06.37.37.55.8-.09,1.53a2.38,2.38,0,0,1-2,.12A2.22,2.22,0,0,1,21,67a6.34,6.34,0,0,0-3.54-1.53C17,65.34,17,64.74,17.54,63.77Z"/>
    </g>
    <path class="cls-5" d="M1,25.6,1.31,53l3.82-2.87,1.49,1.7,3.08-2,2.55,2.55L15,49.29l3.19,2.23,2.23-2.23,3.19,3.08.21-2.76L27,52.37,26.7,25.28C26.46,6.25.75,6.57,1,25.6Z"/>
    <ellipse cx="7.31" cy="21.21" rx="1.75" ry="1.91"/>
    <ellipse cx="13.58" cy="19.07" rx="1.75" ry="1.91"/>
    <ellipse cx="19.85" cy="21.21" rx="1.75" ry="1.91"/>
    <ellipse class="cls-6" cx="7.31" cy="21.26" rx="0.84" ry="0.91"/>
    <ellipse class="cls-6" cx="13.62" cy="19.17" rx="0.84" ry="0.91"/>
    <ellipse class="cls-6" cx="19.94" cy="21.16" rx="0.84" ry="0.91"/>
    <path class="cls-6" d="M8.16,44.74l5-2.75c2.54-1,4.48,1.45,6.24,5a49.05,49.05,0,0,0-.09-11,19.56,19.56,0,0,0-5.17-7.73c-2.59,1.39-4.68,3.89-5.88,8.41C7.57,40.08,7.53,42.79,8.16,44.74Z"/>
    <path class="cls-6" d="M9.36,14.37c-2-1.81-3.43-3.68-3.69-5.64L6.15.66C4.73,3.5,3.26,6.36,3.43,8.73l2.72,7.49C6.62,17,9.83,15.18,9.36,14.37Z"/>
    <path class="cls-6" d="M18.94,15a5.38,5.38,0,0,0,2-3L20.65,7.7c.75,1.51,1.54,3,1.45,4.28l-1.45,4C20.4,16.39,18.69,15.41,18.94,15Z"/>
  </g>
</svg>
