<svg id="Layer_3" data-name="Layer 3" xmlns="http://www.w3.org/2000/svg" xmlns:xlink="http://www.w3.org/1999/xlink" viewBox="0 0 397.03 44.7">
  <defs>
    <style>
      .cls-1 {
        fill: url(#linear-gradient);
      }

      .cls-10, .cls-12, .cls-14, .cls-2, .cls-6, .cls-7 {
        fill: #fff;
      }

      .cls-10, .cls-12, .cls-14, .cls-2, .cls-6 {
        stroke-miterlimit: 10;
      }

      .cls-2 {
        stroke: url(#linear-gradient-2);
      }

      .cls-3 {
        fill: #2a1000;
      }

      .cls-4 {
        fill: #fffffe;
      }

      .cls-5 {
        fill: url(#linear-gradient-3);
      }

      .cls-6 {
        stroke: url(#linear-gradient-4);
      }

      .cls-8 {
        fill: #070102;
      }

      .cls-9 {
        fill: url(#linear-gradient-5);
      }

      .cls-10 {
        stroke: url(#linear-gradient-6);
      }

      .cls-11 {
        fill: url(#linear-gradient-7);
      }

      .cls-12 {
        stroke: url(#linear-gradient-8);
      }

      .cls-13 {
        fill: url(#linear-gradient-9);
      }

      .cls-14 {
        stroke: url(#linear-gradient-10);
      }
    </style>
    <linearGradient id="linear-gradient" y1="71.41" x2="190.78" y2="71.41" gradientUnits="userSpaceOnUse">
      <stop offset="0" stop-color="#fff"/>
      <stop offset="1" stop-color="#bbb"/>
    </linearGradient>
    <linearGradient id="linear-gradient-2" x1="64.18" y1="20.66" x2="128.43" y2="20.66" gradientUnits="userSpaceOnUse">
      <stop offset="0" stop-color="#fff"/>
      <stop offset="1" stop-color="#dedede"/>
    </linearGradient>
    <linearGradient id="linear-gradient-3" x1="80.89" y1="29.88" x2="157.42" y2="29.88" xlink:href="#linear-gradient"/>
    <linearGradient id="linear-gradient-4" x1="106.34" y1="9.52" x2="132.71" y2="9.52" xlink:href="#linear-gradient-2"/>
    <linearGradient id="linear-gradient-5" x1="159.95" y1="29.94" x2="236.48" y2="29.94" xlink:href="#linear-gradient"/>
    <linearGradient id="linear-gradient-6" x1="185.39" y1="9.59" x2="211.76" y2="9.59" xlink:href="#linear-gradient-2"/>
    <linearGradient id="linear-gradient-7" x1="239.01" y1="30.01" x2="315.54" y2="30.01" xlink:href="#linear-gradient"/>
    <linearGradient id="linear-gradient-8" x1="264.45" y1="9.65" x2="290.82" y2="9.65" xlink:href="#linear-gradient-2"/>
    <linearGradient id="linear-gradient-9" x1="318.06" y1="29.82" x2="394.59" y2="29.82" xlink:href="#linear-gradient"/>
    <linearGradient id="linear-gradient-10" x1="343.51" y1="9.46" x2="369.88" y2="9.46" xlink:href="#linear-gradient-2"/>
    <symbol id="ufo1-2" data-name="ufo1" viewBox="0 0 190.78 104.07">
      <ellipse class="cls-1" cx="95.39" cy="71.41" rx="95.39" ry="32.67"/>
      <path class="cls-2" d="M64.68,40.81h63.25V33.17c0-43.55-63.25-43.55-63.25,0Z"/>
      <ellipse class="cls-3" cx="182.09" cy="71.69" rx="2.78" ry="4.52"/>
      <circle class="cls-3" cx="94.73" cy="72.24" r="5.99"/>
      <circle class="cls-3" cx="123.85" cy="72.29" r="5.99"/>
      <circle class="cls-3" cx="65.61" cy="72.34" r="5.99"/>
      <circle class="cls-3" cx="152.97" cy="72.38" r="5.99"/>
      <circle class="cls-4" cx="36.49" cy="72.43" r="5.99"/>
      <ellipse class="cls-3" cx="7.37" cy="71.51" rx="2.78" ry="4.52"/>
    </symbol>
  </defs>
  <title>ufo</title>
  <g id="ufo1">
    <g>
      <ellipse class="cls-5" cx="119.15" cy="29.88" rx="38.26" ry="13.1"/>
      <path class="cls-6" d="M106.84,17.61h25.37V14.54c0-17.47-25.37-17.47-25.37,0Z"/>
      <ellipse class="cls-3" cx="153.93" cy="30" rx="1.12" ry="1.81"/>
      <circle class="cls-3" cx="118.89" cy="30.22" r="2.4"/>
      <circle class="cls-3" cx="130.57" cy="30.24" r="2.4"/>
      <circle class="cls-7" cx="107.21" cy="30.26" r="2.4"/>
      <circle class="cls-3" cx="142.25" cy="30.27" r="2.4"/>
      <circle class="cls-8" cx="95.53" cy="30.29" r="2.4"/>
      <ellipse class="cls-3" cx="83.85" cy="29.92" rx="1.12" ry="1.81"/>
    </g>
    <g>
      <ellipse class="cls-9" cx="198.21" cy="29.94" rx="38.26" ry="13.1"/>
      <path class="cls-10" d="M185.89,17.67h25.37V14.61c0-17.47-25.37-17.47-25.37,0Z"/>
      <ellipse class="cls-3" cx="232.99" cy="30.06" rx="1.12" ry="1.81"/>
      <circle class="cls-7" cx="197.95" cy="30.28" r="2.4"/>
      <circle class="cls-3" cx="209.63" cy="30.3" r="2.4"/>
      <circle class="cls-3" cx="186.27" cy="30.32" r="2.4"/>
      <circle class="cls-3" cx="221.31" cy="30.34" r="2.4"/>
      <circle class="cls-8" cx="174.59" cy="30.35" r="2.4"/>
      <ellipse class="cls-3" cx="162.91" cy="29.99" rx="1.12" ry="1.81"/>
    </g>
    <g>
      <ellipse class="cls-11" cx="277.27" cy="30.01" rx="38.26" ry="13.1"/>
      <path class="cls-12" d="M265,17.74h25.37V14.67c0-17.47-25.37-17.47-25.37,0Z"/>
      <ellipse class="cls-3" cx="312.05" cy="30.12" rx="1.12" ry="1.81"/>
      <circle class="cls-3" cx="277.01" cy="30.34" r="2.4"/>
      <circle class="cls-7" cx="288.69" cy="30.36" r="2.4"/>
      <circle class="cls-3" cx="265.33" cy="30.38" r="2.4"/>
      <circle class="cls-3" cx="300.37" cy="30.4" r="2.4"/>
      <circle class="cls-8" cx="253.64" cy="30.42" r="2.4"/>
      <ellipse class="cls-3" cx="241.96" cy="30.05" rx="1.12" ry="1.81"/>
    </g>
    <g>
      <ellipse class="cls-13" cx="356.33" cy="29.82" rx="38.26" ry="13.1"/>
      <path class="cls-14" d="M344,17.55h25.37V14.48C369.38-3,344-3,344,14.48Z"/>
      <ellipse class="cls-3" cx="391.11" cy="29.93" rx="1.12" ry="1.81"/>
      <circle class="cls-3" cx="356.06" cy="30.16" r="2.4"/>
      <circle class="cls-3" cx="367.74" cy="30.17" r="2.4"/>
      <circle class="cls-3" cx="344.38" cy="30.19" r="2.4"/>
      <circle class="cls-7" cx="379.43" cy="30.21" r="2.4"/>
      <circle class="cls-8" cx="332.7" cy="30.23" r="2.4"/>
      <ellipse class="cls-3" cx="321.02" cy="29.86" rx="1.12" ry="1.81"/>
    </g>
  </g>
  <use width="190.78" height="104.07" transform="translate(1.83 1.43) scale(0.4)" xlink:href="#ufo1-2"/>
</svg>
