<svg id="Layer_1" data-name="Layer 1" xmlns="http://www.w3.org/2000/svg" viewBox="0 0 58.13 46.34">
  <defs>
    <style>
      .cls-1 {
        fill: #fff;
      }
    </style>
  </defs>
  <title>velkommen</title>
  <path class="cls-1" d="M9,1.87,7.34,7.12H5.44L4,1.64l1.82-.06L6.4,4.75l.89-3.1Z"/>
  <path class="cls-1" d="M12.8,1.93l-.08.71q0,.35-.09.71H11l-.07.48,1.14.07-.15,1.18L10.78,5l-.07.56.95.05.67,0-.1.83q0,.41-.09.83l-3.3-.11.44-5.51Z"/>
  <path class="cls-1" d="M16.11,5.47l-.26,1.69-3.24.07q.1-1.33.2-2.65T13,1.92L15,2q-.14.83-.26,1.67t-.21,1.68l.36,0,.36,0,.42,0Z"/>
  <path class="cls-1" d="M21.33,2.46l-2,2.44,1.4,2.8-1.79.21L17.88,6.19l-.16,1.73-1.6,0L16.58,2l1.78.2L18.12,4l1.29-1.76Z"/>
  <path class="cls-1" d="M25.46,5.48a2.78,2.78,0,0,1-.12.67,2.63,2.63,0,0,1-.27.59,2.52,2.52,0,0,1-.4.5,2.34,2.34,0,0,1-.51.38,2.36,2.36,0,0,1-1.28.28,2.4,2.4,0,0,1-.65-.13,2.51,2.51,0,0,1-.57-.28,2.35,2.35,0,0,1-.47-.41,2.38,2.38,0,0,1-.35-.52,2.57,2.57,0,0,1-.21-.6,2.46,2.46,0,0,1,0-.66A2.68,2.68,0,0,1,21,4.06a2.61,2.61,0,0,1,.4-.5,2.41,2.41,0,0,1,.5-.38,2.31,2.31,0,0,1,.59-.24,2.22,2.22,0,0,1,.66-.06,2.86,2.86,0,0,1,1,.23,2.15,2.15,0,0,1,1.21,1.34A2.76,2.76,0,0,1,25.46,5.48Zm-1.71,0a1.08,1.08,0,0,0,0-.32.88.88,0,0,0-.12-.28.72.72,0,0,0-.22-.21.64.64,0,0,0-.31-.09.76.76,0,0,0-.33,0,.74.74,0,0,0-.25.16.78.78,0,0,0-.17.26,1,1,0,0,0-.07.32,1.17,1.17,0,0,0,0,.32,1,1,0,0,0,.12.3.74.74,0,0,0,.22.22.61.61,0,0,0,.31.1.72.72,0,0,0,.33-.05.73.73,0,0,0,.25-.18.88.88,0,0,0,.17-.27A1,1,0,0,0,23.75,5.48Z"/>
  <path class="cls-1" d="M31.81,3l-.67,5.6-1.75,0,.18-3-.92,2.34-.67,0L27.49,5.7l-.15,2.48-1.77,0,.38-5.29,2,0,.64,2.58,1.19-2.63Z"/>
  <path class="cls-1" d="M38,3.31l-.67,5.6-1.75,0,.18-3-.92,2.34-.67,0-.48-2.17-.15,2.48-1.77,0,.38-5.29,2,0,.64,2.58,1.19-2.63Z"/>
  <path class="cls-1" d="M41.91,3.59l-.08.71q0,.35-.09.71H40.11L40,5.48l1.14.07L41,6.73l-1.15,0-.07.56.95.05.67,0-.1.83q0,.41-.09.83l-3.3-.11.44-5.51Z"/>
  <path class="cls-1" d="M47.24,3.93,46.67,9.1l-2,.07-.91-2.84-.33,2.82-1.72-.1.45-5.42,1.92,0,1.17,2.83.21-2.6Z"/>
  <path class="cls-1" d="M50.9,6.86l-.07.82h-.58l-.17,1.79h-.82l0-1.8h-.58l.08-.91Z"/>
  <path class="cls-1" d="M52,6.93l-.29,2.63h-.82L51,6.93Z"/>
  <path class="cls-1" d="M53.78,8.74l-.13.86L52,9.63l.22-2.76,1,.06L53,8.69Z"/>
  <path class="cls-1" d="M11.83,11.68a2.33,2.33,0,0,1-.19.84,2.1,2.1,0,0,1-.43.62,2.28,2.28,0,0,1-.61.43,3.77,3.77,0,0,1-.73.27,4.75,4.75,0,0,1-.8.13,6.43,6.43,0,0,1-.8,0l-.12,2.09L5.86,16q0-.56.06-1.09L6,13.81l.07-1.05.07-1.09q0-.6.07-1.2T6.3,9.26a9.07,9.07,0,0,1,1.27-.21,8.87,8.87,0,0,1,1.3,0,4.7,4.7,0,0,1,.75.1,3.68,3.68,0,0,1,.71.24,3.24,3.24,0,0,1,.62.37,2.17,2.17,0,0,1,.79,1.15A2.35,2.35,0,0,1,11.83,11.68Zm-2.19,0a.65.65,0,0,0-.17-.51A.71.71,0,0,0,9,11H8.77l-.21,0-.14,1.43.13,0h.13a1,1,0,0,0,.34,0,.91.91,0,0,0,.3-.15.85.85,0,0,0,.22-.25A.73.73,0,0,0,9.64,11.73Z"/>
  <path class="cls-1" d="M16.33,13.68,16,15.84l-4.15.09q.13-1.71.26-3.41t.29-3.4l2.55.15q-.17,1.07-.34,2.14t-.27,2.16l.46,0,.46,0,.54,0Z"/>
  <path class="cls-1" d="M22.62,16.42l-2.45.18-.23-1.13-1.12-.06-.31,1.1L16,16.11l2.33-6.43,2.74,0ZM19.85,14l-.28-1.73-.46,1.69Z"/>
  <path class="cls-1" d="M29.78,10.19l-.73,6.64-2.59.09-1.17-3.64-.42,3.62-2.21-.13.57-7,2.46,0,1.5,3.63.27-3.34Z"/>
  <path class="cls-1" d="M34.84,10.43q-.06.46-.11.91t-.12.91H32.52l-.08.62,1.46.08-.19,1.52-1.48,0-.09.71,1.22.07.86,0q-.06.54-.12,1.07T34,17.39l-4.24-.14.56-7.07Z"/>
  <path class="cls-1" d="M40.19,10.8,40,12.88l-1.47,0-.64,4.64H35.84l.28-4.66H34.65l.19-2.32Z"/>
  <path class="cls-1" d="M45.12,11q-.06.46-.11.91t-.12.91H42.81l-.08.62,1.46.08L44,15l-1.48,0-.09.71,1.22.07.86,0q-.06.54-.12,1.07T44.27,18L40,17.84l.56-7.07Z"/>
  <path class="cls-1" d="M52,11.45l-.73,6.64-2.59.09-1.17-3.64L47,18.16,44.83,18l.57-7,2.46,0,1.5,3.63.27-3.34Z"/>
  <path class="cls-1" d="M25.42,20.72l0,.36q0,.18,0,.36h-.92v.24l.79,0-.08.6-.76,0-.06,1.14-1.09,0,.23-2.78Z"/>
  <path class="cls-1" d="M28.06,22.3a1.26,1.26,0,0,1-.06.34,1.24,1.24,0,0,1-.15.3,1.28,1.28,0,0,1-.22.25,1.3,1.3,0,0,1-.29.19,1.42,1.42,0,0,1-.34.11,1.48,1.48,0,0,1-.38,0,1.5,1.5,0,0,1-.69-.21,1.31,1.31,0,0,1-.27-.21,1.22,1.22,0,0,1-.32-.57,1.12,1.12,0,0,1,0-.33,1.21,1.21,0,0,1,.06-.33,1.25,1.25,0,0,1,.15-.3,1.33,1.33,0,0,1,.5-.44,1.38,1.38,0,0,1,.7-.14,1.78,1.78,0,0,1,.57.12,1.27,1.27,0,0,1,.43.27,1.11,1.11,0,0,1,.26.41A1.26,1.26,0,0,1,28.06,22.3Zm-1,0a.49.49,0,0,0,0-.16A.43.43,0,0,0,27,22a.39.39,0,0,0-.3-.15.47.47,0,0,0-.18,0,.42.42,0,0,0-.14.08.39.39,0,0,0-.09.13.43.43,0,0,0,0,.16.53.53,0,0,0,0,.16.46.46,0,0,0,.07.15.4.4,0,0,0,.12.11.38.38,0,0,0,.18.05.45.45,0,0,0,.18,0,.41.41,0,0,0,.14-.09.43.43,0,0,0,.09-.14A.46.46,0,0,0,27.1,22.29Z"/>
  <path class="cls-1" d="M30.77,22a1.19,1.19,0,0,1,0,.27.77.77,0,0,1-.1.22.83.83,0,0,1-.17.18,1.43,1.43,0,0,1-.25.15l.47.85-1,.11-.29-.84h-.27l-.08.8-.93-.05.07-.88q0-.44.07-.88l0-.44q0-.22,0-.44l.3-.07.3,0h.61A1.86,1.86,0,0,1,30,21a1.3,1.3,0,0,1,.4.21,1,1,0,0,1,.27.32A.82.82,0,0,1,30.77,22Zm-1,0a.43.43,0,0,0,0-.15.32.32,0,0,0-.07-.12.34.34,0,0,0-.12-.08.47.47,0,0,0-.17,0h-.17l-.08.72h.24a.6.6,0,0,0,.18-.06.39.39,0,0,0,.13-.11A.28.28,0,0,0,29.8,22Z"/>
  <path class="cls-1" d="M9.45,26.51,7.73,28.83,9,32.07l-1.68.28-1-2-.16,1.79H4.69l.49-6.56,1.66.21-.24,1.88,1.15-1.86Z"/>
  <path class="cls-1" d="M15.54,26.17q0,.43-.09.85t-.1.85H13.84l-.07.58,1.07.06-.16,1.42-1.08,0-.07.67,1.52.09-.1,1q-.05.5-.1,1l-3.09-.08.09-1.14-.87,0-.42,1-1.76-.33,3-6ZM12,30.05l.13-1.59L11.49,30Z"/>
  <path class="cls-1" d="M21.2,26.42l-.71,6.71H18.85l.22-3.55-.9,2.82-.63,0-.42-2.59-.18,3-1.66,0,.43-6.33h1.84l.56,3.08,1.16-3.16Z"/>
  <path class="cls-1" d="M25.5,28.94a2.73,2.73,0,0,1-.15.78,2.09,2.09,0,0,1-.32.58,1.87,1.87,0,0,1-.45.41A2.41,2.41,0,0,1,24,31a2.83,2.83,0,0,1-.58.13,3.68,3.68,0,0,1-.59,0l-.12,2.14-1.67-.1q.06-1,.12-2.09t.13-2.1q0-.56.07-1.12t.08-1.13a5.4,5.4,0,0,1,.93-.21,5.07,5.07,0,0,1,.95,0,2.69,2.69,0,0,1,.55.09,2.22,2.22,0,0,1,1,.55,1.86,1.86,0,0,1,.35.46,2.29,2.29,0,0,1,.22.6A2.75,2.75,0,0,1,25.5,28.94ZM23.9,29a.7.7,0,0,0-.11-.47.46.46,0,0,0-.36-.19h-.16l-.15,0L23,29.72h.19a.59.59,0,0,0,.25,0,.65.65,0,0,0,.22-.15.8.8,0,0,0,.16-.23A.84.84,0,0,0,23.9,29Z"/>
  <path class="cls-1" d="M29.21,26.95q0,.43-.09.85t-.1.85H27.51l-.07.58,1.07.06-.16,1.42-1.08,0-.07.67.89.05.63,0-.1,1q-.05.5-.1,1l-3.09-.08.49-6.61Z"/>
  <path class="cls-1" d="M32.76,31.34a3.24,3.24,0,0,1-.23,1.09,2.22,2.22,0,0,1-.51.76,1.9,1.9,0,0,1-.72.43,2.3,2.3,0,0,1-.86.11,1.42,1.42,0,0,1-.38-.08l-.42-.17-.4-.22L28.9,33l.27-1.88a2.25,2.25,0,0,0,.65.39,2.34,2.34,0,0,0,.72.16h.17l.19,0a.38.38,0,0,0,.15-.09.29.29,0,0,0,.07-.19.26.26,0,0,0,0-.15.34.34,0,0,0-.11-.11l-.15-.07-.17,0-.15,0H30.4a1.15,1.15,0,0,1-.55-.17,1.32,1.32,0,0,1-.41-.41,1.87,1.87,0,0,1-.25-.6,2.57,2.57,0,0,1-.06-.74,2.62,2.62,0,0,1,.23-1,2.25,2.25,0,0,1,.5-.7,2,2,0,0,1,.68-.42,1.89,1.89,0,0,1,.77-.12l.36,0L32,27l.35.13a1.89,1.89,0,0,1,.32.18l-.24,1.85A3.65,3.65,0,0,0,32,29a2,2,0,0,0-.52-.1h-.27l-.16,0-.15.05a.3.3,0,0,0-.11.1.26.26,0,0,0,0,.15.25.25,0,0,0,0,.17.37.37,0,0,0,.14.1l.19.06.21,0h.19l.15,0a1.2,1.2,0,0,1,.51.19,1.25,1.25,0,0,1,.37.38,1.62,1.62,0,0,1,.21.54A2.53,2.53,0,0,1,32.76,31.34Z"/>
  <path class="cls-1" d="M36.92,27.44l-.15,1.94H35.71l-.52,4.33H33.67l.26-4.35H32.86L33,27.23Z"/>
  <path class="cls-1" d="M41.21,31a4.23,4.23,0,0,1-.12.8,3.73,3.73,0,0,1-.26.71,3.14,3.14,0,0,1-.38.6,2.42,2.42,0,0,1-.48.46,2,2,0,0,1-.57.28,1.76,1.76,0,0,1-.64.08,1.79,1.79,0,0,1-.61-.14,2.11,2.11,0,0,1-.53-.33A2.37,2.37,0,0,1,37.2,33a2.91,2.91,0,0,1-.32-.62,3.61,3.61,0,0,1-.19-.72,3.74,3.74,0,0,1,0-.79,4.06,4.06,0,0,1,.12-.78,3.76,3.76,0,0,1,.26-.71,3.25,3.25,0,0,1,.38-.6,2.52,2.52,0,0,1,.48-.47,2,2,0,0,1,.56-.29,1.66,1.66,0,0,1,.62-.08,2.15,2.15,0,0,1,.93.26,2.07,2.07,0,0,1,.7.63,2.8,2.8,0,0,1,.42,1A4.14,4.14,0,0,1,41.21,31Zm-1.6,0a1.63,1.63,0,0,0,0-.39,1.19,1.19,0,0,0-.11-.34.75.75,0,0,0-.2-.25A.49.49,0,0,0,39,30a.58.58,0,0,0-.31.06.73.73,0,0,0-.24.2,1,1,0,0,0-.16.31,1.43,1.43,0,0,0-.07.38,1.77,1.77,0,0,0,0,.39,1.31,1.31,0,0,0,.11.36.79.79,0,0,0,.2.26.48.48,0,0,0,.29.11.55.55,0,0,0,.31-.07.75.75,0,0,0,.24-.22,1.16,1.16,0,0,0,.16-.32A1.5,1.5,0,0,0,39.62,31Z"/>
  <path class="cls-1" d="M45.73,30.09a4,4,0,0,1-.09.65,2.32,2.32,0,0,1-.18.53,2,2,0,0,1-.29.43,2.58,2.58,0,0,1-.42.37l.74,2-1.63.31-.44-2H43l-.17,1.9-1.54-.09.15-2.08q.08-1,.16-2.08l.07-1q0-.52.09-1a4,4,0,0,1,.51-.17,3.77,3.77,0,0,1,.5-.09l.5,0h.52a2.21,2.21,0,0,1,.78.19,1.93,1.93,0,0,1,.65.47,2.14,2.14,0,0,1,.43.75A2.63,2.63,0,0,1,45.73,30.09Zm-1.61.06a1.43,1.43,0,0,0,0-.36A.86.86,0,0,0,44,29.5a.58.58,0,0,0-.19-.19.57.57,0,0,0-.28-.08h-.14l-.13,0L43.09,31h.09a1,1,0,0,0,.32,0,.84.84,0,0,0,.3-.14.81.81,0,0,0,.22-.26A.89.89,0,0,0,44.12,30.14Z"/>
  <path class="cls-1" d="M49.49,28.1q0,.43-.09.85t-.1.85H47.78l-.07.58,1.07.06-.16,1.42-1.08,0-.07.67.89.05.63,0-.1,1q-.05.5-.1,1l-3.09-.08.49-6.61Z"/>
  <path class="cls-1" d="M6.3,34.27l-2.06,4.5-.14,3.4-2-.11.24-3.37L1.22,34.16l2-.27.46,2.63L4.48,34Z"/>
  <path class="cls-1" d="M10,37.77q0,.52-.11,1a10.74,10.74,0,0,0-1.31.14l-1.31.22a1.66,1.66,0,0,0,.27.71.64.64,0,0,0,.49.29.76.76,0,0,0,.34-.07,2.34,2.34,0,0,0,.37-.2,3.84,3.84,0,0,0,.36-.27l.3-.27-.34,2.71a1.76,1.76,0,0,1-.34.29,1.79,1.79,0,0,1-.37.18,1.91,1.91,0,0,1-.39.09,2,2,0,0,1-.38,0,1.49,1.49,0,0,1-.68-.2A1.94,1.94,0,0,1,6.41,42,3.07,3.07,0,0,1,6,41.24a4.93,4.93,0,0,1-.27-.88,7.26,7.26,0,0,1-.13-1,8.51,8.51,0,0,1,0-1.06,9.6,9.6,0,0,1,.13-1.11A8.17,8.17,0,0,1,6,36.12a5.73,5.73,0,0,1,.39-.94,3.56,3.56,0,0,1,.51-.74A2.06,2.06,0,0,1,7.52,34a1.53,1.53,0,0,1,.76-.14,1.32,1.32,0,0,1,.61.18,1.67,1.67,0,0,1,.48.44,2.65,2.65,0,0,1,.35.64,4.55,4.55,0,0,1,.22.8,6.91,6.91,0,0,1,.11.91A9,9,0,0,1,10,37.77Zm-1.51-.4a2.68,2.68,0,0,0,0-.35,1.54,1.54,0,0,0-.06-.33.71.71,0,0,0-.12-.24.27.27,0,0,0-.21-.11.36.36,0,0,0-.28.11,1.17,1.17,0,0,0-.22.31,2.54,2.54,0,0,0-.16.42c0,.15-.08.29-.1.42l1.14-.1Z"/>
  <path class="cls-1" d="M14.55,34.4l-.18,2.54H13.22l-.46,5.56-1.62,0L11.32,37l-1.15,0,.21-2.83Z"/>
  <path class="cls-1" d="M16.77,34.54,16,42.7l-1.62,0,.31-8.14Z"/>
  <path class="cls-1" d="M16.85,39.7l.09-1.8,2.48,0-.1,2.05Z"/>
  <path class="cls-1" d="M26,34.77l-.85,8.79-1.75,0,.28-4.64-1,3.7-.67,0-.41-3.38-.23,3.89-1.77,0,.55-8.29h2l.55,4L24,34.65Z"/>
  <path class="cls-1" d="M30.71,39.56a6.73,6.73,0,0,1-.14,1,5.72,5.72,0,0,1-.29.94,4.44,4.44,0,0,1-.41.79,3,3,0,0,1-.52.61,2.1,2.1,0,0,1-.61.38,1.58,1.58,0,0,1-.68.11,1.6,1.6,0,0,1-.65-.18,2.17,2.17,0,0,1-.56-.42,2.89,2.89,0,0,1-.46-.63,4.06,4.06,0,0,1-.33-.8,5.5,5.5,0,0,1-.19-.93,6,6,0,0,1,0-1,6.45,6.45,0,0,1,.14-1,5.76,5.76,0,0,1,.29-.93,4.61,4.61,0,0,1,.41-.8,3.14,3.14,0,0,1,.52-.61,2.08,2.08,0,0,1,.6-.39,1.49,1.49,0,0,1,.66-.11,2,2,0,0,1,1,.33,2.37,2.37,0,0,1,.74.82A4,4,0,0,1,30.63,38,6.55,6.55,0,0,1,30.71,39.56ZM29,39.62a2.58,2.58,0,0,0,0-.5,1.78,1.78,0,0,0-.12-.44.94.94,0,0,0-.21-.32.47.47,0,0,0-.31-.13.54.54,0,0,0-.33.08.88.88,0,0,0-.26.27,1.5,1.5,0,0,0-.18.41,2.26,2.26,0,0,0-.08.5,2.81,2.81,0,0,0,0,.51,2,2,0,0,0,.11.46,1,1,0,0,0,.21.34.45.45,0,0,0,.31.14.51.51,0,0,0,.33-.09.91.91,0,0,0,.26-.29,1.71,1.71,0,0,0,.18-.43A2.38,2.38,0,0,0,29,39.62Z"/>
  <path class="cls-1" d="M36.44,35.51l-.74,8.12-2,.17-.82-4.42-.42,4.43-1.72-.1.62-8.5,1.92,0,1.08,4.4.29-4.08Z"/>
  <path class="cls-1" d="M40.36,41.16a5.1,5.1,0,0,1-.26,1.43,3.08,3.08,0,0,1-.56,1,2,2,0,0,1-1.69.72,1.27,1.27,0,0,1-.41-.1A3.6,3.6,0,0,1,37,44l-.43-.28-.36-.28L36.51,41a2.29,2.29,0,0,0,.7.51,2.09,2.09,0,0,0,.77.2h.18a.57.57,0,0,0,.2,0,.42.42,0,0,0,.17-.13.44.44,0,0,0,.08-.25.39.39,0,0,0,0-.2.4.4,0,0,0-.11-.14.56.56,0,0,0-.16-.09l-.18,0-.16,0h-.12a1.06,1.06,0,0,1-.59-.21,1.55,1.55,0,0,1-.43-.53,2.71,2.71,0,0,1-.26-.78,4.06,4.06,0,0,1-.05-1A4.12,4.12,0,0,1,36.75,37a3.1,3.1,0,0,1,.54-.93,2.19,2.19,0,0,1,.73-.56,1.71,1.71,0,0,1,.83-.16l.39,0a2.52,2.52,0,0,1,.39.1,2.62,2.62,0,0,1,.38.16,1.89,1.89,0,0,1,.34.23l-.28,2.43a3.46,3.46,0,0,0-.53-.26,1.79,1.79,0,0,0-.55-.12h-.29l-.18,0-.16.07a.37.37,0,0,0-.12.13.41.41,0,0,0,0,.2.37.37,0,0,0,.05.22.4.4,0,0,0,.15.13.75.75,0,0,0,.2.07l.22,0H39l.16,0a1.13,1.13,0,0,1,.54.24,1.49,1.49,0,0,1,.39.49,2.37,2.37,0,0,1,.22.7A4,4,0,0,1,40.36,41.16Z"/>
  <path class="cls-1" d="M44.86,36l-.18,2.54H43.54l-.62,5.67-1.62,0,.33-5.69-1.15,0,.21-2.83Z"/>
  <path class="cls-1" d="M49.4,39.08a6.36,6.36,0,0,1-.1.85,3.57,3.57,0,0,1-.2.69,2.71,2.71,0,0,1-.32.57,3.14,3.14,0,0,1-.45.49l.77,2.6-1.75.43-.44-2.59h-.48l-.21,2.49-1.65-.09q.1-1.37.19-2.72t.2-2.72L45,37.7q0-.68.11-1.37a3.82,3.82,0,0,1,.54-.23,3.44,3.44,0,0,1,.53-.13,3.94,3.94,0,0,1,.54,0h.55a2,2,0,0,1,.83.24,2.07,2.07,0,0,1,.69.61,2.92,2.92,0,0,1,.45,1A4.13,4.13,0,0,1,49.4,39.08Zm-1.73.09a2.27,2.27,0,0,0,0-.46,1.26,1.26,0,0,0-.11-.37.69.69,0,0,0-.2-.25.53.53,0,0,0-.3-.1H46.9l-.14,0-.19,2.23h.09a.92.92,0,0,0,.34,0,.87.87,0,0,0,.32-.19,1.06,1.06,0,0,0,.24-.34A1.39,1.39,0,0,0,47.68,39.17Z"/>
  <path class="cls-1" d="M53.46,36.43q-.06.56-.11,1.11t-.11,1.11l-1.63,0-.08.75,1.14.07-.19,1.85H51.32l-.09.87.95.05.67,0-.12,1.31q-.06.65-.12,1.3l-3.31-.07.62-8.64Z"/>
</svg>
