<?xml version="1.0" encoding="utf-8"?>
<!-- Generator: Adobe Illustrator 22.0.1, SVG Export Plug-In . SVG Version: 6.00 Build 0)  -->
<svg version="1.1" id="Layer_1" xmlns="http://www.w3.org/2000/svg" xmlns:xlink="http://www.w3.org/1999/xlink" x="0px" y="0px"
	 viewBox="0 0 280 85" style="enable-background:new 0 0 280 85;" xml:space="preserve">
<style type="text/css">
	.st0{fill:#76323F;}
	.st1{fill:#C09F80;}
	.st2{fill:#6D7993;}
	.st3{fill:url(#SVGID_1_);}
	.st4{fill:#FAFAFA;}
	.st5{fill:url(#SVGID_2_);}
	.st6{fill:#FFFFFF;}
	.st7{fill:url(#SVGID_3_);}
	.st8{fill:url(#SVGID_4_);}
	.st9{fill:url(#SVGID_5_);}
	.st10{fill:#D7CEC7;}
	.st11{fill:url(#SVGID_6_);}
	.st12{fill:url(#SVGID_7_);}
	.st13{fill:url(#SVGID_8_);}
	.st14{fill:url(#SVGID_9_);}
	.st15{fill:url(#SVGID_10_);}
	.st16{opacity:0.5;fill:#D7CEC7;}
	.st17{fill:url(#SVGID_11_);}
	.st18{fill:url(#SVGID_12_);}
	.st19{fill:url(#SVGID_13_);}
	.st20{fill:url(#SVGID_14_);}
	.st21{fill:url(#SVGID_15_);}
	.st22{fill:url(#SVGID_16_);}
	.st23{fill:none;}
</style>
<rect x="-0.3" y="0.1" class="st0" width="279.9" height="84.4"/>
<g>
	<path class="st6" d="M150.5,52.9l3.9,3.5c-0.1,0.9,0,1.7,0.5,2.3c0.4,0.5,0.9,0.4,1.4,0.1c0.2-0.5,0.3-1,0.1-1.5
		c0.5,0.9,1.5,1.6,2.6,2.2c1.6,0,2.2-0.9,2.3-2.4c-1.8-3.2-4.8-5.5-8.1-6.3L150.5,52.9z"/>
	<g>

			<linearGradient id="SVGID_1_" gradientUnits="userSpaceOnUse" x1="-224.8306" y1="2293.1514" x2="-205.8331" y2="2293.1514" gradientTransform="matrix(0.6465 0.7629 -0.7629 0.6465 2015.1907 -1256.408)">
			<stop  offset="0" style="stop-color:#FFFFFF"/>
			<stop  offset="1" style="stop-color:#EDEDED"/>
		</linearGradient>
		<path class="st3" d="M140.1,62.3c-1,1.6-7.2,6.8-15.4,12.2l-10.9-12c0.1-2.7,1.4-4.6,5.8-4.6c3.1,0,5.8,0.5,5.7,5.8
			c2.5-3.1,5.6-5.7,9.4-7.4L140.1,62.3z"/>

			<linearGradient id="SVGID_2_" gradientUnits="userSpaceOnUse" x1="669.757" y1="-912.3359" x2="689.49" y2="-912.3359" gradientTransform="matrix(1 -3.905233e-03 3.905233e-03 1 -535.4558 983.8265)">
			<stop  offset="0" style="stop-color:#FFFFFF"/>
			<stop  offset="1" style="stop-color:#EDEDED"/>
		</linearGradient>
		<path class="st5" d="M149.9,59.4c0.7,1.7,0.8,9.4-0.1,18.6l-17.1,0.2c-2.2-1.8-2.9-3.9,0-7c2-2.2,4.2-3.8,8.6-0.4
			c-0.9-3.8-1-7.5,0.1-11.3L149.9,59.4z"/>

			<linearGradient id="SVGID_3_" gradientUnits="userSpaceOnUse" x1="133.1271" y1="66.8721" x2="155.9921" y2="66.8721" gradientTransform="matrix(0.9726 0.2324 -0.2324 0.9726 18.3474 -47.2127)">
			<stop  offset="0" style="stop-color:#FFFFFF"/>
			<stop  offset="1" style="stop-color:#EDEDED"/>
		</linearGradient>
		<path class="st7" d="M151,62.9c-7.1,0-13.8-1.4-20-4.3c0-5.7,1.2-11.1,3.5-16.2c0.5-1.1,1.1-2.2,1.7-3.3l20,4.3
			C156.3,49.1,154.2,55.8,151,62.9z"/>
		<ellipse transform="matrix(0.9917 -0.1287 0.1287 0.9917 -1.872 19.2908)" class="st6" cx="148.4" cy="24.1" rx="22.7" ry="21"/>

			<linearGradient id="SVGID_4_" gradientUnits="userSpaceOnUse" x1="120.3254" y1="39.2024" x2="164.1326" y2="39.2024" gradientTransform="matrix(0.9726 0.2324 -0.2324 0.9726 18.3474 -47.2127)">
			<stop  offset="0" style="stop-color:#FFFFFF"/>
			<stop  offset="1" style="stop-color:#EDEDED"/>
		</linearGradient>
		<path class="st8" d="M169,28.5c-2.9,11-14.9,17.9-26.8,15.4c-11.8-2.5-19-13.5-16.1-24.5c2.9-11,14.9-17.9,26.8-15.4
			C164.7,6.5,171.9,17.5,169,28.5z"/>
		<ellipse transform="matrix(0.4948 -0.869 0.869 0.4948 52.5852 132.4491)" cx="140.2" cy="21" rx="15.2" ry="11.1"/>
		<ellipse transform="matrix(0.9917 -0.1287 0.1287 0.9917 -1.9599 17.8373)" class="st6" cx="137.1" cy="24.1" rx="2.3" ry="2.1"/>
		<path class="st6" d="M135.1,49.6l-5.4,0.4c-0.5,0.7-1.2,1.3-2,1.5c-0.7,0.1-1-0.2-1.1-0.7c0.2-0.5,0.5-0.9,1-1.3
			c-1.1,0.4-2.3,0.4-3.6,0.2c-1.2-0.9-1.1-2,0-3.2c3.6-1.4,7.6-1.4,10.7-0.1L135.1,49.6z"/>
	</g>
</g>
</svg>
