<svg id="Layer_4" data-name="Layer 4" xmlns="http://www.w3.org/2000/svg" xmlns:xlink="http://www.w3.org/1999/xlink" viewBox="0 0 1507.76 797.65">
  <defs>
    <style>
      .cls-1 {
        fill: url(#linear-gradient);
      }

      .cls-2 {
        fill: #fff;
      }

      .cls-3 {
        fill: url(#linear-gradient-2);
      }

      .cls-4 {
        fill: url(#linear-gradient-3);
      }

      .cls-5 {
        fill: #2f0d00;
      }

      .cls-6 {
        fill: url(#linear-gradient-4);
      }

      .cls-7 {
        fill: url(#linear-gradient-5);
      }

      .cls-8 {
        fill: url(#linear-gradient-6);
      }

      .cls-9 {
        fill: url(#linear-gradient-7);
      }

      .cls-10 {
        fill: url(#linear-gradient-8);
      }

      .cls-11 {
        fill: url(#linear-gradient-9);
      }

      .cls-12 {
        fill: url(#linear-gradient-10);
      }

      .cls-13 {
        fill: url(#linear-gradient-11);
      }

      .cls-14 {
        fill: url(#linear-gradient-12);
      }

      .cls-15 {
        fill: url(#linear-gradient-13);
      }

      .cls-16 {
        fill: url(#linear-gradient-14);
      }

      .cls-17 {
        fill: url(#linear-gradient-15);
      }

      .cls-18 {
        fill: url(#linear-gradient-16);
      }

      .cls-19 {
        fill: url(#linear-gradient-17);
      }

      .cls-20 {
        fill: url(#linear-gradient-18);
      }

      .cls-21 {
        fill: url(#linear-gradient-19);
      }

      .cls-22 {
        fill: url(#linear-gradient-20);
      }

      .cls-23 {
        fill: url(#linear-gradient-21);
      }

      .cls-24 {
        fill: url(#linear-gradient-22);
      }

      .cls-25 {
        fill: url(#linear-gradient-23);
      }

      .cls-26 {
        fill: url(#linear-gradient-24);
      }

      .cls-27 {
        fill: url(#linear-gradient-25);
      }

      .cls-28 {
        fill: url(#linear-gradient-26);
      }

      .cls-29 {
        fill: url(#linear-gradient-27);
      }

      .cls-30 {
        fill: url(#linear-gradient-28);
      }

      .cls-31 {
        fill: url(#linear-gradient-29);
      }

      .cls-32 {
        fill: url(#linear-gradient-30);
      }

      .cls-33 {
        fill: url(#linear-gradient-31);
      }

      .cls-34 {
        fill: url(#linear-gradient-32);
      }

      .cls-35 {
        fill: url(#linear-gradient-33);
      }

      .cls-36 {
        fill: url(#linear-gradient-34);
      }

      .cls-37 {
        fill: url(#linear-gradient-35);
      }

      .cls-38 {
        fill: url(#linear-gradient-36);
      }

      .cls-39 {
        fill: url(#linear-gradient-37);
      }

      .cls-40 {
        fill: url(#linear-gradient-38);
      }

      .cls-41 {
        fill: url(#linear-gradient-39);
      }

      .cls-42 {
        fill: url(#linear-gradient-40);
      }

      .cls-43 {
        fill: url(#linear-gradient-41);
      }

      .cls-44 {
        fill: url(#linear-gradient-42);
      }

      .cls-45 {
        fill: url(#linear-gradient-43);
      }

      .cls-46 {
        fill: url(#linear-gradient-44);
      }

      .cls-47 {
        fill: url(#linear-gradient-45);
      }

      .cls-48 {
        fill: url(#linear-gradient-46);
      }

      .cls-49 {
        fill: url(#linear-gradient-47);
      }

      .cls-50 {
        fill: url(#linear-gradient-48);
      }

      .cls-51 {
        fill: url(#linear-gradient-49);
      }

      .cls-52 {
        fill: url(#linear-gradient-50);
      }

      .cls-53 {
        fill: url(#linear-gradient-51);
      }

      .cls-54 {
        fill: url(#linear-gradient-52);
      }

      .cls-55 {
        fill: url(#linear-gradient-53);
      }

      .cls-56 {
        fill: url(#linear-gradient-54);
      }

      .cls-57 {
        fill: url(#linear-gradient-55);
      }

      .cls-58 {
        fill: url(#linear-gradient-56);
      }

      .cls-59 {
        fill: url(#linear-gradient-57);
      }

      .cls-60 {
        fill: url(#linear-gradient-58);
      }

      .cls-61 {
        fill: url(#linear-gradient-59);
      }

      .cls-62 {
        fill: url(#linear-gradient-60);
      }

      .cls-63 {
        fill: url(#linear-gradient-61);
      }

      .cls-64 {
        fill: url(#linear-gradient-62);
      }

      .cls-65 {
        fill: url(#linear-gradient-63);
      }

      .cls-66 {
        fill: url(#linear-gradient-64);
      }

      .cls-67 {
        fill: url(#linear-gradient-65);
      }

      .cls-68 {
        fill: url(#linear-gradient-66);
      }

      .cls-69 {
        fill: url(#linear-gradient-67);
      }

      .cls-70 {
        fill: url(#linear-gradient-68);
      }

      .cls-71 {
        fill: url(#linear-gradient-69);
      }

      .cls-72 {
        fill: url(#linear-gradient-70);
      }

      .cls-73 {
        fill: url(#linear-gradient-71);
      }

      .cls-74 {
        fill: url(#linear-gradient-72);
      }

      .cls-75 {
        fill: url(#linear-gradient-73);
      }

      .cls-76 {
        fill: url(#linear-gradient-74);
      }

      .cls-77 {
        fill: url(#linear-gradient-75);
      }

      .cls-78 {
        fill: none;
      }
    </style>
    <linearGradient id="linear-gradient" x1="51.32" y1="222.36" x2="110.98" y2="222.36" gradientTransform="translate(0.2 0.96) rotate(-0.04)" gradientUnits="userSpaceOnUse">
      <stop offset="0" stop-color="#fff"/>
      <stop offset="1" stop-color="#e3e2e1"/>
    </linearGradient>
    <linearGradient id="linear-gradient-2" x1="620.6" y1="-355.41" x2="656.55" y2="-355.41" gradientTransform="matrix(-0.6, 0.8, -0.8, -0.6, 167.99, -554.05)" xlink:href="#linear-gradient"/>
    <linearGradient id="linear-gradient-3" x1="77.57" y1="160.62" x2="147.36" y2="160.62" xlink:href="#linear-gradient"/>
    <linearGradient id="linear-gradient-4" x1="1538.03" y1="222.36" x2="1597.69" y2="222.36" gradientTransform="matrix(-1, 0, 0, 1, 1713.41, -0.1)" xlink:href="#linear-gradient"/>
    <linearGradient id="linear-gradient-5" x1="260.78" y1="222.49" x2="320.44" y2="222.49" xlink:href="#linear-gradient"/>
    <linearGradient id="linear-gradient-6" x1="287.02" y1="160.75" x2="356.82" y2="160.75" xlink:href="#linear-gradient"/>
    <linearGradient id="linear-gradient-7" x1="1328.58" y1="222.49" x2="1388.24" y2="222.49" gradientTransform="matrix(-1, 0, 0, 1, 1713.41, -0.1)" xlink:href="#linear-gradient"/>
    <linearGradient id="linear-gradient-8" x1="465.05" y1="222.62" x2="524.72" y2="222.62" xlink:href="#linear-gradient"/>
    <linearGradient id="linear-gradient-9" x1="491.3" y1="160.88" x2="561.09" y2="160.88" xlink:href="#linear-gradient"/>
    <linearGradient id="linear-gradient-10" x1="1124.3" y1="222.62" x2="1183.96" y2="222.62" gradientTransform="matrix(-1, 0, 0, 1, 1713.41, -0.1)" xlink:href="#linear-gradient"/>
    <linearGradient id="linear-gradient-11" x1="689.06" y1="222.76" x2="748.72" y2="222.76" xlink:href="#linear-gradient"/>
    <linearGradient id="linear-gradient-12" x1="715.3" y1="161.02" x2="785.09" y2="161.02" xlink:href="#linear-gradient"/>
    <linearGradient id="linear-gradient-13" x1="900.3" y1="222.76" x2="959.96" y2="222.76" gradientTransform="matrix(-1, 0, 0, 1, 1713.41, -0.1)" xlink:href="#linear-gradient"/>
    <linearGradient id="linear-gradient-14" x1="903.85" y1="222.89" x2="963.51" y2="222.89" xlink:href="#linear-gradient"/>
    <linearGradient id="linear-gradient-15" x1="930.1" y1="161.15" x2="999.89" y2="161.15" xlink:href="#linear-gradient"/>
    <linearGradient id="linear-gradient-16" x1="685.5" y1="222.89" x2="745.16" y2="222.89" gradientTransform="matrix(-1, 0, 0, 1, 1713.41, -0.1)" xlink:href="#linear-gradient"/>
    <linearGradient id="linear-gradient-17" x1="1121.64" y1="223.03" x2="1181.31" y2="223.03" xlink:href="#linear-gradient"/>
    <linearGradient id="linear-gradient-18" x1="1147.89" y1="161.29" x2="1217.68" y2="161.29" xlink:href="#linear-gradient"/>
    <linearGradient id="linear-gradient-19" x1="467.71" y1="223.03" x2="527.37" y2="223.03" gradientTransform="matrix(-1, 0, 0, 1, 1713.41, -0.1)" xlink:href="#linear-gradient"/>
    <linearGradient id="linear-gradient-20" x1="73.63" y1="490.65" x2="132.59" y2="490.65" gradientTransform="matrix(1, 0, 0, 1, 0, 0)" xlink:href="#linear-gradient"/>
    <linearGradient id="linear-gradient-21" x1="108.18" y1="490.65" x2="167.14" y2="490.65" gradientTransform="matrix(1, 0, 0, 1, 0, 0)" xlink:href="#linear-gradient"/>
    <linearGradient id="linear-gradient-22" x1="103.18" y1="433.94" x2="172.15" y2="433.94" gradientTransform="matrix(1, 0, 0, 1, 0, 0)" xlink:href="#linear-gradient"/>
    <linearGradient id="linear-gradient-23" x1="62.26" y1="344.66" x2="194.75" y2="344.66" gradientTransform="matrix(1, 0, 0, 1, 0, 0)" xlink:href="#linear-gradient"/>
    <linearGradient id="linear-gradient-24" x1="-22.67" y1="1175.05" x2="36.28" y2="1175.05" gradientTransform="translate(810.82 -650.57) rotate(15.35)" xlink:href="#linear-gradient"/>
    <linearGradient id="linear-gradient-25" x1="516.76" y1="489.98" x2="575.72" y2="489.98" gradientTransform="matrix(1, 0, 0, 1, 0, 0)" xlink:href="#linear-gradient"/>
    <linearGradient id="linear-gradient-26" x1="511.76" y1="433.27" x2="580.73" y2="433.27" gradientTransform="matrix(1, 0, 0, 1, 0, 0)" xlink:href="#linear-gradient"/>
    <linearGradient id="linear-gradient-27" x1="470.84" y1="344" x2="603.33" y2="344" gradientTransform="matrix(1, 0, 0, 1, 0, 0)" xlink:href="#linear-gradient"/>
    <linearGradient id="linear-gradient-28" x1="-92.2" y1="946.96" x2="-33.25" y2="946.96" gradientTransform="translate(536.75 -433.6) rotate(10.49)" xlink:href="#linear-gradient"/>
    <linearGradient id="linear-gradient-29" x1="307.71" y1="489.84" x2="366.67" y2="489.84" gradientTransform="matrix(1, 0, 0, 1, 0, 0)" xlink:href="#linear-gradient"/>
    <linearGradient id="linear-gradient-30" x1="302.7" y1="433.13" x2="371.67" y2="433.13" gradientTransform="matrix(1, 0, 0, 1, 0, 0)" xlink:href="#linear-gradient"/>
    <linearGradient id="linear-gradient-31" x1="261.79" y1="343.86" x2="394.28" y2="343.86" gradientTransform="matrix(1, 0, 0, 1, 0, 0)" xlink:href="#linear-gradient"/>
    <linearGradient id="linear-gradient-32" x1="-1.67" y1="2797.68" x2="57.28" y2="2797.68" gradientTransform="matrix(0.75, 0.66, -0.66, 0.75, 2547.84, -1650.61)" xlink:href="#linear-gradient"/>
    <linearGradient id="linear-gradient-33" x1="586.97" y1="771.19" x2="645.92" y2="771.19" gradientTransform="matrix(1, 0.09, -0.09, 1, 217.16, -333.02)" xlink:href="#linear-gradient"/>
    <linearGradient id="linear-gradient-34" x1="581.96" y1="714.48" x2="650.93" y2="714.48" gradientTransform="matrix(1, 0.09, -0.09, 1, 217.16, -333.02)" xlink:href="#linear-gradient"/>
    <linearGradient id="linear-gradient-35" x1="541.04" y1="625.2" x2="673.54" y2="625.2" gradientTransform="matrix(1, 0.09, -0.09, 1, 217.16, -333.02)" xlink:href="#linear-gradient"/>
    <linearGradient id="linear-gradient-36" x1="460.02" y1="2105.5" x2="518.97" y2="2105.5" gradientTransform="matrix(0.81, 0.59, -0.59, 0.81, 2208.6, -1513.35)" xlink:href="#linear-gradient"/>
    <linearGradient id="linear-gradient-37" x1="1992.14" y1="-218.75" x2="2051.1" y2="-218.75" gradientTransform="matrix(0.97, -0.24, 0.24, 0.97, -509.02, 1175.88)" xlink:href="#linear-gradient"/>
    <linearGradient id="linear-gradient-38" x1="1363.75" y1="429.75" x2="1432.72" y2="429.75" gradientTransform="matrix(1, 0, 0, 1, 0, 0)" xlink:href="#linear-gradient"/>
    <linearGradient id="linear-gradient-39" x1="1322.84" y1="340.48" x2="1455.33" y2="340.48" gradientTransform="matrix(1, 0, 0, 1, 0, 0)" xlink:href="#linear-gradient"/>
    <linearGradient id="linear-gradient-40" x1="251.14" y1="2914.65" x2="310.09" y2="2914.65" gradientTransform="translate(2761.31 -1812.42) rotate(44.2)" xlink:href="#linear-gradient"/>
    <linearGradient id="linear-gradient-41" x1="1239.11" y1="139.07" x2="1298.07" y2="139.07" gradientTransform="translate(-300.64 477.09) rotate(-5.75)" xlink:href="#linear-gradient"/>
    <linearGradient id="linear-gradient-42" x1="716.52" y1="958.38" x2="785.49" y2="958.38" gradientTransform="translate(365.41 -617.52) rotate(7.91)" xlink:href="#linear-gradient"/>
    <linearGradient id="linear-gradient-43" x1="675.6" y1="869.1" x2="808.1" y2="869.1" gradientTransform="translate(365.41 -617.52) rotate(7.91)" xlink:href="#linear-gradient"/>
    <linearGradient id="linear-gradient-44" x1="459.94" y1="2863.65" x2="518.43" y2="2863.65" gradientTransform="translate(2796.93 -1918.09) rotate(44.5)" xlink:href="#linear-gradient"/>
    <linearGradient id="linear-gradient-45" x1="2712.81" y1="-1142.53" x2="2771.09" y2="-1142.53" gradientTransform="translate(-757.96 2725.02) rotate(-26.34)" xlink:href="#linear-gradient"/>
    <linearGradient id="linear-gradient-46" x1="915.08" y1="1041.9" x2="984.03" y2="1041.9" gradientTransform="translate(394.66 -736.04) rotate(8.22)" xlink:href="#linear-gradient"/>
    <linearGradient id="linear-gradient-47" x1="874.59" y1="955.54" x2="1006.99" y2="955.54" gradientTransform="translate(394.66 -736.04) rotate(8.22)" xlink:href="#linear-gradient"/>
    <linearGradient id="linear-gradient-48" x1="-8555.67" y1="764.93" x2="-8495.98" y2="764.93" gradientTransform="matrix(-1, 0, 0, 1, -7098.66, 0)" xlink:href="#linear-gradient"/>
    <linearGradient id="linear-gradient-49" x1="-8520.69" y1="764.93" x2="-8461.01" y2="764.93" gradientTransform="matrix(-1, 0, 0, 1, -7098.66, 0)" xlink:href="#linear-gradient"/>
    <linearGradient id="linear-gradient-50" x1="-8525.76" y1="707.52" x2="-8455.94" y2="707.52" gradientTransform="matrix(-1, 0, 0, 1, -7098.66, 0)" xlink:href="#linear-gradient"/>
    <linearGradient id="linear-gradient-51" x1="-8567.18" y1="617.15" x2="-8433.05" y2="617.15" gradientTransform="matrix(-1, 0, 0, 1, -7098.66, 0)" xlink:href="#linear-gradient"/>
    <linearGradient id="linear-gradient-52" x1="-8240.62" y1="3714.59" x2="-8180.94" y2="3714.59" gradientTransform="matrix(-0.96, 0.26, 0.26, 0.96, -7909.47, -650.57)" xlink:href="#linear-gradient"/>
    <linearGradient id="linear-gradient-53" x1="-8079.78" y1="764.26" x2="-8020.1" y2="764.26" gradientTransform="matrix(-1, 0, 0, 1, -7098.66, 0)" xlink:href="#linear-gradient"/>
    <linearGradient id="linear-gradient-54" x1="-8084.85" y1="706.85" x2="-8015.03" y2="706.85" gradientTransform="matrix(-1, 0, 0, 1, -7098.66, 0)" xlink:href="#linear-gradient"/>
    <linearGradient id="linear-gradient-55" x1="-8126.27" y1="616.48" x2="-7992.15" y2="616.48" gradientTransform="matrix(-1, 0, 0, 1, -7098.66, 0)" xlink:href="#linear-gradient"/>
    <linearGradient id="linear-gradient-56" x1="-8500.01" y1="2782.87" x2="-8440.33" y2="2782.87" gradientTransform="matrix(-0.98, 0.18, 0.18, 0.98, -7635.41, -433.6)" xlink:href="#linear-gradient"/>
    <linearGradient id="linear-gradient-57" x1="-8293.42" y1="764.12" x2="-8233.74" y2="764.12" gradientTransform="matrix(-1, 0, 0, 1, -7098.66, 0)" xlink:href="#linear-gradient"/>
    <linearGradient id="linear-gradient-58" x1="-8298.49" y1="706.71" x2="-8228.67" y2="706.71" gradientTransform="matrix(-1, 0, 0, 1, -7098.66, 0)" xlink:href="#linear-gradient"/>
    <linearGradient id="linear-gradient-59" x1="-8339.91" y1="616.34" x2="-8205.78" y2="616.34" gradientTransform="matrix(-1, 0, 0, 1, -7098.66, 0)" xlink:href="#linear-gradient"/>
    <linearGradient id="linear-gradient-60" x1="-6298.31" y1="8678.61" x2="-6238.63" y2="8678.61" gradientTransform="matrix(-0.75, 0.66, 0.66, 0.75, -9646.5, -1650.61)" xlink:href="#linear-gradient"/>
    <linearGradient id="linear-gradient-61" x1="-7968.56" y1="1785.73" x2="-7908.88" y2="1785.73" gradientTransform="matrix(-1, 0.09, 0.09, 1, -7315.82, -333.02)" xlink:href="#linear-gradient"/>
    <linearGradient id="linear-gradient-62" x1="-7973.63" y1="1728.32" x2="-7903.81" y2="1728.32" gradientTransform="matrix(-1, 0.09, 0.09, 1, -7315.82, -333.02)" xlink:href="#linear-gradient"/>
    <linearGradient id="linear-gradient-63" x1="-8015.05" y1="1637.95" x2="-7880.93" y2="1637.95" gradientTransform="matrix(-1, 0.09, 0.09, 1, -7315.82, -333.02)" xlink:href="#linear-gradient"/>
    <linearGradient id="linear-gradient-64" x1="-6312.81" y1="7417.64" x2="-6253.13" y2="7417.64" gradientTransform="matrix(-0.81, 0.59, 0.59, 0.81, -9307.25, -1513.35)" xlink:href="#linear-gradient"/>
    <linearGradient id="linear-gradient-65" x1="-6432.01" y1="-1983.77" x2="-6372.32" y2="-1983.77" gradientTransform="matrix(-0.97, -0.24, -0.24, 0.97, -6589.64, 1175.88)" xlink:href="#linear-gradient"/>
    <linearGradient id="linear-gradient-66" x1="-7239.08" y1="703.29" x2="-7169.26" y2="703.29" gradientTransform="matrix(-1, 0, 0, 1, -7098.66, 0)" xlink:href="#linear-gradient"/>
    <linearGradient id="linear-gradient-67" x1="-7280.5" y1="612.92" x2="-7146.38" y2="612.92" gradientTransform="matrix(-1, 0, 0, 1, -7098.66, 0)" xlink:href="#linear-gradient"/>
    <linearGradient id="linear-gradient-68" x1="-5734.05" y1="9116.41" x2="-5674.36" y2="9116.41" gradientTransform="matrix(-0.72, 0.7, 0.7, 0.72, -9859.97, -1812.42)" xlink:href="#linear-gradient"/>
    <linearGradient id="linear-gradient-69" x1="-7359.09" y1="-450.61" x2="-7299.41" y2="-450.61" gradientTransform="matrix(-0.99, -0.1, -0.1, 0.99, -6798.02, 477.09)" xlink:href="#linear-gradient"/>
    <linearGradient id="linear-gradient-70" x1="-7777.88" y1="2415.15" x2="-7708.06" y2="2415.15" gradientTransform="matrix(-0.99, 0.14, 0.14, 0.99, -7464.06, -617.52)" xlink:href="#linear-gradient"/>
    <linearGradient id="linear-gradient-71" x1="-7819.3" y1="2324.78" x2="-7685.17" y2="2324.78" gradientTransform="matrix(-0.99, 0.14, 0.14, 0.99, -7464.06, -617.52)" xlink:href="#linear-gradient"/>
    <linearGradient id="linear-gradient-72" x1="-5490.75" y1="9093.51" x2="-5431.06" y2="9093.51" gradientTransform="matrix(-0.71, 0.7, 0.7, 0.71, -9895.58, -1918.09)" xlink:href="#linear-gradient"/>
    <linearGradient id="linear-gradient-73" x1="-5125.22" y1="-4717.93" x2="-5065.54" y2="-4717.93" gradientTransform="matrix(-0.9, -0.44, -0.44, 0.9, -6340.69, 2725.02)" xlink:href="#linear-gradient"/>
    <linearGradient id="linear-gradient-74" x1="-7568.2" y1="2540.68" x2="-7498.39" y2="2540.68" gradientTransform="matrix(-0.99, 0.14, 0.14, 0.99, -7493.31, -736.04)" xlink:href="#linear-gradient"/>
    <linearGradient id="linear-gradient-75" x1="-7609.62" y1="2450.31" x2="-7475.5" y2="2450.31" gradientTransform="matrix(-0.99, 0.14, 0.14, 0.99, -7493.31, -736.04)" xlink:href="#linear-gradient"/>
  </defs>
  <title>astronautspritesheet</title>
  <g id="astronaut1">
    <g>
      <path class="cls-1" d="M109.5,192.78c2,5.6,2.74,30.91,0,60.95l-52,0c-6.72-5.89-8.84-13,0-23.07,6.05-7.06,12.83-12.24,26-.84-2.77-12.34-3.2-24.67,0-37.06Z"/>
      <path class="cls-2" d="M140.47,160.5l11.07,12.34a10.87,10.87,0,0,0,1,7.6,2.6,2.6,0,0,0,4.08.59,7.77,7.77,0,0,0,.71-5c1.38,3.22,4.19,5.71,7.5,7.94,4.78.43,6.89-2.42,7.37-7.3-4.84-10.77-13.45-19-23.31-22.75Z"/>
      <path class="cls-3" d="M86.57,159.32,76.46,172.44A10.93,10.93,0,0,1,76,180.1a2.62,2.62,0,0,1-4,.89,7.89,7.89,0,0,1-1.08-4.91c-1.13,3.32-3.74,6-6.89,8.48-4.72.78-7.05-1.91-7.89-6.73,4-11.11,12-20,21.57-24.42Z"/>
      <path class="cls-4" d="M144.46,192.47a137,137,0,0,1-62.62,0,137.45,137.45,0,0,1-2.35-53.92c.61-3.89,1.37-7.77,2.31-11.65l62.62,0C149.28,144.86,148.13,167.65,144.46,192.47Z"/>
      <g>
        <ellipse class="cls-2" cx="111.23" cy="76.47" rx="68.78" ry="68.8"/>
        <ellipse class="cls-5" cx="111.23" cy="76.47" rx="64.2" ry="64.22"/>
        <ellipse class="cls-2" cx="90.98" cy="37.91" rx="13.19" ry="13.2"/>
      </g>
      <path class="cls-6" d="M117.64,192.78c-2,5.6-2.71,30.91,0,60.95l52,0c6.71-5.9,8.82-13,0-23.07-6.06-7-12.85-12.22-26-.8,2.75-12.35,3.17-24.68,0-37.07Z"/>
    </g>
    <g>
      <path class="cls-2" d="M295.91,156.28l-16.56,0a10.88,10.88,0,0,0-6.32-4.35,2.6,2.6,0,0,0-3.16,2.63,7.79,7.79,0,0,0,3.21,3.86c-3.32-1.13-7.05-.71-10.92.26-3.51,3.26-2.81,6.74.49,10.36,11.24,3.61,23.16,2.76,32.5-2.09Z"/>
      <path class="cls-7" d="M319,192.78c2.06,5.6,2.75,30.91,0,60.95l-52,0c-6.72-5.89-8.84-13,0-23.07,6-7.06,12.83-12.24,26-.84-2.76-12.34-3.19-24.67,0-37.06Z"/>
      <path class="cls-2" d="M349.93,160.5,361,172.84a10.87,10.87,0,0,0,1,7.6,2.6,2.6,0,0,0,4.08.59,7.83,7.83,0,0,0,.71-5c1.38,3.22,4.18,5.71,7.5,7.94,4.77.43,6.89-2.42,7.37-7.3-4.85-10.77-13.46-19-23.32-22.75Z"/>
      <path class="cls-8" d="M353.91,192.47a136.94,136.94,0,0,1-62.61,0A137.26,137.26,0,0,1,289,138.59q.9-5.84,2.31-11.65l62.61,0C358.73,144.86,357.59,167.65,353.91,192.47Z"/>
      <ellipse class="cls-2" cx="320.68" cy="76.47" rx="68.78" ry="68.8"/>
      <ellipse class="cls-5" cx="320.68" cy="76.47" rx="64.2" ry="64.22"/>
      <ellipse class="cls-2" cx="309.02" cy="38.01" rx="13.19" ry="13.2"/>
      <path class="cls-9" d="M327.09,192.78c-2,5.6-2.71,30.91,0,60.95l52,0c6.71-5.9,8.82-13,0-23.07-6.06-7-12.84-12.22-26-.8,2.75-12.35,3.16-24.68,0-37.07Z"/>
    </g>
    <g>
      <path class="cls-2" d="M495.88,154.83l-15.67-5.38a10.92,10.92,0,0,0-4.57-6.16,2.62,2.62,0,0,0-3.85,1.48,7.84,7.84,0,0,0,1.8,4.69c-2.77-2.14-6.44-3-10.42-3.28-4.37,1.95-4.83,5.47-2.88,10,9.48,7,21,10.08,31.45,8.5Z"/>
      <path class="cls-10" d="M523.23,192.78c2.06,5.6,2.75,30.91,0,60.95l-52,0c-6.71-5.89-8.83-13,0-23.07,6.05-7.06,12.83-12.24,26-.84-2.76-12.34-3.2-24.67,0-37.06Z"/>
      <path class="cls-2" d="M554.21,160.5l11.06,12.34a10.81,10.81,0,0,0,1,7.6,2.59,2.59,0,0,0,4.07.59,7.84,7.84,0,0,0,.72-5c1.38,3.22,4.18,5.71,7.5,7.94,4.77.43,6.89-2.42,7.37-7.3-4.85-10.77-13.46-19-23.32-22.75Z"/>
      <path class="cls-11" d="M558.19,192.47a137,137,0,0,1-62.62,0,137.45,137.45,0,0,1-2.34-53.92q.9-5.84,2.3-11.65l62.62,0C563,144.86,561.87,167.65,558.19,192.47Z"/>
      <ellipse class="cls-2" cx="524.96" cy="76.47" rx="68.78" ry="68.8"/>
      <ellipse class="cls-5" cx="524.96" cy="76.47" rx="64.2" ry="64.22"/>
      <ellipse class="cls-2" cx="524.96" cy="37.91" rx="13.19" ry="13.2"/>
      <path class="cls-12" d="M531.37,192.78c-2,5.6-2.71,30.91,0,60.95l52,0c6.71-5.9,8.83-13,0-23.07-6.06-7-12.84-12.22-26-.8,2.74-12.35,3.16-24.68,0-37.07Z"/>
    </g>
    <g>
      <path class="cls-2" d="M723,155l-12.91-10.39a10.89,10.89,0,0,0-2.21-7.34,2.61,2.61,0,0,0-4.12.08,7.78,7.78,0,0,0,.1,5c-1.89-3-5.05-5-8.69-6.63-4.78.35-6.4,3.51-6.09,8.4,6.52,9.85,16.36,16.63,26.69,18.68Z"/>
      <path class="cls-13" d="M747.23,192.78c2.06,5.6,2.75,30.91,0,60.95l-52,0c-6.71-5.89-8.83-13,0-23.07,6-7.06,12.83-12.24,26-.84-2.76-12.34-3.19-24.67,0-37.06Z"/>
      <path class="cls-2" d="M778.21,160.5l11.06,12.34a10.81,10.81,0,0,0,1,7.6,2.59,2.59,0,0,0,4.07.59,7.77,7.77,0,0,0,.72-5c1.38,3.22,4.18,5.71,7.5,7.94,4.77.43,6.89-2.42,7.37-7.3-4.85-10.77-13.46-19-23.32-22.75Z"/>
      <path class="cls-14" d="M782.19,192.47a136.94,136.94,0,0,1-62.61,0,137.26,137.26,0,0,1-2.35-53.92q.9-5.84,2.31-11.65l62.61,0C787,144.86,785.87,167.65,782.19,192.47Z"/>
      <ellipse class="cls-2" cx="748.96" cy="76.47" rx="68.78" ry="68.8"/>
      <ellipse class="cls-5" cx="748.96" cy="76.47" rx="64.2" ry="64.22"/>
      <ellipse class="cls-2" cx="762.16" cy="38.01" rx="13.19" ry="13.2"/>
      <path class="cls-15" d="M755.37,192.78c-2,5.6-2.71,30.91,0,60.95l52,0c6.7-5.9,8.82-13,0-23.07-6.06-7-12.84-12.22-26-.8,2.74-12.35,3.16-24.68,0-37.07Z"/>
    </g>
    <g>
      <path class="cls-2" d="M935,152.47l-16.34,2.73a10.86,10.86,0,0,0-7-3.24,2.62,2.62,0,0,0-2.68,3.13,7.83,7.83,0,0,0,3.82,3.27c-3.46-.56-7.07.47-10.73,2.08-2.92,3.8-1.64,7.11,2.21,10.13,11.7,1.68,23.3-1.15,31.71-7.49Z"/>
      <path class="cls-16" d="M962,192.78c2.05,5.6,2.75,30.91,0,60.95l-52,0c-6.72-5.89-8.84-13,0-23.07,6.05-7.06,12.83-12.24,26-.84-2.76-12.34-3.2-24.67,0-37.06Z"/>
      <path class="cls-2" d="M993,160.5l11.06,12.34a10.87,10.87,0,0,0,1,7.6,2.6,2.6,0,0,0,4.08.59,7.84,7.84,0,0,0,.72-5c1.38,3.22,4.18,5.71,7.49,7.94,4.78.43,6.89-2.42,7.38-7.3-4.85-10.77-13.46-19-23.32-22.75Z"/>
      <path class="cls-17" d="M997,192.47a137,137,0,0,1-62.62,0A137.64,137.64,0,0,1,932,138.59q.91-5.84,2.31-11.65l62.62,0C1001.81,144.86,1000.66,167.65,997,192.47Z"/>
      <ellipse class="cls-2" cx="963.76" cy="76.47" rx="68.78" ry="68.8"/>
      <ellipse class="cls-5" cx="963.76" cy="76.47" rx="64.2" ry="64.22"/>
      <ellipse class="cls-2" cx="976.95" cy="38.01" rx="13.19" ry="13.2"/>
      <path class="cls-18" d="M970.17,192.78c-2,5.6-2.71,30.91,0,60.95l52,0c6.71-5.9,8.82-13,0-23.07-6.06-7-12.85-12.22-26-.8,2.75-12.35,3.17-24.68,0-37.07Z"/>
    </g>
    <g>
      <path class="cls-2" d="M1155.55,155l-12.91-10.39a10.89,10.89,0,0,0-2.21-7.34,2.61,2.61,0,0,0-4.12.08,7.78,7.78,0,0,0,.1,5c-1.89-3-5.06-5-8.69-6.63-4.78.35-6.4,3.51-6.09,8.4,6.52,9.85,16.36,16.63,26.69,18.68Z"/>
      <path class="cls-19" d="M1179.82,192.78c2.06,5.6,2.75,30.91,0,60.95l-52,0c-6.71-5.89-8.83-13,0-23.07,6.05-7.06,12.83-12.24,26-.84-2.76-12.34-3.2-24.67,0-37.06Z"/>
      <path class="cls-2" d="M1210.8,160.5l11.06,12.34a10.81,10.81,0,0,0,1,7.6,2.59,2.59,0,0,0,4.07.59,7.84,7.84,0,0,0,.72-5c1.38,3.22,4.18,5.71,7.5,7.94,4.77.43,6.89-2.42,7.37-7.3-4.85-10.77-13.46-19-23.32-22.75Z"/>
      <path class="cls-20" d="M1214.78,192.47a137,137,0,0,1-62.62,0,137.45,137.45,0,0,1-2.34-53.92q.9-5.84,2.3-11.65l62.62,0C1219.6,144.86,1218.46,167.65,1214.78,192.47Z"/>
      <ellipse class="cls-2" cx="1181.55" cy="76.47" rx="68.78" ry="68.8"/>
      <ellipse class="cls-5" cx="1181.55" cy="76.47" rx="64.2" ry="64.22"/>
      <ellipse class="cls-2" cx="1194.74" cy="38.01" rx="13.19" ry="13.2"/>
      <path class="cls-21" d="M1188,192.78c-2,5.6-2.71,30.91,0,60.95l52,0c6.71-5.9,8.82-13,0-23.07-6.06-7-12.84-12.22-26-.8,2.74-12.35,3.16-24.68,0-37.07Z"/>
    </g>
  </g>
  <g id="astronaut3">
    <g>
      <path class="cls-2" d="M163.45,428l12,11.19a10.72,10.72,0,0,0,1.64,7.4,2.57,2.57,0,0,0,4.06.22,7.71,7.71,0,0,0,.28-5c1.63,3.05,4.61,5.27,8.06,7.17,4.74,0,6.58-3,6.63-7.81-5.7-10.19-14.88-17.6-24.91-20.39Z"/>
      <path class="cls-22" d="M130.81,460.54c2,5.53,2.69,30.53,0,60.21H79.41c-6.63-5.82-8.72-12.85,0-22.78,6-7,12.69-12.08,25.7-.81-2.72-12.2-3.14-24.38,0-36.62Z"/>
      <path class="cls-23" d="M165.36,460.54c2,5.53,2.7,30.53,0,60.21H114c-6.64-5.82-8.73-12.85,0-22.78,6-7,12.68-12.08,25.69-.81-2.72-12.2-3.14-24.38,0-36.62Z"/>
      <path class="cls-2" d="M114.2,427l-12,11.19a10.69,10.69,0,0,1-1.64,7.4,2.57,2.57,0,0,1-4.06.23,7.77,7.77,0,0,1-.28-4.95c-1.63,3.05-4.61,5.26-8.06,7.17-4.74,0-6.58-3-6.63-7.82,5.7-10.18,14.88-17.59,24.91-20.39Z"/>
      <path class="cls-24" d="M169,464.53a135.3,135.3,0,0,1-61.88,0,135.81,135.81,0,0,1-2.29-53.26q.9-5.76,2.29-11.51H169C173.76,417.51,172.61,440,169,464.53Z"/>
      <circle class="cls-2" cx="130.97" cy="344.66" r="67.96"/>
      <g>
        <circle class="cls-25" cx="128.51" cy="344.66" r="66.25"/>
        <ellipse class="cls-5" cx="104.64" cy="340.27" rx="48.12" ry="34.03" transform="translate(-248.53 385.06) rotate(-80.13)"/>
        <circle class="cls-2" cx="97.89" cy="319.93" r="6.75"/>
      </g>
    </g>
    <g>
      <path class="cls-2" d="M570.72,426.34l11.94,11.19a10.77,10.77,0,0,0,1.64,7.4,2.57,2.57,0,0,0,4.06.23,7.67,7.67,0,0,0,.28-5c1.63,3.06,4.61,5.27,8.06,7.18,4.74,0,6.58-3,6.63-7.82-5.69-10.19-14.88-17.59-24.91-20.39Z"/>
      <path class="cls-2" d="M558.92,448.08,547,459.27a10.72,10.72,0,0,1-1.64,7.4,2.57,2.57,0,0,1-4.06.23,7.81,7.81,0,0,1-.28-5c-1.63,3.06-4.61,5.27-8.06,7.18-4.74,0-6.57-3-6.63-7.82,5.7-10.19,14.89-17.6,24.91-20.39Z"/>
      <path class="cls-26" d="M541.08,462.69c.49,5.87-5.48,30.16-15.93,58.06l-49.56-13.6c-4.86-7.37-5-14.7,6-22,7.61-5.14,15.43-8.29,25,6,.61-12.48,3.42-24.34,9.69-35.31Z"/>
      <path class="cls-27" d="M573.94,459.88c2,5.53,2.7,30.53,0,60.21H522.55c-6.63-5.82-8.73-12.86,0-22.78,6-7,12.68-12.09,25.69-.82-2.72-12.19-3.14-24.37,0-36.61Z"/>
      <path class="cls-28" d="M577.55,463.87a135.44,135.44,0,0,1-61.88,0,135.85,135.85,0,0,1-2.29-53.27q.9-5.75,2.29-11.5h61.88C582.34,416.84,581.19,439.36,577.55,463.87Z"/>
      <circle class="cls-2" cx="539.55" cy="344" r="67.96"/>
      <circle class="cls-29" cx="537.09" cy="344" r="66.25"/>
      <ellipse class="cls-5" cx="513.22" cy="339.61" rx="48.12" ry="34.03" transform="translate(90.7 787.05) rotate(-80.13)"/>
      <circle class="cls-2" cx="506.77" cy="329.52" r="6.75"/>
      <path class="cls-2" d="M521.55,434,509.6,445.17a10.72,10.72,0,0,1-1.64,7.4,2.57,2.57,0,0,1-4.06.22,7.71,7.71,0,0,1-.28-5c-1.63,3.05-4.61,5.26-8.06,7.17-4.74,0-6.58-3-6.63-7.81,5.7-10.19,14.88-17.6,24.91-20.39Z"/>
    </g>
    <g>
      <path class="cls-2" d="M361,428.11l13.15,9.75a10.81,10.81,0,0,0,2.46,7.17,2.59,2.59,0,0,0,4.07-.24,7.81,7.81,0,0,0-.29-5c2,2.85,5.18,4.71,8.83,6.21,4.7-.53,6.19-3.71,5.69-8.52-6.82-9.47-16.79-15.79-27.07-17.42Z"/>
      <path class="cls-30" d="M335.35,461.55c1,5.81-2.91,30.51-11,59.2l-50.54-9.36c-5.46-6.93-6.23-14.23,4.15-22.4,7.16-5.77,14.68-9.57,25.42,3.88-.46-12.48,1.34-24.54,6.66-36Z"/>
      <path class="cls-31" d="M364.88,459.74c2,5.53,2.7,30.53,0,60.21H313.49c-6.63-5.82-8.72-12.86,0-22.78,6-7,12.69-12.09,25.7-.82-2.72-12.19-3.14-24.37,0-36.61Z"/>
      <path class="cls-32" d="M368.49,463.73a135.44,135.44,0,0,1-61.88,0,135.67,135.67,0,0,1-2.28-53.27q.9-5.74,2.28-11.51h61.88C373.28,416.7,372.14,439.21,368.49,463.73Z"/>
      <circle class="cls-2" cx="330.5" cy="343.86" r="67.96"/>
      <g>
        <circle class="cls-33" cx="328.03" cy="343.86" r="66.25"/>
        <ellipse class="cls-5" cx="304.16" cy="339.47" rx="48.12" ry="34.03" transform="translate(-82.4 580.97) rotate(-80.13)"/>
        <circle class="cls-2" cx="297.41" cy="319.13" r="6.75"/>
      </g>
      <path class="cls-2" d="M312.21,430.33l-11.95,11.19a10.77,10.77,0,0,1-1.63,7.4,2.58,2.58,0,0,1-4.07.23,7.74,7.74,0,0,1-.27-5c-1.64,3.06-4.61,5.27-8.07,7.17-4.74,0-6.57-3-6.63-7.81,5.7-10.19,14.89-17.6,24.91-20.39Z"/>
    </g>
    <g>
      <path class="cls-2" d="M796.09,427.78l13.1,9.8a10.7,10.7,0,0,0,2.45,7.17c1.47,1.34,2.85,1.1,4.06-.22a7.71,7.71,0,0,0-.27-4.95c2,2.85,5.16,4.72,8.8,6.24,4.71-.51,6.21-3.69,5.73-8.5-6.78-9.5-16.73-15.85-27-17.52Z"/>
      <path class="cls-2" d="M770.82,395.94l14.36,7.85a10.79,10.79,0,0,0,3.43,6.76,2.57,2.57,0,0,0,4-.8,7.65,7.65,0,0,0-1-4.86c2.35,2.55,5.78,3.94,9.61,4.93,4.58-1.17,5.62-4.53,4.46-9.23-8.06-8.44-18.8-13.32-29.21-13.52Z"/>
      <path class="cls-34" d="M765.76,467.58c-2.12,5.49-18.09,24.74-39.68,45.28L687.43,479c-1.16-8.75,1.91-15.42,15-17.14,9.1-1.3,17.51-.73,19.86,16.32,6-11,13.7-20.4,24.13-27.54Z"/>
      <path class="cls-35" d="M795.11,460.77c1.55,5.68.06,30.65-5.18,60l-51.2-4.42c-6.11-6.37-7.59-13.56,2-22.7,6.56-6.43,13.68-10.95,25.67,1.4-1.66-12.38-1-24.55,3.15-36.48Z"/>
      <path class="cls-36" d="M798.36,465.05a135.49,135.49,0,0,1-61.64-5.32,135.74,135.74,0,0,1,2.3-53.27q1.4-5.65,3.27-11.27l61.65,5.33C807.19,418.61,804.11,440.94,798.36,465.05Z"/>
      <circle class="cls-2" cx="770.83" cy="342.36" r="67.96"/>
      <circle class="cls-37" cx="768.37" cy="342.14" r="66.25"/>
      <ellipse class="cls-5" cx="744.97" cy="335.71" rx="48.12" ry="34.03" transform="translate(230.05 970.18) rotate(-75.2)"/>
      <circle class="cls-2" cx="729.97" cy="329.12" r="6.75"/>
      <path class="cls-2" d="M746.67,427.07,733.8,437.19a10.76,10.76,0,0,1-2.26,7.23,2.58,2.58,0,0,1-4.07-.12,7.73,7.73,0,0,1,.15-5c-1.89,2.9-5,4.85-8.65,6.45-4.72-.4-6.3-3.53-5.93-8.36,6.55-9.66,16.34-16.25,26.57-18.17Z"/>
    </g>
    <g>
      <path class="cls-2" d="M1420.26,429.39l14.11,8.3a10.73,10.73,0,0,0,3.21,6.87,2.58,2.58,0,0,0,4-.67,7.79,7.79,0,0,0-.82-4.9c2.27,2.62,5.65,4.13,9.44,5.23,4.63-1,5.76-4.34,4.76-9.08-7.79-8.69-18.38-13.9-28.77-14.43Z"/>
      <g>
        <path class="cls-38" d="M1397.28,465.67c-1.64,5.66-15.9,26.21-35.63,48.53l-41.43-30.41c-1.9-8.62.58-15.52,13.48-18.36,9-2.08,17.38-2.24,21.2,14.55,5-11.44,11.89-21.51,21.66-29.52Z"/>
        <path class="cls-39" d="M1423.57,450.11c3.27,4.89,9.83,29,14.22,58.51l-49.94,12.13c-7.82-4.09-11.52-10.43-5.38-22.14,4.17-8.19,9.47-14.73,24.78-6.85-5.53-11.21-8.81-22.95-8.65-35.58Z"/>
        <path class="cls-40" d="M1429.54,460.35a135.4,135.4,0,0,1-61.87,0,135.67,135.67,0,0,1-2.29-53.27q.9-5.74,2.29-11.51h61.87C1434.34,413.32,1433.19,435.83,1429.54,460.35Z"/>
        <circle class="cls-2" cx="1391.55" cy="340.48" r="67.96"/>
        <circle class="cls-41" cx="1389.08" cy="340.48" r="66.25"/>
        <ellipse class="cls-5" cx="1365.21" cy="336.09" rx="48.12" ry="34.03" transform="translate(800.19 1623.53) rotate(-80.13)"/>
        <circle class="cls-2" cx="1358.46" cy="347.87" r="6.75"/>
        <path class="cls-2" d="M1372.59,429.06,1357,434a10.8,10.8,0,0,1-4.69,6,2.58,2.58,0,0,1-3.76-1.56,7.73,7.73,0,0,1,1.9-4.59c-2.8,2-6.43,2.75-10.38,3-4.27-2-4.62-5.53-2.57-9.92,9.55-6.7,21-9.38,31.29-7.55Z"/>
      </g>
    </g>
    <g>
      <path class="cls-2" d="M1007.52,433.71l14.7,7.2a10.77,10.77,0,0,0,3.73,6.6,2.57,2.57,0,0,0,4-1,7.73,7.73,0,0,0-1.19-4.82c2.46,2.44,6,3.68,9.82,4.5,4.53-1.38,5.41-4.78,4-9.42-8.43-8.07-19.39-12.47-29.79-12.2Z"/>
      <path class="cls-42" d="M971.44,470.56c-2.4,5.38-19.35,23.77-42,43.17L892.62,477.9c-.7-8.8,2.71-15.3,15.88-16.33,9.15-.83,17.52.18,19,17.33,6.55-10.64,14.74-19.67,25.52-26.25Z"/>
      <path class="cls-43" d="M1000.05,455.7c2.57,5.3,5.74,30.11,6,59.91l-51.13,5.14c-7.18-5.13-10-11.91-2.28-22.67,5.25-7.53,11.41-13.29,25.48-3.38-3.92-11.86-5.56-23.93-3.66-36.43Z"/>
      <path class="cls-44" d="M1004.13,469.73a135.35,135.35,0,0,1-61.29-8.52,135.5,135.5,0,0,1,5.07-53.07q1.68-5.58,3.85-11.09l61.28,8.52C1015.35,423.81,1011.11,446,1004.13,469.73Z"/>
      <circle class="cls-2" cx="982.99" cy="345.77" r="67.96"/>
      <circle class="cls-45" cx="980.55" cy="345.43" r="66.25"/>
      <ellipse class="cls-5" cx="957.52" cy="337.8" rx="48.12" ry="34.03" transform="translate(343.5 1146.45) rotate(-72.22)"/>
      <circle class="cls-2" cx="950.77" cy="337.8" r="6.75"/>
      <path class="cls-2" d="M951.06,432.64l-16,3.2a10.7,10.7,0,0,1-5.3,5.42,2.57,2.57,0,0,1-3.57-1.95,7.71,7.71,0,0,1,2.38-4.35c-3,1.73-6.69,2-10.64,1.83-4-2.49-4-6-1.5-10.13,10.22-5.65,21.93-7.09,31.92-4.18Z"/>
    </g>
    <g>
      <path class="cls-2" d="M1214.85,431.26l16.33,1.08a10.72,10.72,0,0,0,5.94,4.56,2.57,2.57,0,0,0,3.3-2.32,7.57,7.57,0,0,0-2.92-3.89c3.2,1.29,6.9,1.13,10.78.45,3.68-2.89,3.21-6.25.2-9.92-10.85-4.15-22.66-4.09-32.19-.06Z"/>
      <path class="cls-46" d="M1179.38,465.25c-2.43,5.19-19.48,22.91-42.2,41.56l-36.65-34.87c-.66-8.51,2.78-14.79,16-15.72,9.15-.76,17.51.26,18.89,16.87,6.61-10.26,14.84-19,25.67-25.27Z"/>
      <path class="cls-47" d="M1203.76,446.45c4.27,3.93,16,25.33,26.71,52.23l-46.06,22.07c-8.52-2.2-13.52-7.4-10.1-19.76,2.26-8.62,6-15.93,22.66-11.74-7.85-9.41-13.63-19.79-16.24-31.76Z"/>
      <path class="cls-48" d="M1212.08,464.62a139.43,139.43,0,0,1-61.24-8.57,127.25,127.25,0,0,1,5.35-51.34q1.71-5.38,3.91-10.71l61.24,8.56C1223.54,420.23,1219.19,441.64,1212.08,464.62Z"/>
      <ellipse class="cls-2" cx="1191.61" cy="344.52" rx="67.96" ry="65.79"/>
      <ellipse class="cls-49" cx="1189.17" cy="344.18" rx="66.25" ry="64.12"/>
      <ellipse class="cls-5" cx="1166.17" cy="336.67" rx="46.74" ry="33.91" transform="translate(453.19 1319) rotate(-70.13)"/>
      <ellipse class="cls-2" cx="1161.44" cy="322.72" rx="6.75" ry="6.53"/>
      <path class="cls-2" d="M1158.67,423.19l-16.16,2.57a10.61,10.61,0,0,1-5.47,5.08,2.58,2.58,0,0,1-3.5-2,7.4,7.4,0,0,1,2.52-4.13c-3.06,1.57-6.76,1.75-10.69,1.43-3.94-2.54-3.81-5.94-1.16-9.86,10.4-5.13,22.15-6.14,32-3Z"/>
    </g>
    <g id="astronaut4">
      <g>
        <path class="cls-2" d="M1366.08,701.55,1354,712.88a10.89,10.89,0,0,1-1.66,7.49c-1.33,1.51-2.75,1.42-4.11.23a7.72,7.72,0,0,1-.28-5c-1.66,3.1-4.67,5.33-8.17,7.27-4.79,0-6.65-3-6.71-7.92,5.77-10.31,15.07-17.81,25.22-20.64Z"/>
        <path class="cls-50" d="M1399.13,734.46c-2.05,5.59-2.73,30.9,0,60.95h52c6.72-5.9,8.84-13,0-23.07-6.05-7.06-12.84-12.23-26-.82,2.76-12.34,3.18-24.67,0-37.06Z"/>
        <path class="cls-51" d="M1364.15,734.46c-2.05,5.59-2.73,30.9,0,60.95h52c6.71-5.9,8.83-13,0-23.07-6.06-7.06-12.85-12.23-26-.82,2.76-12.34,3.19-24.67,0-37.06Z"/>
        <path class="cls-2" d="M1415.94,700.51l12.1,11.32a10.89,10.89,0,0,0,1.65,7.49,2.61,2.61,0,0,0,4.12.23,7.82,7.82,0,0,0,.28-5c1.65,3.09,4.66,5.33,8.16,7.26,4.8,0,6.66-3,6.71-7.91-5.76-10.32-15.07-17.82-25.21-20.64Z"/>
        <path class="cls-52" d="M1360.5,738.5a137.2,137.2,0,0,0,62.64,0,137.49,137.49,0,0,0,2.31-53.93q-.9-5.82-2.31-11.65H1360.5C1355.65,690.89,1356.81,713.68,1360.5,738.5Z"/>
        <circle class="cls-2" cx="1398.96" cy="617.15" r="68.8"/>
        <g>
          <circle class="cls-53" cx="1401.46" cy="617.15" r="67.06"/>
          <ellipse class="cls-5" cx="1425.62" cy="612.71" rx="34.44" ry="48.71" transform="translate(-83.9 253.31) rotate(-9.87)"/>
          <circle class="cls-2" cx="1432.45" cy="592.11" r="6.83"/>
        </g>
      </g>
      <g>
        <path class="cls-2" d="M926.51,699.84l-12.09,11.32a10.89,10.89,0,0,1-1.66,7.49c-1.33,1.51-2.75,1.42-4.11.23a7.82,7.82,0,0,1-.28-5c-1.66,3.09-4.67,5.33-8.17,7.26-4.79,0-6.65-3-6.71-7.91,5.77-10.32,15.07-17.82,25.22-20.64Z"/>
        <g>
          <path class="cls-2" d="M938.45,721.84l12.1,11.33a10.89,10.89,0,0,0,1.65,7.49,2.62,2.62,0,0,0,4.12.23,7.86,7.86,0,0,0,.28-5c1.65,3.1,4.66,5.33,8.16,7.26,4.8,0,6.66-3,6.71-7.91-5.76-10.31-15.06-17.81-25.21-20.64Z"/>
          <path class="cls-54" d="M956.51,736.63c-.5,5.94,5.55,30.53,16.13,58.78l50.17-13.77c4.91-7.46,5.07-14.89-6.1-22.24-7.71-5.21-15.63-8.4-25.31,6.09-.61-12.64-3.46-24.64-9.81-35.74Z"/>
          <path class="cls-55" d="M923.25,733.79c-2.06,5.59-2.73,30.9,0,61h52c6.72-5.9,8.83-13,0-23.07-6.06-7.06-12.84-12.23-26-.82,2.75-12.34,3.18-24.67,0-37.06Z"/>
          <path class="cls-56" d="M919.59,737.83a137.2,137.2,0,0,0,62.64,0,137.31,137.31,0,0,0,2.32-53.93q-.91-5.82-2.32-11.65H919.59C914.74,690.22,915.9,713,919.59,737.83Z"/>
          <circle class="cls-2" cx="958.06" cy="616.48" r="68.8"/>
          <circle class="cls-57" cx="960.55" cy="616.48" r="67.06"/>
          <ellipse class="cls-5" cx="984.71" cy="612.04" rx="34.44" ry="48.71" transform="translate(-90.3 177.76) rotate(-9.87)"/>
          <circle class="cls-2" cx="991.24" cy="601.82" r="6.83"/>
          <path class="cls-2" d="M976.29,707.56l12.09,11.33a10.84,10.84,0,0,0,1.66,7.49c1.33,1.51,2.75,1.42,4.11.23a7.82,7.82,0,0,0,.28-5c1.66,3.09,4.67,5.33,8.16,7.26,4.8,0,6.66-3,6.71-7.92-5.76-10.31-15.06-17.81-25.21-20.64Z"/>
        </g>
      </g>
      <g>
        <path class="cls-2" d="M1140.84,701.62l-13.31,9.88a10.88,10.88,0,0,1-2.5,7.25,2.62,2.62,0,0,1-4.12-.24,7.86,7.86,0,0,1,.3-5c-2,2.88-5.24,4.76-8.94,6.28-4.76-.53-6.27-3.75-5.76-8.62,6.9-9.59,17-16,27.4-17.63Z"/>
        <g>
          <path class="cls-58" d="M1166.78,735.48c-1,5.87,3,30.88,11.1,59.93l51.15-9.48c5.53-7,6.32-14.4-4.2-22.67-7.24-5.84-14.85-9.69-25.72,3.92.46-12.64-1.37-24.84-6.75-36.44Z"/>
          <path class="cls-59" d="M1136.88,733.64c-2.05,5.6-2.73,30.91,0,61h52c6.71-5.89,8.83-13,0-23.06-6.06-7.06-12.85-12.23-26-.82,2.76-12.35,3.19-24.67,0-37.07Z"/>
          <path class="cls-60" d="M1133.23,737.68a136.93,136.93,0,0,0,62.64,0,137.43,137.43,0,0,0,2.31-53.92q-.9-5.82-2.31-11.65h-62.64C1128.38,690.08,1129.54,712.87,1133.23,737.68Z"/>
          <circle class="cls-2" cx="1171.7" cy="616.34" r="68.8"/>
          <g>
            <circle class="cls-61" cx="1174.19" cy="616.34" r="67.06"/>
            <ellipse class="cls-5" cx="1198.35" cy="611.89" rx="34.44" ry="48.71" transform="translate(-87.12 214.36) rotate(-9.87)"/>
            <circle class="cls-2" cx="1205.18" cy="591.3" r="6.83"/>
          </g>
          <path class="cls-2" d="M1190.21,703.87l12.09,11.33a10.89,10.89,0,0,0,1.66,7.49c1.33,1.51,2.75,1.42,4.11.23a7.85,7.85,0,0,0,.28-5c1.66,3.1,4.67,5.34,8.17,7.27,4.79,0,6.65-3,6.71-7.92-5.77-10.31-15.07-17.81-25.22-20.64Z"/>
        </g>
      </g>
      <g>
        <path class="cls-2" d="M715.62,701.29l-13.27,9.92a10.87,10.87,0,0,1-2.47,7.26,2.6,2.6,0,0,1-4.11-.22,7.79,7.79,0,0,1,.27-5c-2,2.89-5.22,4.79-8.91,6.32-4.77-.52-6.29-3.73-5.8-8.61,6.87-9.61,16.94-16,27.34-17.73Z"/>
        <path class="cls-2" d="M741.2,669.06l-14.54,8a10.92,10.92,0,0,1-3.47,6.84,2.61,2.61,0,0,1-4-.81,7.75,7.75,0,0,1,1-4.92c-2.38,2.58-5.85,4-9.72,5-4.65-1.19-5.69-4.58-4.52-9.34,8.15-8.55,19-13.48,29.57-13.69Z"/>
        <path class="cls-62" d="M746.32,741.58c2.15,5.56,18.32,25,40.17,45.84l39.13-34.28c1.16-8.86-1.94-15.61-15.2-17.35-9.21-1.32-17.72-.74-20.11,16.52-6.06-11.1-13.87-20.65-24.42-27.87Z"/>
        <path class="cls-63" d="M716.61,734.68c-1.57,5.76-.06,31,5.24,60.73l51.83-4.48c6.19-6.45,7.68-13.73-2-23-6.64-6.51-13.85-11.08-26,1.42,1.69-12.54,1-24.85-3.19-36.93Z"/>
        <path class="cls-64" d="M713.31,739a137,137,0,0,0,62.41-5.39,137.32,137.32,0,0,0-2.34-53.92c-.93-3.82-2-7.62-3.3-11.41l-62.41,5.39C704.38,692,707.5,714.61,713.31,739Z"/>
        <circle class="cls-2" cx="741.19" cy="614.82" r="68.8"/>
        <circle class="cls-65" cx="743.68" cy="614.6" r="67.06"/>
        <ellipse class="cls-5" cx="767.37" cy="608.09" rx="34.44" ry="48.71" transform="translate(-129.9 216.26) rotate(-14.8)"/>
        <circle class="cls-2" cx="782.55" cy="601.42" r="6.83"/>
        <path class="cls-2" d="M765.64,700.57l13,10.25a10.92,10.92,0,0,0,2.29,7.32,2.61,2.61,0,0,0,4.12-.13,7.78,7.78,0,0,0-.15-5c1.91,2.94,5.11,4.91,8.76,6.53,4.78-.4,6.37-3.57,6-8.46-6.63-9.78-16.54-16.45-26.9-18.39Z"/>
      </g>
      <g>
        <path class="cls-2" d="M75.47,696.93l-14.28,8.41a10.82,10.82,0,0,1-3.26,6.94c-1.63,1.18-3,.78-4.06-.67a7.83,7.83,0,0,1,.82-5c-2.29,2.66-5.72,4.18-9.55,5.3-4.68-1-5.84-4.4-4.82-9.19,7.89-8.8,18.61-14.08,29.13-14.62Z"/>
        <path class="cls-66" d="M106.48,739.65c1.66,5.73,16.1,26.53,36.07,49.13L184.49,758c1.93-8.72-.58-15.71-13.65-18.59-9.06-2.11-17.59-2.26-21.45,14.73-5.09-11.58-12-21.77-21.94-29.88Z"/>
        <path class="cls-67" d="M79.87,723.89c-3.32,5-10,29.39-14.39,59.23L116,795.41c7.92-4.14,11.65-10.56,5.45-22.41-4.22-8.29-9.59-14.92-25.09-7,5.6-11.34,8.92-23.22,8.76-36Z"/>
        <path class="cls-68" d="M73.82,734.26a137.07,137.07,0,0,0,62.64,0,137.44,137.44,0,0,0,2.32-53.92q-.92-5.82-2.32-11.65H73.82C69,686.66,70.13,709.44,73.82,734.26Z"/>
        <circle class="cls-2" cx="112.29" cy="612.92" r="68.8"/>
        <circle class="cls-69" cx="114.78" cy="612.92" r="67.06"/>
        <ellipse class="cls-5" cx="138.94" cy="608.47" rx="34.44" ry="48.71" transform="translate(-102.2 32.8) rotate(-9.87)"/>
        <circle class="cls-2" cx="145.77" cy="620.4" r="6.83"/>
        <path class="cls-2" d="M131.48,702.58l15.81,5a10.88,10.88,0,0,0,4.74,6,2.61,2.61,0,0,0,3.81-1.58,7.75,7.75,0,0,0-1.93-4.64c2.84,2.06,6.52,2.77,10.51,3,4.33-2.07,4.69-5.6,2.61-10-9.67-6.78-21.31-9.5-31.67-7.64Z"/>
      </g>
      <g>
        <path class="cls-2" d="M507.1,707.29l-14.88,7.29a10.88,10.88,0,0,1-3.78,6.68c-1.71,1-3,.55-4-1a7.85,7.85,0,0,1,1.2-4.88c-2.49,2.47-6,3.73-9.93,4.55-4.59-1.39-5.48-4.83-4.1-9.53,8.53-8.17,19.62-12.62,30.15-12.35Z"/>
        <path class="cls-70" d="M543.62,744.6c2.43,5.44,19.59,24.06,42.49,43.69L623.41,752c.71-8.91-2.74-15.49-16.07-16.54-9.27-.84-17.74.19-19.23,17.55-6.63-10.78-14.92-19.91-25.84-26.58Z"/>
        <path class="cls-71" d="M514.66,729.55c-2.6,5.37-5.81,30.48-6.1,60.65l51.76,5.21c7.27-5.19,10.09-12.07,2.31-22.95-5.32-7.63-11.55-13.46-25.8-3.42,4-12,5.64-24.23,3.72-36.88Z"/>
        <path class="cls-72" d="M510.53,743.76a137.22,137.22,0,0,0,62-8.62,137.28,137.28,0,0,0-5.13-53.73q-1.7-5.65-3.89-11.22l-62,8.62C499.17,697.27,503.46,719.68,510.53,743.76Z"/>
        <circle class="cls-2" cx="531.93" cy="618.27" r="68.8"/>
        <circle class="cls-73" cx="534.4" cy="617.93" r="67.06"/>
        <ellipse class="cls-5" cx="557.72" cy="610.2" rx="34.44" ry="48.71" transform="translate(-159.68 199.42) rotate(-17.78)"/>
        <circle class="cls-2" cx="564.55" cy="610.2" r="6.83"/>
        <path class="cls-2" d="M564.25,706.22l16.25,3.23a10.91,10.91,0,0,0,5.36,5.49c1.93.58,3.09-.25,3.62-2a7.8,7.8,0,0,0-2.41-4.4c3,1.75,6.78,2.06,10.77,1.86,4.08-2.52,4.06-6.08,1.52-10.27-10.34-5.71-22.2-7.17-32.31-4.22Z"/>
      </g>
      <g>
        <path class="cls-2" d="M296.09,701.81,279.56,703a10.92,10.92,0,0,1-6,4.76,2.61,2.61,0,0,1-3.33-2.43,7.81,7.81,0,0,1,3-4.06c-3.24,1.35-7,1.18-10.92.47-3.72-3-3.25-6.54-.2-10.37,11-4.35,22.94-4.29,32.59-.07Z"/>
        <path class="cls-74" d="M332,737.36c2.46,5.43,19.72,24,42.72,43.47l37.11-36.47c.66-8.91-2.83-15.47-16.17-16.45-9.27-.78-17.73.28-19.13,17.65-6.69-10.73-15-19.83-26-26.43Z"/>
        <path class="cls-75" d="M307.31,717.7c-4.32,4.11-16.15,26.49-27,54.63l46.63,23.08c8.63-2.3,13.68-7.75,10.23-20.67-2.3-9-6.08-16.66-22.95-12.28,7.95-9.84,13.8-20.7,16.45-33.22Z"/>
        <path class="cls-76" d="M298.89,736.7a137,137,0,0,0,62-9,137.4,137.4,0,0,0-5.42-53.7q-1.73-5.62-4-11.2l-62,9C287.29,690.28,291.69,712.66,298.89,736.7Z"/>
        <circle class="cls-2" cx="319.61" cy="611.1" r="68.8"/>
        <circle class="cls-77" cx="322.08" cy="610.74" r="67.06"/>
        <ellipse class="cls-5" cx="345.36" cy="602.89" rx="34.44" ry="48.71" transform="translate(-170.09 136.99) rotate(-18.08)"/>
        <circle class="cls-2" cx="350.16" cy="588.3" r="6.83"/>
        <path class="cls-2" d="M353,693.38l16.35,2.68a10.89,10.89,0,0,0,5.54,5.31,2.61,2.61,0,0,0,3.55-2.1,7.77,7.77,0,0,0-2.56-4.32c3.1,1.65,6.85,1.83,10.83,1.49,4-2.65,3.85-6.2,1.17-10.31-10.52-5.36-22.42-6.42-32.43-3.13Z"/>
      </g>
      <rect class="cls-78" x="1.65" y="0.05" width="214.84" height="265.69"/>
      <rect class="cls-78" x="216.8" y="0.03" width="214.84" height="265.69"/>
      <rect class="cls-78" x="431.46" y="0.04" width="214.84" height="265.69"/>
      <rect class="cls-78" x="646.61" y="0.03" width="214.84" height="265.69"/>
      <rect class="cls-78" x="1.34" y="266.09" width="214.84" height="265.69"/>
      <rect class="cls-78" x="216.5" y="266.08" width="214.84" height="265.69"/>
      <rect class="cls-78" x="431.16" y="266.08" width="214.84" height="265.69"/>
      <rect class="cls-78" x="646.31" y="266.07" width="214.84" height="265.69"/>
      <rect class="cls-78" x="861.48" y="0.03" width="214.84" height="265.69"/>
      <rect class="cls-78" x="861.18" y="266.07" width="214.84" height="265.69"/>
      <g>
        <rect class="cls-78" x="1.38" y="531.82" width="214.84" height="265.69"/>
        <rect class="cls-78" x="216.53" y="531.8" width="214.84" height="265.69"/>
        <rect class="cls-78" x="431.19" y="531.81" width="214.84" height="265.69"/>
        <rect class="cls-78" x="646.34" y="531.79" width="214.84" height="265.69"/>
        <rect class="cls-78" x="861.21" y="531.79" width="214.84" height="265.69"/>
      </g>
      <g>
        <rect class="cls-78" x="1076.49" width="214.84" height="265.69"/>
        <rect class="cls-78" x="1076.19" y="266.04" width="214.84" height="265.69"/>
        <rect class="cls-78" x="1076.22" y="531.76" width="214.84" height="265.69"/>
      </g>
      <rect class="cls-78" x="1291.57" y="0.19" width="214.84" height="265.69"/>
      <rect class="cls-78" x="1291.26" y="266.23" width="214.84" height="265.69"/>
      <rect class="cls-78" x="1291.3" y="531.96" width="214.84" height="265.69"/>
    </g>
  </g>
</svg>
