<svg id="Layer_1" data-name="Layer 1" xmlns="http://www.w3.org/2000/svg" viewBox="0 0 191.1 193.38">
  <defs>
    <style>
      .cls-1 {
        fill: #99b98e;
      }

      .cls-2 {
        fill: #010101;
      }

      .cls-3 {
        fill: #7a5e48;
      }

      .cls-4 {
        fill: #f4e9ce;
      }
    </style>
  </defs>
  <title>jonashoved</title>
  <g id="Boymod01">
    <g>
      <path class="cls-1" d="M25.86,89.45h153.8V47.81C161.16,1.55,104.49,6.19,104.49,6.19c-60.12-4.64-78.63,45.1-78.63,45.1Z" transform="translate(-6.22 -3.89)"/>
      <path class="cls-2" d="M104.5,4.19c3.51-.23,58.7-2.93,77,42.88l.14.36v44H23.86V50.93L24,50.6c.18-.49,18-46.71,72.79-46.71Q100.53,3.89,104.5,4.19ZM27.86,87.45h149.8V48.2c-17.87-43.94-72.45-40.06-73-40l-.16,0h-.16c-24.27-1.88-44.52,4.9-60.19,20.12A73.85,73.85,0,0,0,27.86,51.67Z" transform="translate(-6.22 -3.89)"/>
    </g>
    <g>
      <path class="cls-3" d="M103.29,43.19c-17.44,0-30,24.43-25.44,31.8,1.63,2.76,9.25,2.89,24.28,2.89,16.58.07,24.87,0,26.66-2.89C133.32,67.54,120.74,43.19,103.29,43.19Z" transform="translate(-6.22 -3.89)"/>
      <path class="cls-2" d="M127.13,58.37c3.89,6.91,5,13.71,2.8,17.31h0c-2.22,3.64-10.23,3.6-27.8,3.53-16.18,0-23.42-.14-25.41-3.52-2.2-3.58-1.1-10.36,2.78-17.29,4.47-8,13.08-16.54,23.79-16.54S122.64,50.39,127.13,58.37Zm.52,15.93h0c1.65-2.71.48-8.72-2.84-14.63-4.12-7.32-11.93-15.15-21.52-15.15S85.93,52.36,81.82,59.7C78.51,65.61,77.35,71.61,79,74.31c1.32,2.24,11.43,2.24,23.14,2.24h5.91C118.91,76.56,126.43,76.3,127.65,74.3Z" transform="translate(-6.22 -3.89)"/>
    </g>
    <rect class="cls-2" x="67.06" y="70.53" width="60.13" height="12.71" rx="6.36" ry="6.36"/>
    <g>
      <path class="cls-3" d="M25.82,91.77C12,94.07,15.41,108,15.41,108c-16.18,16.18,0,30.07,0,30.07C17.73,151.9,27,150.74,27,150.74l150.39,1.16c13.87-3.46,11.55-15,11.55-15,15-18.51-1.14-31.23-1.14-31.23-1.16-12.73-13.89-15-13.89-15S39.69,89.46,25.82,91.77Z" transform="translate(-6.22 -3.89)"/>
      <path class="cls-2" d="M173.91,88.61l.34,0c4.8.87,14,5.33,15.43,16A23.71,23.71,0,0,1,197.19,119c.69,6.13-1.39,12.36-6.19,18.51.24,3.18-.1,13.11-13.15,16.37l-.24.06L27,152.74c-1.51.09-10.87,0-13.46-13.7-1.75-1.69-7-7.44-7.33-15.38-.21-5.7,2.15-11.19,7-16.35-.34-2.22-.69-7.27,2.08-11.5,2.11-3.22,5.53-5.25,10.15-6,7.11-1.19,44.44-1.48,79.89-1.48C139.15,88.32,171.23,88.59,173.91,88.61ZM26.73,148.76l.13,0,150.27,1.16c11.32-3,10-11.66,9.83-12.64l-.18-.92.59-.73c4.46-5.49,6.43-10.92,5.86-16.16-.82-7.49-6.63-12.19-6.69-12.24l-.68-.53-.07-.86c-.95-10.43-10.7-12.91-12.11-13.21-5.78,0-134.22-1.08-147.53,1.13-3.47.58-6,2-7.46,4.24-2.63,4-1.35,9.45-1.34,9.5l.28,1.1-.8.8c-4.55,4.54-6.77,9.29-6.6,14.09.27,7.57,6.42,13,6.48,13l.55.47.12.72c1.74,10.42,7.59,11.07,9,11.07Z" transform="translate(-6.22 -3.89)"/>
    </g>
    <g>
      <ellipse class="cls-4" cx="22.53" cy="115.05" rx="10.98" ry="12.14"/>
      <path class="cls-2" d="M41.07,118.94c0,7.43-5.53,13.48-12.32,13.48s-12.31-6-12.31-13.48S22,105.47,28.75,105.47,41.07,111.51,41.07,118.94Zm-2.67,0c0-6-4.33-10.81-9.65-10.81S19.1,113,19.1,118.94s4.33,10.81,9.65,10.81S38.4,124.9,38.4,118.94Z" transform="translate(-6.22 -3.89)"/>
    </g>
    <g>
      <ellipse class="cls-4" cx="170.56" cy="117.36" rx="10.98" ry="12.14"/>
      <path class="cls-2" d="M189.1,121.25c0,7.43-5.53,13.47-12.32,13.47s-12.31-6-12.31-13.47,5.52-13.47,12.31-13.47S189.1,113.82,189.1,121.25Zm-2.67,0c0-6-4.33-10.81-9.65-10.81s-9.65,4.85-9.65,10.81,4.33,10.81,9.65,10.81S186.43,127.21,186.43,121.25Z" transform="translate(-6.22 -3.89)"/>
    </g>
    <g>
      <path class="cls-4" d="M28.75,88.86H176.84v54.37c1.16,18.5-5.79,20.81-5.79,20.81l-26.59,22c-6.94,9.25-18.51,9.25-18.51,9.25H83.17a25.62,25.62,0,0,1-15-4.62L41.48,171c-12.73-5.79-12.73-20.82-12.73-20.82V88.86Z" transform="translate(-6.22 -3.89)"/>
      <path class="cls-2" d="M178.83,143.1c1.1,17.6-4.92,21.81-6.73,22.67l-26.18,21.64c-7.47,9.75-19.46,9.86-20,9.86H83.2a27.47,27.47,0,0,1-16.25-5L40.46,172.72c-13.55-6.31-13.71-21.89-13.71-22.55V86.86H178.83ZM30.75,150.17c0,.56.19,13.83,11.56,19l27,19.84a23.49,23.49,0,0,0,13.89,4.26H126c.11,0,10.64-.09,16.91-8.45l.15-.19,26.77-22.13.21-.21.36-.12c.05,0,5.51-2.54,4.49-18.94V90.86H30.75Z" transform="translate(-6.22 -3.89)"/>
    </g>
    <circle class="cls-2" cx="63.59" cy="116.79" r="6.94"/>
    <circle class="cls-2" cx="127.19" cy="116.79" r="6.94"/>
    <path class="cls-2" d="M116.08,102.17h0a6.94,6.94,0,0,0,6.94,6.94h22a7,7,0,0,0,7-6.94h0a7,7,0,0,0-7-6.94H123A6.94,6.94,0,0,0,116.08,102.17Z" transform="translate(-6.22 -3.89)"/>
    <path class="cls-2" d="M52.46,102.17h0a7,7,0,0,0,6.95,6.94H82.53a6.94,6.94,0,0,0,6.94-6.94h0a6.94,6.94,0,0,0-6.94-6.94H59.41A7,7,0,0,0,52.46,102.17Z" transform="translate(-6.22 -3.89)"/>
    <path class="cls-2" d="M112.86,173.1c-3.92,4.24-7.84,6.27-11.64,6-5.67-.38-9.5-5.75-9.53-5.8l-3.29,2.28c.2.29,4.92,7,12.52,7.51,5.08.36,10.08-2.1,14.88-7.29Z" transform="translate(-6.22 -3.89)"/>
    <path class="cls-2" d="M116.25,134v11.57a13.48,13.48,0,0,1-26.95,0V134a13.48,13.48,0,1,1,27,0Zm-2.67,11.57V134A10.81,10.81,0,1,0,92,134v11.57a10.81,10.81,0,0,0,21.61,0Z" transform="translate(-6.22 -3.89)"/>
  </g>
</svg>
