<svg id="Layer_1" data-name="Layer 1" xmlns="http://www.w3.org/2000/svg" xmlns:xlink="http://www.w3.org/1999/xlink" viewBox="0 0 280 85">
  <defs>
    <style>
      .cls-1 {
        fill: url(#linear-gradient);
      }

      .cls-2 {
        fill: #fafafa;
      }
    </style>
    <linearGradient id="linear-gradient" x1="0.25" y1="42.6" x2="280.25" y2="42.6" gradientUnits="userSpaceOnUse">
      <stop offset="0" stop-color="#722738"/>
      <stop offset="0.48" stop-color="#6d7993"/>
      <stop offset="1" stop-color="#c09f80"/>
    </linearGradient>
  </defs>
  <title>om</title>
  <g>
    <rect class="cls-1" x="0.25" y="0.1" width="280" height="85"/>
    <g>
      <path class="cls-2" d="M134.35,22.37a23.28,23.28,0,0,1,7.12,17.09,23.09,23.09,0,0,1-7.12,17,24.2,24.2,0,0,1-34.11,0,23.25,23.25,0,0,1-7.09-17,23.43,23.43,0,0,1,7.09-17.09,24,24,0,0,1,34.11,0Zm-27.3,6.79a14.49,14.49,0,0,0,0,20.48A14.51,14.51,0,0,0,131.79,39.4a14,14,0,0,0-4.28-10.24,14.44,14.44,0,0,0-20.46,0Z"/>
      <path class="cls-2" d="M168.85,46.48l23.29-32V63.21h-9.56V43.5l-13.73,19-13.75-19V63.21h-9.56V14.52Z"/>
    </g>
  </g>
</svg>
